<?xml version="1.0" encoding="UTF-8"?>
<svg id="Layer_1" xmlns="http://www.w3.org/2000/svg" xmlns:xlink="http://www.w3.org/1999/xlink" version="1.1" viewBox="0 0 100 100">
  <!-- Generator: Adobe Illustrator 29.0.0, SVG Export Plug-In . SVG Version: 2.1.0 Build 186)  -->
  <defs>
    <style>
      .st0 {
        fill: none;
      }

      .st1 {
        fill: red;
      }

      .st2 {
        clip-path: url(#clippath);
      }
    </style>
    <clipPath id="clippath">
      <rect class="st0" y="0" width="100" height="100"/>
    </clipPath>
  </defs>
  <g class="st2">
    <path class="st1" d="M45.2.2c-9.3.9-18.7,4.6-26.1,10.4C10.4,17.5,4.2,27,1.5,37.8c-1.1,4.2-1.5,7.7-1.5,12.2s.4,8,1.5,12.2c2.7,10.8,8.9,20.4,17.7,27.3,7.5,5.9,16.8,9.6,26.4,10.4,2.1.2,6.8.2,8.9,0,13.7-1.2,26.1-8,34.7-18.7,4.4-5.5,7.6-12.1,9.4-19,1.1-4.2,1.5-7.7,1.5-12.2s0-3.6,0-4.5c-1.3-14.5-8.9-27.7-20.7-36.2C71.9,4.1,63.4.9,54.5.1c-1.9-.2-7.3-.2-9.2,0h0Z"/>
  </g>
</svg>