<?xml version="1.0" encoding="UTF-8"?>
<svg id="Layer_1" xmlns="http://www.w3.org/2000/svg" xmlns:xlink="http://www.w3.org/1999/xlink" version="1.1" viewBox="0 0 16 16">
  <!-- Generator: Adobe Illustrator 29.0.0, SVG Export Plug-In . SVG Version: 2.1.0 Build 186)  -->
  <defs>
    <style>
      .st0 {
        fill: none;
      }

      .st1 {
        fill: red;
      }

      .st2 {
        clip-path: url(#clippath);
      }
    </style>
    <clipPath id="clippath">
      <rect class="st0" y="0" width="16" height="16"/>
    </clipPath>
  </defs>
  <g class="st2">
    <path class="st1" d="M7.2,0c-1.5.1-3,.7-4.2,1.7C1.7,2.8.7,4.3.2,6.1c-.2.7-.2,1.2-.2,1.9s0,1.3.2,1.9c.4,1.7,1.4,3.3,2.8,4.4,1.2.9,2.7,1.5,4.2,1.7.3,0,1.1,0,1.4,0,2.2-.2,4.2-1.3,5.6-3,.7-.9,1.2-1.9,1.5-3,.2-.7.2-1.2.2-1.9s0-.6,0-.7c-.2-2.3-1.4-4.4-3.3-5.8C11.5.7,10.1.2,8.7,0c-.3,0-1.2,0-1.5,0Z"/>
  </g>
</svg>