<?xml version="1.0" encoding="UTF-8"?>
<svg id="Layer_1" data-name="Layer 1" xmlns="http://www.w3.org/2000/svg" viewBox="0 0 121.51 119.35">
  <path d="M100.46,82.34c1.78,3.04-9.97,20.69-12.82,23.32-10.73,9.92-16.93.18-27.51.4s-15.97,9.45-26.48-.39c-17.35-16.23-28.21-62.46.49-72.42,13.61-4.72,16.09,3.08,25.02,3.07,4.88-.01,11.22-4.62,17-5.01,8.17-.55,16.5,3.04,21.37,9.61.29,1.65-5.19,5.72-6.35,7.41-7.64,11.09-3.77,28.94,9.29,34.01Z"/>
  <path d="M79.62,6.37c.06,12.27-7.75,24.2-20.96,23.94-1.36-11.96,9.12-23.3,20.96-23.94Z"/>
</svg>