<svg id="Layer_1" data-name="Layer 1" xmlns="http://www.w3.org/2000/svg" viewBox="0 0 178.5 174"><defs><style>.cls-1{fill:#010101;}</style></defs><path id="Path_4907" data-name="Path 4907" class="cls-1" d="M39.38,136.91V37.33c0-.21.06-.24.25-.24h99.24c.19,0,.25,0,.25.24v99.58ZM68.77,57.43V72.26c0,.22,0,.3.28.3h8.82a15,15,0,0,0,2.75-.26,10.58,10.58,0,0,0,7.2-5,17,17,0,0,0,2.27-6.8,26.55,26.55,0,0,0,.16-5.84,17.34,17.34,0,0,0-1-4.84,10.82,10.82,0,0,0-5.89-6.3,15.58,15.58,0,0,0-6.21-1.2h-8c-.26,0-.32.06-.31.31Q68.79,50,68.77,57.43ZM109,72.54h3.58c.19,0,.26,0,.22-.24-.61-2.84-1.21-5.67-1.81-8.51q-1.2-5.58-2.38-11.19c-.71-3.36-1.43-6.73-2.13-10.09,0-.15-.1-.18-.23-.18H96.71c-.15,0-.21.05-.24.2-.38,1.65-.76,3.31-1.13,5q-1.78,7.66-3.57,15.31l-2.25,9.51c0,.17,0,.25.17.24H95.5c.17,0,.22,0,.26-.21.4-1.94.81-3.87,1.22-5.81,0-.19.11-.22.27-.22h6.48c.16,0,.23,0,.26.21.35,1.9.72,3.81,1.07,5.72,0,.25.13.32.39.32h3.49Zm-64.79,0h5.87c.13,0,.18,0,.21-.18.39-1.93.79-3.87,1.19-5.8,0-.18.07-.27.3-.27H58c.23,0,.27.09.3.27.34,1.93.69,3.85,1,5.78,0,.15.07.2.22.2h7.05c.18,0,.19-.06.15-.21l-.33-1.58L64.29,60.41l-2-9.89c-.57-2.63-1.08-5.28-1.61-7.94,0-.2-.11-.27-.32-.27H51.29a.28.28,0,0,0-.33.25Q49.57,48.8,48.16,55L45,69.13ZM131,52.85h3.29c.16,0,.21,0,.21-.2a14.81,14.81,0,0,0-.7-4.43,8.85,8.85,0,0,0-6.14-6.06,12.79,12.79,0,0,0-5-.39,10,10,0,0,0-4.44,1.48,10.36,10.36,0,0,0-3.79,4.45,19.74,19.74,0,0,0-1.7,6.57,31,31,0,0,0,.29,8.5,16,16,0,0,0,1.74,5.06,9.36,9.36,0,0,0,5.82,4.62,13.11,13.11,0,0,0,6.81,0,8.92,8.92,0,0,0,4.71-3,11.63,11.63,0,0,0,2.35-7.24c0-.14-.06-.18-.19-.2-2-.19-4-.39-6-.61-.22,0-.25,0-.26.23a14.73,14.73,0,0,1-.39,3,3.61,3.61,0,0,1-1.18,2.12,3.39,3.39,0,0,1-3.23.38,2.92,2.92,0,0,1-1.74-1.9,11.49,11.49,0,0,1-.65-3.58q-.18-3.11-.07-6.2a24.41,24.41,0,0,1,.46-4.6,6.34,6.34,0,0,1,1-2.45,2.59,2.59,0,0,1,3.5-.68,3.17,3.17,0,0,1,1.18,1.5,9,9,0,0,1,.66,3.41c0,.23.07.28.28.28H131Z"/><path id="Path_4913" data-name="Path 4913" class="cls-1" d="M76.27,57.27v-9.4c0-.21,0-.27.27-.27a5.38,5.38,0,0,1,2.65.52,5,5,0,0,1,2.32,2.77,11.68,11.68,0,0,1,.75,3.61,38,38,0,0,1,0,5.23,12.44,12.44,0,0,1-1,4.54,4.33,4.33,0,0,1-3,2.59A8.16,8.16,0,0,1,76.4,67c-.11,0-.14,0-.13-.15V57.27Z"/><path id="Path_4914" data-name="Path 4914" class="cls-1" d="M100.72,48.58a2.85,2.85,0,0,1,.17.82l2,11.42c0,.18,0,.25-.22.25H98.34c-.18,0-.25,0-.2-.22q1.24-6,2.47-12C100.63,48.71,100.62,48.65,100.72,48.58Z"/><path id="Path_4915" data-name="Path 4915" class="cls-1" d="M55.08,48.59c.19,1.1.37,2.18.56,3.25l1.14,6.58.42,2.42c0,.17,0,.23-.2.23H52.77c-.18,0-.24,0-.2-.22q1.22-6,2.41-12.09S55,48.64,55.08,48.59Z"/></svg>