<?xml version="1.0" encoding="UTF-8"?>
<svg id="Layer_1" xmlns="http://www.w3.org/2000/svg" version="1.1" viewBox="0 0 178.5 174">
  <!-- Generator: Adobe Illustrator 29.0.0, SVG Export Plug-In . SVG Version: 2.1.0 Build 186)  -->
  <path d="M103.4,85.6c1.9-3.9,3.7-7.6,5.5-11.3.1-.5.6-.8,1.1-.7,1.5,0,3,0,4.5,0s.7,0,.7.6v25.5c0,.5-.2.6-.6.6h-4.2c-.6,0-.7-.2-.7-.7v-14.9h-.1c-.8,1.7-1.7,3.5-2.5,5.2-.6,1.2-1.2,2.4-1.7,3.6-.2.4-.4.5-.7.5h0c-1,0-2.2.3-2.9-.1s-.9-1.7-1.4-2.6c-1-2-1.9-4.1-2.9-6.1,0-.2-.2-.3-.3-.4v14.8c0,.6-.1.8-.7.8-1.4,0-2.7,0-4.1,0s-.6-.2-.6-.6c0-8.5,0-17,0-25.5,0-.5.2-.6.6-.6h4.7c.4,0,.8.2.9.6,1.8,3.6,3.5,7.2,5.3,10.8l.4.6Z"/>
  <path d="M40.8,86.9v-12.6c0-.5,0-.7.7-.7h12.1c1.6,0,3.1.6,4.2,1.7.1.1.2.3.4.4,1.7,1.5,2.7,3.7,2.5,5.9-.2,3.8,0,7.6,0,11.3,0,1.7-.6,3.4-1.9,4.6-1.6,1.8-4,2.8-6.5,2.7-3.6-.1-7.2,0-10.8,0s-.7-.2-.7-.7c0-4.2,0-8.4,0-12.7ZM46.2,86.9v7.5c0,.5.2.6.7.6h6.2c1.1-.2,1.9-1,2.1-2.1v-12c-.1-1.2-1.1-2.1-2.3-2.2h-6c-.5,0-.7.2-.7.7,0,2.5,0,5,0,7.4h0Z"/>
  <path d="M120.2,87c0-2,0-4,0-6-.1-1.8.5-3.5,1.8-4.8,1.2-1.2,2.4-2.4,4.1-2.7.5,0,1.1,0,1.6,0h6.1c1.4,0,2.8.5,3.9,1.5.7.7,1.3,1.3,2,2,.8.8,1.2,1.9,1.1,3v13.8c0,1.1-.3,2.1-1.1,2.9-.6.7-1.3,1.4-2,2.1-1.1,1-2.5,1.6-4,1.6h-6.6c-1.3,0-2.6-.5-3.6-1.3-.8-.7-1.5-1.5-2.2-2.3-.7-.8-1.1-1.7-1.1-2.8v-7h0ZM135.4,87v-6.2c-.2-1.1-1-1.9-2.1-2.1h-5.5c-1.1.2-1.9,1-2.2,2.1v12.3c.2,1.1,1.1,1.9,2.1,2.1h5.4c1.1-.2,2-1.1,2.2-2.2v-6.1Z"/>
  <path d="M155.6,100.5c-.8,0-1.6,0-2.4,0-2.2.2-4.4-.8-5.8-2.5-1-1.1-1.8-2.3-2.4-3.7-.2-.4,0-.5.3-.6,1.4-.4,2.7-.8,4.1-1.3.3-.1.6,0,.8.3,0,0,0,0,0,0,1.6,2.5,1.6,2.5,4.5,2.5h3.7c1.1-.1,2-1,2.1-2.1,0-.7.3-1.6-.1-2.1s-1.3-.4-2-.6c-3-.8-6-1.6-9-2.4-2.3-.6-3.9-2.6-3.9-5,0-.6,0-1.1,0-1.7-.3-2.2.6-4.3,2.3-5.7,1.4-1.4,3.3-2.3,5.3-2.2,1.7,0,3.5,0,5.2,0,1.6,0,3.1.5,4.3,1.6,1.4,1.2,2.5,2.7,3.3,4.4.2.4.2.7-.3.8-1.3.3-2.6.7-3.9,1.1-.4.1-.6,0-.8-.3-.2-.4-.4-.7-.7-1.1-.6-.9-1.6-1.4-2.6-1.3-1.4.1-2.9,0-4.4,0-1.1.1-2,1.1-2.1,2.2,0,1.9,0,1.9,1.9,2.4l9.3,2.5c2.2.6,3.8,2.5,3.8,4.8.1,1.4,0,2.8-.1,4.2-.2.8-.5,1.5-1,2.1-.6.8-1.4,1.5-2.1,2.2-1,.9-2.3,1.4-3.7,1.4-1.2,0-2.3,0-3.5,0Z"/>
  <path d="M36.9,100.3h-5.4c-.4,0-.5-.2-.6-.5-.5-1.4-1-2.7-1.4-4.1,0-.4-.4-.6-.8-.6h-8.2c-.3,0-.6.2-.7.5-.5,1.4-1,2.8-1.5,4.2-.1.3-.2.5-.6.5h-5.4l1.4-4c2.5-7.3,5.1-14.7,7.6-22,0-.4.5-.7.9-.7h0c1.5,0,3.1,0,4.6,0,.6,0,.7.2.9.7,2.5,7.3,5,14.6,7.6,21.9l1.4,4.1ZM21.8,89.9h5.9l-3-8.4-2.9,8.4Z"/>
  <path d="M80,77c.7,2.1,1.4,4,2.1,6,1.9,5.5,3.8,11,5.7,16.5.2.6.2.8-.6.8-1.4,0-2.8,0-4.3,0-.4,0-.8-.2-.9-.6,0,0,0,0,0,0-1.6-4.6-3.2-9.2-4.7-13.9-.1-.2-.1-.5,0-.8.9-2.6,1.8-5.2,2.7-8Z"/>
  <path d="M69.2,92.6h-2.3c-.6,0-.6-.2-.4-.7,1.3-3.8,2.7-7.5,4-11.3.7-2.1,1.5-4.2,2.2-6.3.2-.5.3-.7.9-.7,1.5,0,3,0,4.4,0s.6,0,.4.6c-2.1,6-4.1,11.9-6.1,17.9,0,.4-.4.6-.8.6,0,0,0,0,0,0-.8,0-1.5,0-2.3,0Z"/>
  <path d="M79.6,100.3h-16c.6-1.7,1.1-3.3,1.7-4.9.1-.3.3-.3.6-.3h11.5c.2,0,.5,0,.6.3.5,1.6,1.1,3.2,1.6,4.8Z"/>
</svg>