<svg id="Layer_1" data-name="Layer 1" xmlns="http://www.w3.org/2000/svg" viewBox="0 0 178.5 174"><defs><style>.cls-1{fill:#010101;}</style></defs><g id="L0pkTg"><path class="cls-1" d="M123.5,69.45c-3.08-.46-6-.88-8.91-1.34a8.47,8.47,0,0,0-5.12.61c-6.38,2.93-12.78,5.82-19.23,8.61A182.13,182.13,0,0,1,58.72,87.9,149.3,149.3,0,0,1,41.8,90.73a211.29,211.29,0,0,1-21.19,1.21,54.81,54.81,0,0,1-5.7-.5,2.78,2.78,0,0,1-1.1-.27c1.06,0,2.13,0,3.18,0,4.57-.26,9.16-.41,13.71-.86A140.24,140.24,0,0,0,53.42,86,272,272,0,0,0,91,72.44c4.34-1.88,8.64-3.84,13-5.74a3.79,3.79,0,0,1,1.38-.3q4.74-.24,9.5-.43a2.16,2.16,0,0,1,.88.11c2.46,1,4.91,2.09,7.36,3.14Z"/><path class="cls-1" d="M15.44,125.86v-.77c0-5.08,0-10.16,0-15.24a2.56,2.56,0,0,0-1.09-2.35c-.5-.35-.93-.8-1.4-1.2l.08-.17c.2,0,.4,0,.6,0,3.14,0,6.29-.06,9.44,0a10.54,10.54,0,0,1,3.29.62,4.33,4.33,0,0,1,2.86,4.45,4.27,4.27,0,0,1-2.92,4.06l-.36.16s0,0,0,0a13.86,13.86,0,0,1,1.9.8,4.65,4.65,0,0,1,2.22,4.55A4.81,4.81,0,0,1,27.21,125a9.15,9.15,0,0,1-3.84.89c-2.54,0-5.08,0-7.62,0A1.6,1.6,0,0,1,15.44,125.86Zm3.6-8.54v5.47c1.61,0,3.17.08,4.72,0a2.71,2.71,0,0,0,2.66-1.85,2.54,2.54,0,0,0-2.34-3.57C22.43,117.2,20.76,117.32,19,117.32Zm0-3.16c1.12,0,2.18,0,3.24,0a7.75,7.75,0,0,0,1.73-.23,2.29,2.29,0,0,0,1.73-2.32,2.2,2.2,0,0,0-1.84-2.28c-1.6-.2-3.22-.2-4.86-.29Z"/><path class="cls-1" d="M64.9,125.92c-.82,0-1.6,0-2.38,0a.68.68,0,0,1-.48-.41,13.61,13.61,0,0,1-.31-1.59,5.17,5.17,0,0,1-2.94,2.15,6.47,6.47,0,0,1-8.24-5.42,7.41,7.41,0,0,1,2.36-7.08c2.21-1.91,6.27-2,8.35.37.07.07.16.12.34.28v-2.76c0-1.09,0-2.17,0-3.26a2,2,0,0,0-1.09-2,4.31,4.31,0,0,1-1.07-.87H64.9Zm-7.18-2.7a4,4,0,1,0-3.92-4A3.89,3.89,0,0,0,57.72,123.22Z"/><path class="cls-1" d="M134,114.12c0-2.13,0-4.18,0-6.24a1.87,1.87,0,0,0-.92-1.5,6.81,6.81,0,0,1-1.27-1h5.56v20.54h-2.76l-.4-2a5.06,5.06,0,0,1-2.94,2.15,6.46,6.46,0,0,1-8.24-5.49,7.83,7.83,0,0,1,1.47-6.08c2.34-3,7.18-3,9.31-.49C133.81,114,133.87,114.05,134,114.12Zm-3.8,9.1a4,4,0,1,0-3.91-4A3.87,3.87,0,0,0,130.16,123.22Z"/><path class="cls-1" d="M106.22,63.67c3.58-1.31,7.14-2.65,10.74-3.91a76.29,76.29,0,0,1,14-3.5,4.53,4.53,0,0,1,1-.13,3.19,3.19,0,0,0,2.81-1.52c.92-1.15,2-2.2,3-3.27a19.09,19.09,0,0,1,5.7-3.63l-.81,1.3a52.22,52.22,0,0,0-4,8.24.92.92,0,0,1-.85.7c-8,.74-15.4,3.46-22.6,6.83a4.24,4.24,0,0,1-2.76.16c-2.06-.38-4.13-.72-6.2-1.08Z"/><path class="cls-1" d="M94.75,120.4a3.63,3.63,0,0,0,3.26,3,9.5,9.5,0,0,0,5.62-.9l.62-.27c.06.09.12.14.11.15-.59,1-1.18,2.06-1.78,3.09a.48.48,0,0,1-.26.17c-2.57,1-6.6.9-9-1.51A7.44,7.44,0,0,1,92,115.94a6.81,6.81,0,0,1,6.9-3.78c3.68.34,5.92,2.79,6.07,6.63.06,1.58.06,1.58-1.49,1.58H95.18Zm6.83-2.59c-.12-2.09-1.41-3.2-3.58-3.13a3.17,3.17,0,0,0-3.21,3.13Z"/><path class="cls-1" d="M153.48,120.38H143.26a3.16,3.16,0,0,0,1.75,2.51,6.28,6.28,0,0,0,4.56.48c.92-.21,1.81-.58,2.71-.88l.71-.29a5.41,5.41,0,0,1-.22.55,13.23,13.23,0,0,0-.94,1.63,2.84,2.84,0,0,1-2.5,1.74,8.74,8.74,0,0,1-6.93-1.46,7.22,7.22,0,0,1-2-8.39,6.8,6.8,0,0,1,7.14-4.1,6.2,6.2,0,0,1,5.91,6.07C153.53,118.92,153.48,119.61,153.48,120.38Zm-10.17-2.58h6.78a3,3,0,0,0-3.21-3.12A3.23,3.23,0,0,0,143.31,117.8Z"/><path class="cls-1" d="M81,120.36H70.84a2.86,2.86,0,0,0,1.06,2.06,5.2,5.2,0,0,0,4.35,1.07,36.42,36.42,0,0,0,3.67-1l.5-.17.11.13a17.91,17.91,0,0,0-1.14,2,2.84,2.84,0,0,1-2.45,1.71A9,9,0,0,1,70.43,125a7,7,0,0,1-2.78-7.69,6.55,6.55,0,0,1,5.75-5.08A6.47,6.47,0,0,1,81,118.75C81.05,119.26,81,119.78,81,120.36Zm-3.38-2.55c0-2-1.32-3.15-3.41-3.13a3.18,3.18,0,0,0-3.36,3.13Z"/><path class="cls-1" d="M105.73,112.52h5.37v1.73a17.25,17.25,0,0,1,2.47-1.7,4.73,4.73,0,0,1,6.77,4c.19,2.85.07,5.73.09,8.59v.75H117.1c0-.23,0-.46,0-.69v-6.26c0-.43,0-.86-.06-1.3a2.41,2.41,0,0,0-1.86-2.37,2.89,2.89,0,0,0-3.41,1.38,5.26,5.26,0,0,0-.45,2c-.06,2.17,0,4.34,0,6.51v.74h-3.38v-.68c0-3.13,0-6.25,0-9.38a2.6,2.6,0,0,0-1.42-2.62,9.43,9.43,0,0,1-.84-.56Z"/><path class="cls-1" d="M87.57,125.92H84.16v-.72c0-2.86,0-5.73,0-8.6a2.51,2.51,0,0,0-1-2.14,16.92,16.92,0,0,1-2.24-2h3.23c0-.74,0-1.41,0-2.08a12.49,12.49,0,0,1,.17-1.94,4.39,4.39,0,0,1,4.25-3.57,19.06,19.06,0,0,1,2.72.13.65.65,0,0,1,.47.34c.27.85.48,1.71.74,2.68l-.63-.13a14.67,14.67,0,0,0-2.17-.29,2,2,0,0,0-2.1,1.92,28.08,28.08,0,0,0,0,2.91h3v2.88H87.57Z"/><path class="cls-1" d="M49,123.23c-.6,1-1.08,1.76-1.59,2.54A.71.71,0,0,1,47,126c-3,.67-5.36-.67-5.47-4-.07-1.89-.06-3.78,0-5.67a2,2,0,0,0-.82-1.73c-.83-.64-1.62-1.34-2.43-2l.05-.17c.86,0,1.71,0,2.56,0a.68.68,0,0,0,.82-.58c.27-1,.62-1.94.91-2.91a.5.5,0,0,1,.6-.43c.51,0,1,0,1.64,0v3.88h3.57v2.87H44.86v2c0,1.3,0,2.6,0,3.91,0,1.94.86,2.62,2.78,2.27C48,123.46,48.43,123.36,49,123.23Z"/><path class="cls-1" d="M159.55,125.89h-3.33c0-.25,0-.48,0-.71,0-3-.06-5.9,0-8.85a3.19,3.19,0,0,0-1.84-3.39,5.12,5.12,0,0,1-.58-.41h5.75v2a12.7,12.7,0,0,1,.91-1.11,4.09,4.09,0,0,1,3.87-1.15.63.63,0,0,1,.44.41c0,.93,0,1.86,0,2.87-.29,0-.52,0-.75-.09-2.69-.49-4.48,1-4.49,3.69,0,2,0,4,0,6Z"/><path class="cls-1" d="M36.74,125.89h-3.3v-.72c0-3.15,0-6.3,0-9.45a2.67,2.67,0,0,0-1.27-2.58,6.56,6.56,0,0,1-.7-.6h5.25Z"/><path class="cls-1" d="M154.06,57c-1.24,1.4-2.44,2.79-3.67,4.15a1.25,1.25,0,0,1-.74.37,26.81,26.81,0,0,1-3.11.27,32.46,32.46,0,0,1,5.93-3.31,56.24,56.24,0,0,0-12.09-.77c.76-.78,1.44-1.49,2.13-2.17.07-.08.25-.07.37-.07a51.1,51.1,0,0,1,11,1.35S153.9,56.84,154.06,57Z"/><path class="cls-1" d="M35.1,109.92a2,2,0,1,1,0-4,2,2,0,1,1,0,4Z"/><path class="cls-1" d="M164.18,60.2,154,58.88c1.4-.46,2.73-1.45,4.41-.84s3.62,1.3,5.42,2A1.83,1.83,0,0,1,164.18,60.2Z"/></g></svg>