<?xml version="1.0" encoding="iso-8859-1"?>
<!-- Generator: Adobe Illustrator 0.0.0, SVG Export Plug-In . SVG Version: 0.00 Build 0)  -->
<svg version="1.1" id="Layer_1" xmlns="http://www.w3.org/2000/svg" xmlns:xlink="http://www.w3.org/1999/xlink" x="0px" y="0px"
	 viewBox="0 0 204.094 119.395" style="enable-background:new 0 0 204.094 119.395;" xml:space="preserve">
<g>
	<polygon style="fill:#020000;" points="55.638,12.012 59.206,17.615 62.268,17.615 62.268,9.684 60.079,9.684 60.079,15.288 
		56.372,9.684 53.438,9.684 53.438,17.615 55.638,17.615 	"/>
	<polygon style="fill:#020000;" points="72.232,15.82 66.905,15.82 66.905,14.453 70.852,14.453 70.852,12.833 66.905,12.833 
		66.905,11.48 71.978,11.48 71.978,9.684 64.653,9.684 64.653,17.616 72.232,17.616 	"/>
	<g>
		<path style="fill:#020000;" d="M78.148,17.767c1.434,0,2.481-0.326,3.143-0.98c0.663-0.652,0.993-1.664,0.993-3.029V9.684h-2.252
			v4.301c0,0.708-0.174,1.227-0.524,1.555c-0.35,0.331-0.812,0.495-1.386,0.495c-0.582,0-1.05-0.165-1.404-0.495
			c-0.354-0.328-0.531-0.847-0.531-1.555V9.684h-2.252v4.074c0,1.357,0.342,2.365,1.025,3.023
			C75.643,17.439,76.705,17.767,78.148,17.767"/>
	</g>
	<polygon style="fill:#020000;" points="86.644,15.73 88.012,14.276 90.112,17.616 92.768,17.616 89.757,12.884 92.691,9.684 
		90.112,9.684 86.644,13.391 86.644,9.684 84.444,9.684 84.444,17.616 86.644,17.616 	"/>
	<rect x="98.633" y="7.281" style="fill:#020000;" width="2.075" height="1.505"/>
	<g>
		<path style="fill:#020000;" d="M94.908,16.826c0.451,0.316,0.949,0.551,1.492,0.708c0.545,0.155,1.128,0.233,1.752,0.233
			c0.624,0,1.209-0.078,1.752-0.233c0.543-0.158,1.042-0.392,1.493-0.708c0.452-0.316,0.807-0.748,1.069-1.292
			c0.261-0.543,0.392-1.171,0.392-1.877c0-0.708-0.131-1.335-0.392-1.88c-0.262-0.543-0.615-0.976-1.063-1.297
			c-0.447-0.32-0.944-0.559-1.492-0.714c-0.549-0.155-1.135-0.233-1.759-0.233c-0.624,0-1.21,0.078-1.758,0.233
			c-0.549,0.155-1.046,0.394-1.493,0.714c-0.447,0.321-0.801,0.753-1.063,1.297c-0.262,0.544-0.392,1.171-0.392,1.88
			c0,0.707,0.13,1.334,0.392,1.877C94.101,16.078,94.457,16.509,94.908,16.826 M96.4,11.934c0.427-0.447,1.011-0.67,1.752-0.67
			c0.742,0,1.326,0.223,1.752,0.67c0.426,0.449,0.639,1.026,0.639,1.734c0,0.691-0.215,1.259-0.646,1.701
			c-0.43,0.445-1.012,0.666-1.746,0.666c-0.734,0-1.315-0.221-1.745-0.666c-0.43-0.442-0.646-1.009-0.646-1.701
			C95.761,12.96,95.975,12.383,96.4,11.934"/>
	</g>
	<rect x="95.547" y="7.281" style="fill:#020000;" width="2.075" height="1.505"/>
	<polygon style="fill:#020000;" points="111.418,15.756 106.964,15.756 106.964,9.684 104.714,9.684 104.714,17.616 111.418,17.616 
			"/>
	<polygon style="fill:#020000;" points="119.915,15.756 115.463,15.756 115.463,9.684 113.21,9.684 113.21,17.616 119.915,17.616 	
		"/>
	<polygon style="fill:#020000;" points="123.909,12.012 127.478,17.615 130.54,17.615 130.54,9.684 128.35,9.684 128.35,15.288 
		124.643,9.684 121.709,9.684 121.709,17.615 123.909,17.615 	"/>
	<polygon style="fill:#020000;" points="140.502,15.82 135.176,15.82 135.176,14.453 139.123,14.453 139.123,12.833 135.176,12.833 
		135.176,11.48 140.25,11.48 140.25,9.684 132.924,9.684 132.924,17.616 140.502,17.616 	"/>
	<g>
		<path style="fill:#020000;" d="M144.673,14.719h1.328c0.363,0,0.654,0.062,0.874,0.19c0.22,0.126,0.38,0.301,0.487,0.524
			c0.105,0.223,0.189,0.455,0.253,0.69c0.061,0.237,0.147,0.495,0.252,0.778c0.104,0.282,0.243,0.521,0.411,0.715h2.379
			c-0.194-0.27-0.384-0.742-0.569-1.417c-0.186-0.674-0.393-1.145-0.622-1.417c-0.184-0.227-0.404-0.398-0.656-0.511
			c-0.254-0.115-0.6-0.18-1.039-0.196c1.746-0.186,2.619-0.895,2.619-2.126c0-0.759-0.287-1.327-0.86-1.701
			c-0.572-0.377-1.493-0.563-2.757-0.563h-4.353v7.932h2.252V14.719z M144.673,11.303h1.922c0.97,0,1.456,0.325,1.456,0.973
			c0,0.668-0.486,1-1.456,1h-1.922V11.303z"/>
		<path style="fill:#020000;" d="M83.894,26.967c0.451,0.316,0.949,0.551,1.492,0.708c0.545,0.155,1.128,0.233,1.752,0.233
			c0.624,0,1.209-0.078,1.752-0.233c0.543-0.158,1.042-0.392,1.493-0.708c0.451-0.316,0.808-0.748,1.069-1.292
			c0.261-0.543,0.392-1.171,0.392-1.877c0-0.708-0.131-1.335-0.392-1.88c-0.261-0.543-0.615-0.977-1.063-1.297
			c-0.447-0.32-0.944-0.559-1.492-0.714c-0.549-0.155-1.135-0.233-1.759-0.233c-0.624,0-1.21,0.078-1.758,0.233
			c-0.549,0.155-1.046,0.394-1.494,0.714c-0.447,0.32-0.801,0.753-1.063,1.297c-0.262,0.544-0.392,1.171-0.392,1.88
			c0,0.707,0.13,1.334,0.392,1.877C83.086,26.219,83.443,26.651,83.894,26.967 M85.386,22.076c0.427-0.447,1.011-0.67,1.752-0.67
			c0.743,0,1.326,0.223,1.752,0.67c0.426,0.449,0.639,1.025,0.639,1.734c0,0.691-0.214,1.259-0.645,1.701
			c-0.431,0.445-1.012,0.666-1.747,0.666c-0.734,0-1.315-0.221-1.745-0.666c-0.43-0.442-0.646-1.009-0.646-1.701
			C84.747,23.101,84.961,22.525,85.386,22.076"/>
		<path style="fill:#020000;" d="M98.115,19.826h-4.415v7.931h2.252v-2.518h2.113c2.436,0,3.656-0.915,3.656-2.745
			c0-0.893-0.285-1.562-0.854-2.004C100.297,20.047,99.38,19.826,98.115,19.826 M98.001,23.633h-2.05v-2.188h2.126
			c0.438,0,0.772,0.078,0.999,0.233c0.228,0.157,0.342,0.425,0.342,0.804C99.418,23.248,98.945,23.633,98.001,23.633"/>
	</g>
	<polygon style="fill:#020000;" points="110.964,25.961 105.638,25.961 105.638,24.594 109.585,24.594 109.585,22.974 
		105.638,22.974 105.638,21.621 110.712,21.621 110.712,19.825 103.386,19.825 103.386,27.757 110.964,27.757 	"/>
	<g>
		<path style="fill:#020000;" d="M115.133,24.86h1.329c0.362,0,0.653,0.064,0.873,0.19c0.22,0.126,0.382,0.301,0.487,0.524
			c0.104,0.223,0.19,0.455,0.252,0.69c0.064,0.237,0.148,0.495,0.254,0.778c0.105,0.282,0.243,0.521,0.41,0.715h2.379
			c-0.194-0.27-0.382-0.742-0.569-1.417c-0.184-0.674-0.392-1.148-0.619-1.415c-0.186-0.229-0.406-0.4-0.658-0.513
			c-0.252-0.114-0.598-0.18-1.037-0.196c1.746-0.186,2.62-0.895,2.62-2.126c0-0.759-0.288-1.327-0.862-1.701
			c-0.573-0.377-1.491-0.563-2.757-0.563h-4.351v7.932h2.25V24.86z M115.133,21.445h1.924c0.969,0,1.454,0.325,1.454,0.973
			c0,0.668-0.486,1-1.454,1h-1.924V21.445z"/>
	</g>
	<polygon style="fill:#020000;" points="11.976,12.141 26.241,34.549 38.481,34.549 38.481,2.834 29.731,2.834 29.731,25.243 
		14.91,2.834 3.176,2.834 3.176,34.549 11.976,34.549 	"/>
	<polygon style="fill:#020000;" points="176.437,27.012 181.901,21.196 190.298,34.549 200.919,34.549 188.882,15.63 200.616,2.835 
		190.298,2.835 176.437,17.655 176.437,2.835 167.637,2.835 167.637,34.549 176.437,34.549 	"/>
</g>
<path style="fill:#020000;" d="M201.26,79.996c0,20.194-44.419,36.565-99.213,36.565S2.835,100.19,2.835,79.996
	s44.419-36.565,99.213-36.565S201.26,59.802,201.26,79.996z M169.012,97.198c15.906-5.862,23.025-12.864,23.025-17.202
	c0-4.338-7.12-11.34-23.025-17.202c-17.743-6.539-41.525-10.14-66.965-10.14c-25.44,0-49.222,3.601-66.965,10.14
	c-15.906,5.862-23.025,12.863-23.025,17.202c0,4.338,7.119,11.34,23.025,17.202c17.743,6.539,41.525,10.14,66.965,10.14
	C127.487,107.339,151.269,103.738,169.012,97.198z"/>
</svg>
