<svg id="Layer_1" data-name="Layer 1" xmlns="http://www.w3.org/2000/svg" viewBox="0 0 178.5 174"><defs><style>.cls-1{fill:#010101;}</style></defs><path class="cls-1" d="M89.18,81.74a1,1,0,0,0-1.44,0c-2.57,2.39-11.6,10.5-9.32,17.66,4-1,6.75-6.69,8.38-11.52-.71,3.53-1.16,6.76-1.16,6.76l2.25-.47a17.25,17.25,0,0,0-2.32,2.11c-1.28,4.94,1.85,10.32,2.76,11.75v.37l.11-.19.13.19V108c1-1.58,4.35-7.74,3.09-12.72,0,0-.23-2.36-.65-5.18,1.67,4.11,4.28,8.21,8.28,9.09C101.2,92.75,91.19,83.51,89.18,81.74Z"/><path class="cls-1" d="M95.74,48.78a37.38,37.38,0,0,1,.9-5.23A13.45,13.45,0,0,0,94.24,37c-3.92-.4-4.91-3-5.61-3-.94-.14-2.82,3.49-5.8,3.32A13,13,0,0,0,81,43.51C82.15,49,86,60.4,70.14,63.85,55.39,65.13,45.56,55,45,51.39c-2.58,4.12.74,10.67,3.91,12.8,4,4,11.65,6,17.89,5,13.18-2.06,19.52-8.39,19.38-19,0-1.88.36-5.54,2.93-5.54,5.17,0,3.51,15.34-8.21,24-8.57,6.38-21.4,8.38-28.52,2.37C58.53,84,93.44,78.73,95.74,48.78Z"/><path class="cls-1" d="M88.65,30.71a7.79,7.79,0,0,1,7.45-7.37,7.44,7.44,0,0,1-7.45-7.45,7.45,7.45,0,0,1-7.45,7.45A7.8,7.8,0,0,1,88.65,30.71Z"/><path class="cls-1" d="M116.7,60.15C106,62.21,105,64.39,102.6,67.22c1.49-1.49,4-1.28,11.18-1.86,8.43-.67,9.13.84,13.79-3.08,4.83-4.06,2.89-10.08,2.89-10.08C128.77,56.08,127.44,58.1,116.7,60.15Z"/><path class="cls-1" d="M63.09,93.62a4.26,4.26,0,0,0-6.22-1.22,4.49,4.49,0,1,0,6.22,1.23Z"/><path class="cls-1" d="M105.79,71.2a14.31,14.31,0,0,0-13.48,7.13s6.29,3,9.48,4.86,1,3.94,2.29,6.41S109,91,109,91a5.93,5.93,0,0,1-2.81-1.45,2.92,2.92,0,0,1-.1-3.82c1.52-1.39,3.59.26,3.1,2.34,1.08-1.32,1-2.35.6-3,1.64,1.14,1.75,4.56-1.92,3.91,1.68,2.59,5.4.73,5.47-2.82a4,4,0,0,0-3.87-3.93,17,17,0,0,1-5.59-1.17c-.81-.4-2.9-1.43-6.72-3.38,4.19-4.21,7.07-1.87,15.54-1.87s10.19-4,12.06-8.6C123.42,69.23,119.11,72.23,105.79,71.2Z"/><path class="cls-1" d="M77.05,56.84C75.21,52.78,72.48,56.78,65,54c-6.81-2.55-16.36-11.87-18.09-23.84,0,0-4.6,9.33-.68,16.37C48.31,52.23,63.76,63.84,77.05,56.84Z"/><path class="cls-1" d="M118.69,53.07c6.07-1.15,20.84-3.68,12.71-23.49,0,0-3.75,14.69-17.31,20.12C106.48,52,101.25,56.82,96.18,63c-4.34,4.79-5.31,9.74-23.37,18.7a8.15,8.15,0,0,1-.94.35c-1.13.29-4.33.75-4.33.75a4.17,4.17,0,0,0-3.69,3.37c-.42,2.81.42,3.69,1.7,4.46a6.18,6.18,0,0,0,1.25.5,3.33,3.33,0,0,0,3.84-2c-2.34,1.5-4.33-.47-3.57-2.64A1.52,1.52,0,0,0,68,88.09,2.3,2.3,0,0,0,69.65,88a1.17,1.17,0,0,1-1.31-1.51A1.83,1.83,0,0,1,70,85a2.75,2.75,0,0,1,1.75,1.61c.82,2.47-1.22,4.28-2,4.92a3.52,3.52,0,0,0,3.92-4.21c-.28-1.64.12-1.9.55-2.33a22.17,22.17,0,0,1,4-1.86C98.82,74.32,98.22,56.84,118.69,53.07Z"/><rect class="cls-1" x="113.39" y="92.67" width="6.79" height="6.79"/><path class="cls-1" d="M50.12,123.07H48v6.1H46.46v-6.1H44.32v-1.22h5.8Z"/><path class="cls-1" d="M57.7,121.85v7.32H56.18V126H53v3.15H51.43v-7.32H53V125h3.22v-3.11Z"/><path class="cls-1" d="M61.16,123v1.88H63.6v1.14H61.16V128H64.3v1.19H59.64v-7.32H64.3V123Z"/><path class="cls-1" d="M73.61,127.37a.29.29,0,0,1,.21.09l.6.64a2.82,2.82,0,0,1-1.1.86,3.93,3.93,0,0,1-1.57.29,3.64,3.64,0,0,1-1.47-.28,3.32,3.32,0,0,1-1.12-.78,3.49,3.49,0,0,1-.7-1.18,4.29,4.29,0,0,1-.25-1.5,4.42,4.42,0,0,1,.12-1,3.57,3.57,0,0,1,.34-.9,3.45,3.45,0,0,1,.55-.75,3.35,3.35,0,0,1,.72-.57,3.93,3.93,0,0,1,1.9-.48,3.7,3.7,0,0,1,.76.07,3.58,3.58,0,0,1,.68.2,2.81,2.81,0,0,1,.57.3,3.14,3.14,0,0,1,.48.39l-.51.7a.68.68,0,0,1-.12.12.33.33,0,0,1-.19,0,.4.4,0,0,1-.24-.09l-.3-.19a2.43,2.43,0,0,0-.45-.19,2.22,2.22,0,0,0-.69-.09,2.14,2.14,0,0,0-.84.17,1.93,1.93,0,0,0-.66.48,2.28,2.28,0,0,0-.42.77,3.41,3.41,0,0,0-.15,1.05,3.13,3.13,0,0,0,.16,1,2.29,2.29,0,0,0,.45.78,1.93,1.93,0,0,0,.66.48,2.07,2.07,0,0,0,.82.16,3.47,3.47,0,0,0,.47,0,2.11,2.11,0,0,0,.38-.09,1.75,1.75,0,0,0,.34-.15,2.33,2.33,0,0,0,.32-.25l.12-.07A.28.28,0,0,1,73.61,127.37Z"/><path class="cls-1" d="M82.59,125.51a4.07,4.07,0,0,1-.27,1.49,3.48,3.48,0,0,1-1.95,2,4.18,4.18,0,0,1-3.06,0,3.62,3.62,0,0,1-1.19-.78,3.47,3.47,0,0,1-.76-1.18,4.25,4.25,0,0,1,0-3,3.47,3.47,0,0,1,.76-1.18,3.62,3.62,0,0,1,1.19-.78,4.18,4.18,0,0,1,3.06,0,3.47,3.47,0,0,1,1.18.78,3.54,3.54,0,0,1,.77,1.19A4,4,0,0,1,82.59,125.51Zm-1.55,0a3.24,3.24,0,0,0-.15-1,2.12,2.12,0,0,0-.44-.78,1.89,1.89,0,0,0-.69-.49,2.57,2.57,0,0,0-1.84,0,1.85,1.85,0,0,0-.7.49,2.1,2.1,0,0,0-.43.78,3.24,3.24,0,0,0-.15,1,3.28,3.28,0,0,0,.15,1,2.1,2.1,0,0,0,.43.78,1.83,1.83,0,0,0,.7.48,2.57,2.57,0,0,0,1.84,0,1.87,1.87,0,0,0,.69-.48,2.12,2.12,0,0,0,.44-.78A3.28,3.28,0,0,0,81,125.51Z"/><path class="cls-1" d="M88.44,127.94v1.23H84.1v-7.32h1.51v6.09Z"/><path class="cls-1" d="M94.11,127.94v1.23H89.77v-7.32h1.51v6.09Z"/><path class="cls-1" d="M97,123v1.88H99.4v1.14H97V128h3.13v1.19H95.43v-7.32h4.66V123Z"/><path class="cls-1" d="M105,125.44h2.51v3a3.81,3.81,0,0,1-1.19.6,4.52,4.52,0,0,1-1.34.19,4.46,4.46,0,0,1-1.63-.28,3.69,3.69,0,0,1-1.25-.78,3.43,3.43,0,0,1-.8-1.18,3.89,3.89,0,0,1-.29-1.5,4.1,4.1,0,0,1,.27-1.51,3.4,3.4,0,0,1,.77-1.18,3.53,3.53,0,0,1,1.21-.77,4.21,4.21,0,0,1,1.59-.28,5.49,5.49,0,0,1,.84.07,3.68,3.68,0,0,1,.73.21,2.89,2.89,0,0,1,.61.3,3.92,3.92,0,0,1,.5.39l-.43.68a.43.43,0,0,1-.27.19.44.44,0,0,1-.35-.08l-.36-.2a1.79,1.79,0,0,0-.37-.15,1.84,1.84,0,0,0-.42-.1,3,3,0,0,0-.54,0,2.25,2.25,0,0,0-.92.18,2,2,0,0,0-.71.5,2.16,2.16,0,0,0-.44.77,3,3,0,0,0-.16,1,3.31,3.31,0,0,0,.17,1.08,2.21,2.21,0,0,0,.49.8,2,2,0,0,0,.75.5,2.5,2.5,0,0,0,1,.17,2.59,2.59,0,0,0,.65-.07,2.79,2.79,0,0,0,.55-.2v-1.23h-.82a.28.28,0,0,1-.23-.08.24.24,0,0,1-.09-.2Z"/><path class="cls-1" d="M110.71,123v1.88h2.44v1.14h-2.44V128h3.13v1.19h-4.66v-7.32h4.66V123Z"/><path class="cls-1" d="M125.24,125.51A4.07,4.07,0,0,1,125,127a3.47,3.47,0,0,1-.76,1.18A3.57,3.57,0,0,1,123,129a4.21,4.21,0,0,1-3.07,0,3.57,3.57,0,0,1-1.18-.78A3.5,3.5,0,0,1,118,127a4.25,4.25,0,0,1,0-3,3.5,3.5,0,0,1,.77-1.18,3.57,3.57,0,0,1,1.18-.78,4.21,4.21,0,0,1,3.07,0,3.57,3.57,0,0,1,1.18.78A3.51,3.51,0,0,1,125,124,4,4,0,0,1,125.24,125.51Zm-1.55,0a3.24,3.24,0,0,0-.15-1,2.1,2.1,0,0,0-.43-.78,1.89,1.89,0,0,0-.69-.49,2.43,2.43,0,0,0-.92-.17,2.49,2.49,0,0,0-.93.17,1.89,1.89,0,0,0-.69.49,2.12,2.12,0,0,0-.44.78,3.24,3.24,0,0,0-.15,1,3.28,3.28,0,0,0,.15,1,2.12,2.12,0,0,0,.44.78,1.87,1.87,0,0,0,.69.48,2.3,2.3,0,0,0,.93.17,2.25,2.25,0,0,0,.92-.17,1.87,1.87,0,0,0,.69-.48,2.1,2.1,0,0,0,.43-.78A3.28,3.28,0,0,0,123.69,125.51Z"/><path class="cls-1" d="M128.28,123v2h2.63v1.19h-2.63v2.92h-1.52v-7.32h4.65V123Z"/><path class="cls-1" d="M46.46,137.46v1.89H48.9v1.14H46.46v1.92H49.6v1.19H44.94v-7.32H49.6v1.18Z"/><path class="cls-1" d="M57.23,143.6H55.71a.36.36,0,0,1-.24-.08.65.65,0,0,1-.15-.18l-1.58-2.69-.05.11a.31.31,0,0,1,0,.1l-1.51,2.48a.65.65,0,0,1-.15.18.33.33,0,0,1-.22.08H50.34l2.4-3.77-2.31-3.55H52a.43.43,0,0,1,.22,0,.4.4,0,0,1,.13.13L53.87,139s0-.08.05-.13l.08-.12,1.41-2.31a.39.39,0,0,1,.13-.15.35.35,0,0,1,.18-.05h1.45l-2.33,3.48Z"/><path class="cls-1" d="M63.57,137.5H61.43v6.1H59.91v-6.1H57.77v-1.22h5.8Z"/><path class="cls-1" d="M70.72,143.6H69.35a.6.6,0,0,1-.56-.3l-1.39-2.24a.49.49,0,0,0-.19-.19.61.61,0,0,0-.3-.06h-.52v2.79H64.88v-7.32h2.3a4.56,4.56,0,0,1,1.31.16,2.39,2.39,0,0,1,.89.44,1.56,1.56,0,0,1,.51.67A2.41,2.41,0,0,1,70,139.1a1.93,1.93,0,0,1-.3.59,2.18,2.18,0,0,1-.48.48,2.27,2.27,0,0,1-.66.33,1.31,1.31,0,0,1,.27.19A1.49,1.49,0,0,1,69,141Zm-3.55-3.86a2,2,0,0,0,.64-.09,1.15,1.15,0,0,0,.43-.26,1,1,0,0,0,.26-.38,1.53,1.53,0,0,0,.08-.49,1,1,0,0,0-.35-.8,1.62,1.62,0,0,0-1-.29h-.79v2.31Z"/><path class="cls-1" d="M78.24,143.6H77.06a.49.49,0,0,1-.32-.1.55.55,0,0,1-.18-.24l-.5-1.39H73.15l-.49,1.39a.66.66,0,0,1-.18.23.48.48,0,0,1-.32.11H71l2.86-7.32h1.54Zm-2.54-2.78-.8-2.24-.14-.41a3.55,3.55,0,0,1-.15-.52c0,.19-.1.36-.15.52s-.1.3-.15.42l-.79,2.23Z"/><path class="cls-1" d="M86.16,139.94a4,4,0,0,1-.27,1.48,3.42,3.42,0,0,1-.76,1.19,3.57,3.57,0,0,1-1.18.78,4,4,0,0,1-1.54.29,4,4,0,0,1-1.53-.29,3.62,3.62,0,0,1-1.19-.78,3.57,3.57,0,0,1-.76-1.19,4,4,0,0,1-.27-1.48,4,4,0,0,1,.27-1.49,3.53,3.53,0,0,1,.76-1.18,3.64,3.64,0,0,1,1.19-.79,4,4,0,0,1,1.53-.28,4,4,0,0,1,1.54.28,3.6,3.6,0,0,1,1.18.79,3.51,3.51,0,0,1,.76,1.19A4,4,0,0,1,86.16,139.94Zm-1.55,0a3.35,3.35,0,0,0-.15-1,2.16,2.16,0,0,0-.44-.77,1.78,1.78,0,0,0-.69-.49,2.4,2.4,0,0,0-.92-.17,2.43,2.43,0,0,0-.92.17,1.78,1.78,0,0,0-.69.49,2.16,2.16,0,0,0-.44.77,3.35,3.35,0,0,0-.15,1,3.28,3.28,0,0,0,.15,1,2.2,2.2,0,0,0,.44.78,1.87,1.87,0,0,0,.69.48,2.25,2.25,0,0,0,.92.17,2.22,2.22,0,0,0,.92-.17,1.87,1.87,0,0,0,.69-.48,2.2,2.2,0,0,0,.44-.78A3.28,3.28,0,0,0,84.61,139.94Z"/><path class="cls-1" d="M93.51,143.6H92.14a.57.57,0,0,1-.55-.3l-1.4-2.24a.49.49,0,0,0-.19-.19.61.61,0,0,0-.3-.06h-.52v2.79H87.67v-7.32H90a4.56,4.56,0,0,1,1.31.16,2.44,2.44,0,0,1,.9.44,1.62,1.62,0,0,1,.5.67,2.24,2.24,0,0,1,.06,1.55,1.93,1.93,0,0,1-.3.59,2.18,2.18,0,0,1-.48.48,2.27,2.27,0,0,1-.66.33,1.31,1.31,0,0,1,.27.19,1.49,1.49,0,0,1,.23.27ZM90,139.74a2,2,0,0,0,.64-.09,1.28,1.28,0,0,0,.44-.26,1.09,1.09,0,0,0,.25-.38,1.53,1.53,0,0,0,.08-.49,1,1,0,0,0-.35-.8,1.62,1.62,0,0,0-1-.29h-.79v2.31Z"/><path class="cls-1" d="M101.19,139.94a3.92,3.92,0,0,1-.27,1.47,3.29,3.29,0,0,1-2,1.91,4,4,0,0,1-1.53.28H94.63v-7.32h2.81a4.17,4.17,0,0,1,1.53.27,3.34,3.34,0,0,1,2,1.92A3.92,3.92,0,0,1,101.19,139.94Zm-1.56,0a3.35,3.35,0,0,0-.15-1,2.14,2.14,0,0,0-.43-.77,1.78,1.78,0,0,0-.69-.49,2.25,2.25,0,0,0-.92-.18H96.15v4.95h1.29a2.25,2.25,0,0,0,.92-.17,1.78,1.78,0,0,0,.69-.49,2.1,2.1,0,0,0,.43-.78A3.28,3.28,0,0,0,99.63,139.94Z"/><path class="cls-1" d="M104.23,143.6H102.7v-7.32h1.53Z"/><path class="cls-1" d="M112.43,136.28v7.32h-.78a.67.67,0,0,1-.3-.06.85.85,0,0,1-.24-.2l-3.64-4.64c0,.12,0,.23,0,.35s0,.22,0,.32v4.23h-1.34v-7.32h1a.28.28,0,0,1,.13,0l.1.08a.65.65,0,0,1,.11.12l3.67,4.66c0-.13,0-.26,0-.37s0-.24,0-.34v-4.19Z"/><path class="cls-1" d="M120.77,143.6H119.6a.5.5,0,0,1-.33-.1.55.55,0,0,1-.18-.24l-.49-1.39h-2.92l-.49,1.39a.56.56,0,0,1-.18.23.48.48,0,0,1-.32.11h-1.18l2.86-7.32h1.55Zm-2.54-2.78-.79-2.24c0-.12-.1-.26-.15-.41s-.1-.33-.15-.52c0,.19-.1.36-.15.52s-.1.3-.15.42l-.78,2.23Z"/><path class="cls-1" d="M127.68,143.6h-1.36a.6.6,0,0,1-.56-.3l-1.39-2.24a.57.57,0,0,0-.19-.19.61.61,0,0,0-.3-.06h-.52v2.79h-1.51v-7.32h2.3a4.56,4.56,0,0,1,1.31.16,2.39,2.39,0,0,1,.89.44,1.74,1.74,0,0,1,.51.67,2.41,2.41,0,0,1,.06,1.55,1.93,1.93,0,0,1-.3.59,2.18,2.18,0,0,1-.48.48,2.4,2.4,0,0,1-.66.33,1.31,1.31,0,0,1,.27.19,1.49,1.49,0,0,1,.23.27Zm-3.54-3.86a2,2,0,0,0,.63-.09,1.12,1.12,0,0,0,.44-.26,1,1,0,0,0,.26-.38,1.53,1.53,0,0,0,.08-.49,1,1,0,0,0-.35-.8,1.62,1.62,0,0,0-1-.29h-.79v2.31Z"/><path class="cls-1" d="M131.75,140.78v2.82h-1.52v-2.82l-2.65-4.5h1.33a.5.5,0,0,1,.31.09.72.72,0,0,1,.19.24l1.2,2.31c.08.15.16.3.22.43s.13.27.18.4a3.33,3.33,0,0,1,.16-.4c.06-.14.13-.28.21-.43l1.19-2.31a.73.73,0,0,1,.18-.22.47.47,0,0,1,.31-.11h1.34Z"/><path class="cls-1" d="M46.46,151.89v1.88H48.9v1.15H46.46v1.92H49.6V158H44.94v-7.31H49.6v1.18Z"/><path class="cls-1" d="M57.23,158H55.71a.36.36,0,0,1-.24-.07.65.65,0,0,1-.15-.18l-1.58-2.69-.05.11a.47.47,0,0,1,0,.1l-1.51,2.48A.84.84,0,0,1,52,158a.32.32,0,0,1-.22.07H50.34l2.4-3.76-2.31-3.55H52a.43.43,0,0,1,.22,0,.4.4,0,0,1,.13.13l1.57,2.59s0-.09.05-.13l.08-.13,1.41-2.31a.44.44,0,0,1,.13-.14.27.27,0,0,1,.18,0h1.45l-2.33,3.48Z"/><path class="cls-1" d="M60.86,150.71a4.55,4.55,0,0,1,1.3.17,2.6,2.6,0,0,1,.9.5,2,2,0,0,1,.52.74,2.67,2.67,0,0,1,.17.95,2.64,2.64,0,0,1-.18,1,2.17,2.17,0,0,1-.53.77,2.56,2.56,0,0,1-.91.5,4,4,0,0,1-1.27.18h-1V158H58.39v-7.31Zm0,3.64a1.43,1.43,0,0,0,1-.34,1.31,1.31,0,0,0,.33-.94,1.59,1.59,0,0,0-.08-.5.92.92,0,0,0-.26-.38,1.09,1.09,0,0,0-.42-.25,2.2,2.2,0,0,0-.61-.08h-1v2.49Z"/><path class="cls-1" d="M66.64,151.89v1.88h2.44v1.15H66.64v1.92h3.13V158H65.11v-7.31h4.66v1.18Z"/><path class="cls-1" d="M77.14,158H75.77a.58.58,0,0,1-.55-.29l-1.39-2.24a.57.57,0,0,0-.19-.19.63.63,0,0,0-.31-.06h-.51V158H71.31v-7.31H73.6a4.63,4.63,0,0,1,1.32.16,2.39,2.39,0,0,1,.89.44,1.74,1.74,0,0,1,.51.67,2.39,2.39,0,0,1,.16.86,2.61,2.61,0,0,1-.1.69,1.85,1.85,0,0,1-.31.59,2.18,2.18,0,0,1-.48.48,2.91,2.91,0,0,1-.66.33,1.73,1.73,0,0,1,.28.19,1.44,1.44,0,0,1,.22.27Zm-3.55-3.85a2,2,0,0,0,.64-.09,1.2,1.2,0,0,0,.44-.26,1,1,0,0,0,.25-.38A1.53,1.53,0,0,0,75,153a1,1,0,0,0-.34-.81,1.66,1.66,0,0,0-1.06-.28h-.78v2.31Z"/><path class="cls-1" d="M79.78,158H78.26v-7.31h1.52Z"/><path class="cls-1" d="M83.24,151.89v1.88h2.44v1.15H83.24v1.92h3.14V158H81.72v-7.31h4.66v1.18Z"/><path class="cls-1" d="M94.18,150.71V158H93.4a.59.59,0,0,1-.54-.25l-3.64-4.64c0,.12,0,.23,0,.35s0,.22,0,.31V158H87.91v-7.31h1a.21.21,0,0,1,.12,0,.41.41,0,0,1,.11.07.81.81,0,0,1,.11.13l3.67,4.65,0-.37c0-.12,0-.23,0-.34v-4.18Z"/><path class="cls-1" d="M101.1,156.22a.26.26,0,0,1,.21.1l.6.63a2.87,2.87,0,0,1-1.1.86,3.76,3.76,0,0,1-1.57.3,3.86,3.86,0,0,1-1.48-.28,3.28,3.28,0,0,1-1.11-.78,3.56,3.56,0,0,1-.71-1.19,4.49,4.49,0,0,1-.25-1.5,4.34,4.34,0,0,1,.12-1,3.82,3.82,0,0,1,.35-.91,3.31,3.31,0,0,1,.55-.74,2.83,2.83,0,0,1,.72-.57,3.26,3.26,0,0,1,.88-.36,4.19,4.19,0,0,1,1-.12,3.77,3.77,0,0,1,.76.07,3.47,3.47,0,0,1,.67.19,3.56,3.56,0,0,1,.58.31,3.14,3.14,0,0,1,.48.39l-.51.7a.43.43,0,0,1-.12.11.29.29,0,0,1-.19,0,.46.46,0,0,1-.24-.08l-.31-.2A2.43,2.43,0,0,0,100,152a2.53,2.53,0,0,0-.68-.08,2.06,2.06,0,0,0-.84.16,1.78,1.78,0,0,0-.66.49,2.38,2.38,0,0,0-.43.77,3.35,3.35,0,0,0-.15,1,3,3,0,0,0,.17,1,2.29,2.29,0,0,0,.45.78,1.84,1.84,0,0,0,.66.49,2.22,2.22,0,0,0,.82.16,3.23,3.23,0,0,0,.46,0,1.59,1.59,0,0,0,.39-.08,1.5,1.5,0,0,0,.34-.16,2,2,0,0,0,.32-.24l.11-.08A.32.32,0,0,1,101.1,156.22Z"/><path class="cls-1" d="M104.68,151.89v1.88h2.45v1.15h-2.45v1.92h3.14V158h-4.66v-7.31h4.66v1.18Z"/><path class="cls-1" d="M113.32,152.11a.65.65,0,0,1-.15.17.33.33,0,0,1-.19.05.38.38,0,0,1-.23-.08l-.3-.17a3,3,0,0,0-.4-.16,1.39,1.39,0,0,0-.52-.08,1.15,1.15,0,0,0-.78.23.78.78,0,0,0-.27.61.54.54,0,0,0,.15.4,1.14,1.14,0,0,0,.38.28,2.93,2.93,0,0,0,.53.21c.2.06.4.12.61.2a4.6,4.6,0,0,1,.61.25,2.19,2.19,0,0,1,.53.37,1.75,1.75,0,0,1,.38.54,2,2,0,0,1,.14.78,2.7,2.7,0,0,1-.17.94,2.45,2.45,0,0,1-.5.76,2.54,2.54,0,0,1-.81.51,3.11,3.11,0,0,1-1.09.19,3.27,3.27,0,0,1-.7-.08,3.58,3.58,0,0,1-.66-.19,3.88,3.88,0,0,1-.61-.31,2.34,2.34,0,0,1-.49-.39l.44-.71a.5.5,0,0,1,.15-.14.41.41,0,0,1,.19,0,.51.51,0,0,1,.29.1l.35.22a2.36,2.36,0,0,0,.45.22,1.7,1.7,0,0,0,.63.1,1.27,1.27,0,0,0,.82-.24.89.89,0,0,0,.29-.72.68.68,0,0,0-.15-.45,1.07,1.07,0,0,0-.37-.28,2.77,2.77,0,0,0-.53-.2l-.61-.19a4.07,4.07,0,0,1-.61-.24,1.8,1.8,0,0,1-.53-.37,1.83,1.83,0,0,1-.38-.58,2.32,2.32,0,0,1-.14-.85,2,2,0,0,1,.16-.79,2,2,0,0,1,.47-.68,2.4,2.4,0,0,1,.77-.48,2.85,2.85,0,0,1,1-.18,3.67,3.67,0,0,1,1.22.2,2.8,2.8,0,0,1,1,.57Z"/></svg>