<?xml version="1.0" encoding="UTF-8"?>
<svg id="Layer_1" xmlns="http://www.w3.org/2000/svg" version="1.1" viewBox="0 0 178.5 174">
  <!-- Generator: Adobe Illustrator 29.0.0, SVG Export Plug-In . SVG Version: 2.1.0 Build 186)  -->
  <defs>
    <style>
      .st0 {
        fill-rule: evenodd;
      }
    </style>
  </defs>
  <g id="c_x2F_atoms">
    <g id="c_x2F_atoms_x2F_logo_x2F_bcgdv_x2F_hero_x2F_dark">
      <g id="bcgdv-logo-hero-dark">
        <path id="Fill-1" class="st0" d="M82.1,57.6c0-.8-.6-1.4-1.4-1.4s-.7.1-.9.4h0s-4.6,4.1-4.6,4.1h0s0,0-.1,0c-.2.2-.6.3-.9.3s-.4,0-.6-.2c0,0,0,0,0,0h-.2c0-.1-27.7-15.8-27.7-15.8h0c-.2-.2-.4-.2-.7-.2s-.5,0-.7.2h0l-36,20.4s0,0,0,0c-.4.2-.7.7-.7,1.2v49.7c0,.8.6,1.4,1.4,1.4s.6-.1.9-.3h0s4.7-4.1,4.7-4.1h0c.2-.2.6-.4,1-.4s.5,0,.6.2c0,0,0,0,0,0h.2c0,.1,27.8,15.9,27.8,15.9h0c.2.2.4.2.7.2s.4,0,.6-.1h.2c0-.1,35.8-20.4,35.8-20.4h.2c.4-.4.6-.8.6-1.2h0v-49.9h0ZM73.2,102.4h0c0,.5-.2.9-.6,1.1,0,0-.2,0-.2.1l-26.8,15.2h0s-.1,0-.2,0h0c-.2,0-.4.1-.6.1s-.5,0-.7-.2h0s0,0,0,0l-20.8-11.8h-.2c-.2-.2-.4-.2-.6-.2-.4,0-.7.1-1,.4h0l-2.7,2.4s-.1.1-.2.2h0c-.2.2-.5.3-.8.3-.8,0-1.4-.6-1.4-1.4v-37.1c0-.4.3-.8.6-1,0,0,0,0,.1,0l27-15.3h0c.2-.1.5-.2.7-.2s.5,0,.7.2h0l20.8,11.8h.2c.2.2.4.2.6.2.3,0,.6,0,.8-.3l.2-.2,2.7-2.4h0c.2-.2.6-.4,1-.4.8,0,1.4.6,1.4,1.3h0v37.2h0Z"/>
        <path id="Fill-4" class="st0" d="M103.7,61.1c2.4,0,4.1.8,4.1,2.9s-.7,2.1-1.7,2.4c1.1.4,1.9,1.2,1.9,2.6,0,2.1-1.6,3.1-4.1,3.1h-4.5v-11h4.3ZM100.6,62.2v3.6h3c1.5,0,2.7-.4,2.7-1.9s-1.2-1.8-2.7-1.8h-3ZM100.6,67.1v3.8h3.2c1.7,0,2.8-.4,2.8-1.9s-1.1-1.9-2.8-1.9h-3.2Z"/>
        <path id="Fill-6" class="st0" d="M120,63.2l-1.1.7c-.7-1.1-2-1.8-3.5-1.8-2.5,0-4.4,1.8-4.4,4.4s1.9,4.4,4.4,4.4,2.7-.6,3.5-1.8l1,.8c-.9,1.4-2.6,2.2-4.5,2.2-3.3,0-5.8-2.3-5.8-5.6s2.5-5.6,5.8-5.6,3.7.8,4.6,2.3"/>
        <path id="Fill-8" class="st0" d="M131.4,62.8l-1,.9c-.8-.9-2-1.5-3.4-1.5-2.5,0-4.4,1.8-4.4,4.4s1.9,4.4,4.4,4.4,3.9-1.4,4-3.6h-3.5v-1.2h4.9v.3c0,3.2-2.1,5.7-5.5,5.7s-5.8-2.1-5.8-5.6,2.5-5.6,5.8-5.6,3.4.7,4.4,1.9"/>
        <path id="Fill-10" class="st0" d="M104.3,77.3c3.9,0,6.4,2.4,6.4,6s-2.6,6-6.4,6h-4.9v-12.1h4.9ZM101.4,79.1v8.4h2.9c2.9,0,4.3-1.8,4.3-4.2s-1.4-4.2-4.3-4.2h-2.9Z"/>
        <path id="Fill-12" class="st0" d="M115,78.2c0,.7-.6,1.2-1.3,1.2s-1.3-.6-1.3-1.2.6-1.3,1.3-1.3c.7,0,1.3.6,1.3,1.3h0ZM112.8,89.4h1.9v-8.3h-1.9v8.3Z"/>
        <path id="Fill-14" class="st0" d="M123.1,82.1v-1h1.9v7.7c0,2.6-1.7,4.2-4.5,4.2s-2.7-.3-3.5-1l.7-1.5c.8.5,1.9.8,2.9.8,1.7,0,2.7-.9,2.7-2.5v-.7c-.6.8-1.6,1.2-2.8,1.2-1.9,0-3.9-1.6-3.9-4.3s2-4.3,3.9-4.3c1.2,0,2.2.4,2.8,1.2M118.3,85.1c0,1.4.9,2.6,2.5,2.6s2.5-1.1,2.5-2.6-1-2.6-2.5-2.6c-1.6,0-2.5,1.2-2.5,2.6"/>
        <path id="Fill-16" class="st0" d="M129.6,78.2c0,.7-.6,1.2-1.3,1.2s-1.3-.6-1.3-1.2.6-1.3,1.3-1.3c.7,0,1.3.6,1.3,1.3h0ZM127.4,89.4h1.9v-8.3h-1.9v8.3Z"/>
        <path id="Fill-18" class="st0" d="M137.4,82.7h-3.3v3.6c0,1.1.6,1.5,1.3,1.5s1.2-.2,1.7-.6l.7,1.4c-.7.4-1.5.8-2.6.8-1.9,0-3.1-1-3.1-3.2v-3.6h-1.7v-1.7h1.7v-2.5h1.9v2.5h3.3v1.7h0Z"/>
        <path id="Fill-20" class="st0" d="M147.1,89.4h-1.9v-1c-.6.7-1.4,1.2-2.7,1.2-2.4,0-4.2-1.8-4.2-4.3s1.9-4.3,4.2-4.3,2.1.5,2.7,1.2v-1h1.9v8.3ZM140.2,85.2c0,1.4,1,2.7,2.6,2.7s2.6-1.1,2.6-2.7-1-2.7-2.6-2.7-2.6,1.2-2.6,2.7h0Z"/>
        <polygon id="Fill-23" class="st0" points="149.5 89.4 151.3 89.4 151.3 76.9 149.5 76.9 149.5 89.4"/>
        <polygon id="Fill-24" class="st0" points="105.9 106.7 103.4 106.7 98.7 94.6 100.8 94.6 104.7 104.7 108.6 94.6 110.7 94.6 105.9 106.7"/>
        <path id="Fill-25" class="st0" d="M118.7,102.5c0,.2,0,.5,0,.7h-6.3c.2,1.5,1.3,2.1,2.5,2.1s1.8-.3,2.5-.9l.9,1.3c-1,.8-2.2,1.2-3.5,1.2-2.5,0-4.3-1.7-4.3-4.3s1.7-4.3,4.2-4.3c2.4,0,4,1.8,4,4.3M112.4,101.9h4.4c-.2-1.3-1-2.1-2.1-2.1-1.3,0-2.1.8-2.3,2.1"/>
        <path id="Fill-27" class="st0" d="M128.4,101.5v5.2h-1.9v-4.6c0-1.4-.7-2.2-2-2.2s-2.2.8-2.2,2.2v4.6h-1.9v-8.3h1.9v1c.7-1,1.7-1.2,2.6-1.2,2,0,3.4,1.4,3.4,3.4"/>
        <path id="Fill-29" class="st0" d="M136.4,100h-3.3v3.6c0,1.1.6,1.5,1.3,1.5s1.2-.2,1.7-.6l.7,1.4c-.7.4-1.5.8-2.6.8-1.9,0-3.1-1-3.1-3.2v-3.6h-1.7v-1.7h1.7v-2.5h1.9v2.5h3.3v1.7h0Z"/>
        <path id="Fill-31" class="st0" d="M145.7,103.2c0,2.7-1.9,3.7-3.9,3.7s-3.9-1.1-3.9-3.7v-4.8h1.9v4.6c0,1.6.9,2.2,2.1,2.2s2.1-.6,2.1-2.2v-4.6h1.9v4.8h0Z"/>
        <path id="Fill-33" class="st0" d="M153.7,98.4l-.4,1.8c-.4-.2-1-.3-1.4-.3-1.2,0-2,.8-2,2.2v4.5h-1.9v-8.3h1.9v.9c.6-.8,1.4-1.2,2.5-1.2.6,0,1,.2,1.4.3"/>
        <path id="Fill-35" class="st0" d="M162.6,102.5c0,.2,0,.5,0,.7h-6.3c.2,1.5,1.3,2.1,2.5,2.1s1.8-.3,2.5-.9l.9,1.3c-1,.8-2.2,1.2-3.5,1.2-2.5,0-4.3-1.7-4.3-4.3s1.7-4.3,4.2-4.3c2.4,0,4,1.8,4,4.3M156.3,101.9h4.4c-.2-1.3-1-2.1-2.1-2.1-1.3,0-2.1.8-2.3,2.1"/>
        <path id="Fill-37" class="st0" d="M170.1,100.5c-.5-.3-1.6-.7-2.6-.7s-1.6.4-1.6,1,.6.7,1.4.8h.9c1.9.4,2.9,1.2,2.9,2.6s-1.4,2.7-3.9,2.7-2.4-.2-3.6-1l.8-1.4c.6.4,1.4.8,2.8.8s1.9-.4,1.9-1-.4-.8-1.5-.9h-.9c-1.9-.4-2.9-1.2-2.9-2.5s1.3-2.7,3.5-2.7,2.6.3,3.4.9l-.8,1.4Z"/>
      </g>
    </g>
  </g>
</svg>