<svg id="Layer_1" data-name="Layer 1" xmlns="http://www.w3.org/2000/svg" viewBox="0 0 178.5 174"><defs><style>.cls-1{fill:#010101;}</style></defs><path id="Path_4722-2" data-name="Path 4722-2" class="cls-1" d="M22.9,83.16A8.56,8.56,0,0,0,23.13,82a7.22,7.22,0,0,1,4.78-5.19,18.56,18.56,0,0,1,4.47-.95c.91-.12,1.82-.21,2.73-.3.22,0,.3-.1.29-.33a18.52,18.52,0,0,0-.07-2.11,2.47,2.47,0,0,0-2-2.21,3.84,3.84,0,0,0-2.41.24,2.92,2.92,0,0,0-1.74,2.1c-.21.82-.42,1-1.25.87l-3.5-.35a.79.79,0,0,1-.82-.76.61.61,0,0,1,0-.27,7,7,0,0,1,4.11-5.29,12.1,12.1,0,0,1,9.81-.24,5.7,5.7,0,0,1,3.76,5.22c.07.8.07,1.6.07,2.4V82.2a5.38,5.38,0,0,0,1.16,3.51,6.85,6.85,0,0,1,.5.7.76.76,0,0,1-.07,1.06h0l-.1.07-3,2.62a.93.93,0,0,1-1.31.1h0l-.08-.09a9.56,9.56,0,0,1-2-2.4c-.13-.19-.21-.19-.37,0a9.2,9.2,0,0,1-3.3,2.35,9,9,0,0,1-5.72.21,5.56,5.56,0,0,1-4-4.71A1.81,1.81,0,0,0,22.9,85Zm12.5-2.67v-1.2c0-.22-.06-.27-.27-.26a11.91,11.91,0,0,0-2.92.36,3.78,3.78,0,0,0-3,2.76,5.71,5.71,0,0,0-.1,1.7,2.59,2.59,0,0,0,2.63,2.55h0a2.6,2.6,0,0,0,1.4-.44,4.25,4.25,0,0,0,1.73-2.1,8.18,8.18,0,0,0,.49-3.36Z"/><path id="Path_4723-2" data-name="Path 4723-2" class="cls-1" d="M160,89.78a1.1,1.1,0,0,1-1.11.56h-3.81c-.63,0-.92-.28-.92-.91v-13a9.9,9.9,0,0,0-.25-2.48,2.3,2.3,0,0,0-2-2,2.55,2.55,0,0,0-2.56,1.26,6.23,6.23,0,0,0-.84,2.72,16.47,16.47,0,0,0-.08,2.11V89.31c0,.75-.29,1-1,1h-3.88a.81.81,0,0,1-.92-.68v0a.53.53,0,0,1,0-.25V67.93a.78.78,0,0,1,.66-.9h4a.79.79,0,0,1,.83.78h0v.09c0,1,0,2,0,3.1a.68.68,0,0,0,.21-.35,8.31,8.31,0,0,1,1.51-2.44,5.31,5.31,0,0,1,4.1-1.63,5.5,5.5,0,0,1,5.16,2.8,8.35,8.35,0,0,1,.83,3.05,5.32,5.32,0,0,0,.14,1.2Z"/><path id="Path_4724-2" data-name="Path 4724-2" class="cls-1" d="M51.86,70.54a5.76,5.76,0,0,1,5.61-4c2.8,0,4.48,1.52,5.55,4,.14-.29.24-.54.36-.76a5.06,5.06,0,0,1,.4-.68,6.35,6.35,0,0,1,8.88-1.31,6.07,6.07,0,0,1,.82.7,5.62,5.62,0,0,1,1.3,3.34,21.93,21.93,0,0,1,.07,2.81V89.26c0,.8-.26,1.07-1.06,1.07H69.94a.82.82,0,0,1-.92-.68v0a1,1,0,0,1,0-.24V75.51a6.81,6.81,0,0,0-.2-1.86,2.11,2.11,0,0,0-1.93-1.59A2.94,2.94,0,0,0,63.6,75a19.4,19.4,0,0,0-.13,2.53v11.8c0,.79-.26,1-1,1H58.61c-.7,0-1-.3-1-1V76.24a8.49,8.49,0,0,0-.28-2.51,2.21,2.21,0,0,0-2-1.72,2.51,2.51,0,0,0-2.68,1.33,6.42,6.42,0,0,0-.56,2.77V89.49a.82.82,0,0,1-.8.83h-4.2a.79.79,0,0,1-.85-.71V67.93A.8.8,0,0,1,47,67h4a.8.8,0,0,1,.9.71v2.79Z"/><path id="Path_4725-2" data-name="Path 4725-2" class="cls-1" d="M97,77.78v4.57a5.16,5.16,0,0,0,1,3.23c.2.26.4.52.59.8a.8.8,0,0,1-.08,1.12.39.39,0,0,1-.1.08l-2.85,2.47a2.45,2.45,0,0,1-.41.31.88.88,0,0,1-1-.09,9.9,9.9,0,0,1-2.1-2.46c-.13-.21-.21-.24-.41,0a8.82,8.82,0,0,1-3.3,2.34,9.18,9.18,0,0,1-5.79.17,5.22,5.22,0,0,1-3.54-3.4,8,8,0,0,1,.14-6,7.43,7.43,0,0,1,5-4.21,24.15,24.15,0,0,1,4.46-.82c.7-.07,1.41-.15,2.15-.21.24,0,.32-.11.31-.36,0-.62,0-1.24,0-1.85a2.57,2.57,0,0,0-2.6-2.54h0A3.2,3.2,0,0,0,84.91,73c-.06.19-.1.4-.17.58a.78.78,0,0,1-.92.54l-3.68-.4A.8.8,0,0,1,79.3,73a.61.61,0,0,1,0-.3,7.13,7.13,0,0,1,4.72-5.51A12.31,12.31,0,0,1,93,67.11a5.89,5.89,0,0,1,4,5.6C97.07,74.53,97,76.31,97,77.78Zm-6,2.85v-1.4c0-.21-.07-.26-.27-.26a12.72,12.72,0,0,0-2.61.28,4.4,4.4,0,0,0-2.6,1.4,4.07,4.07,0,0,0-.66,3.79,2.42,2.42,0,0,0,2.9,1.82h0a1.31,1.31,0,0,0,.28-.09,3.62,3.62,0,0,0,2.14-1.79A7.41,7.41,0,0,0,91.05,80.63Z"/><path id="Path_4726-2" data-name="Path 4726-2" class="cls-1" d="M139.43,78.25A15,15,0,0,1,137.72,86a8.9,8.9,0,0,1-5.52,4.52,8.76,8.76,0,0,1-10.46-4.64,15.15,15.15,0,0,1-1.57-6.47,16.28,16.28,0,0,1,1.15-7,9,9,0,0,1,16.25-1.27,14.23,14.23,0,0,1,1.73,5.61C139.37,77.29,139.39,77.84,139.43,78.25Zm-13,.06v2a16.58,16.58,0,0,0,.19,2,7.16,7.16,0,0,0,.92,2.76,2.47,2.47,0,0,0,1.35,1.11,2.7,2.7,0,0,0,3.21-1.31A6.75,6.75,0,0,0,133,82a30.43,30.43,0,0,0-.06-7,9.12,9.12,0,0,0-.66-2.51,2.81,2.81,0,0,0-4.41-.7,4.51,4.51,0,0,0-1,1.81,15.77,15.77,0,0,0-.4,4.69Z"/><path id="Path_4727-2" data-name="Path 4727-2" class="cls-1" d="M79,107.69a54.66,54.66,0,0,1-20.15-3.64A52.7,52.7,0,0,1,42.62,94a1.1,1.1,0,0,1-.21-.22.62.62,0,0,1,.07-.89.61.61,0,0,1,.63-.11,12.54,12.54,0,0,1,1.53.83,70.5,70.5,0,0,0,18.56,7,71.19,71.19,0,0,0,9.63,1.52,69.82,69.82,0,0,0,9.26.25,71.71,71.71,0,0,0,18.14-3.18,64.21,64.21,0,0,0,6.43-2.35,1.61,1.61,0,0,1,1.1-.12,1,1,0,0,1,.76,1.16h0a.91.91,0,0,1-.29.51,1.82,1.82,0,0,1-.42.36,44.16,44.16,0,0,1-11.74,5.95,55.4,55.4,0,0,1-10.93,2.53A44.74,44.74,0,0,1,79,107.69Z"/><path id="Path_4728-2" data-name="Path 4728-2" class="cls-1" d="M110.25,71.66h-7.08c-.76,0-1-.24-1-1v-2.8c0-.63.28-.91.91-.91h13.72c.65,0,.92.28.92.93v2.37a2.33,2.33,0,0,1-.53,1.4c-.84,1.22-1.7,2.43-2.55,3.65l-5.16,7.38a.73.73,0,0,0,.36,0,16.66,16.66,0,0,1,5.61.82,13.21,13.21,0,0,1,1.84.82,1.46,1.46,0,0,1,.87,1.4v3.12c0,.74-.54,1-1.21.7a15.86,15.86,0,0,0-8.7-1.61,14.8,14.8,0,0,0-5.74,1.67.71.71,0,0,1-1-.2l0,0a.91.91,0,0,1-.1-.33,26.7,26.7,0,0,1,.08-4.38,3,3,0,0,1,.55-1.24l8.07-11.58Z"/><path id="Path_4729-2" data-name="Path 4729-2" class="cls-1" d="M107.55,94.19a42,42,0,0,0-5.26.37,2.18,2.18,0,0,1-.51,0,.4.4,0,0,1-.48-.33.43.43,0,0,1,.11-.37,1.44,1.44,0,0,1,.47-.45,12.39,12.39,0,0,1,5.22-1.94,16.31,16.31,0,0,1,6,.11c.29.07.57.17.85.26a1.29,1.29,0,0,1,1,1.33,12.55,12.55,0,0,1-.49,3.9,15.55,15.55,0,0,1-3.27,6.37,8.89,8.89,0,0,1-1,1,.49.49,0,0,1-.18.14c-.24.13-.49.27-.74.07s-.16-.47-.06-.7a47.69,47.69,0,0,0,1.9-5.42,8.18,8.18,0,0,0,.41-2.94,1.19,1.19,0,0,0-.83-1.07,5.12,5.12,0,0,0-1.6-.32C108.58,94.16,108.07,94.19,107.55,94.19Z"/></svg>