<svg id="Layer_1" data-name="Layer 1" xmlns="http://www.w3.org/2000/svg" viewBox="0 0 178.5 174"><defs><style>.cls-1{fill:#010101;}</style></defs><path class="cls-1" d="M37.2,59.74c.09-1.48.24-3,.27-4.43.09-4.6.17-9.2.2-13.8,0-1,.38-1.39,1.34-1.27a25.91,25.91,0,0,1,14,5.94A21.35,21.35,0,0,1,60.4,59.37c1,6.65,0,12.88-4.36,18.23-3.92,4.86-9.23,7.3-15.29,8.27-.88.14-1.77.21-2.83.33-.15-3-.31-5.94-.42-8.84-.06-1.72,0-3.46-.08-5.19a4,4,0,0,0-.22-.87Z"/><path class="cls-1" d="M67.18,101.28c-1.32-.08-2.64-.21-4-.23-2.91-.07-5.82-.12-8.73-.1-1,0-1.16-.37-1.09-1.26.81-10.07,7.94-18.1,18.19-20.46,11.6-2.67,24.31,4.69,27.47,16a32.3,32.3,0,0,1,.63,4.41c.15,1-.24,1.36-1.3,1.35-3.5,0-7,.06-10.5.12a7.54,7.54,0,0,0-1.12.2Z"/><path class="cls-1" d="M99.83,25.24c-.19,7.17-2.67,13-8.1,17.45-8.81,7.21-22.41,6.8-30.9-.89a21.9,21.9,0,0,1-7.42-15c-.12-1.53,0-1.69,1.58-1.69,10.81,0,21.62-.06,32.43,0C91.5,25,95.58,25.17,99.83,25.24Z"/><path class="cls-1" d="M115.51,86.38a18.83,18.83,0,0,1-9.31-1.59c-7.91-3.64-12.38-9.94-13.46-18.45-1.93-15.13,10-24.23,21.06-25.34a1.48,1.48,0,0,1,1.74,1.59c.06,1.14,0,2.28,0,3.42V86.38Z"/><path class="cls-1" d="M38.08,147c.81,1.14,1.52,2.3,3,2.82a1.52,1.52,0,0,1-.34.14c-1.55.12-1.56.12-2.5-1.1a8.49,8.49,0,0,1-.9-1.34.76.76,0,0,0-1-.46c0,.77,0,1.53,0,2.29,0,.13.25.28.42.34a2.23,2.23,0,0,0,.65,0,5.11,5.11,0,0,1-2.76.15s0-.11.06-.11c.61.06.62-.31.61-.77,0-1.25,0-2.51,0-3.77,0-.57.33-1.38-.82-1.42l.09-.14c.34,0,.68-.08,1-.08a20.39,20.39,0,0,1,2.35.05,1.61,1.61,0,0,1,1.56,1.32,1.73,1.73,0,0,1-1.15,1.9Zm-1.79-1.68h0c0,.31,0,.62,0,.93s.12.55.5.5a7.64,7.64,0,0,0,.82-.1,1.19,1.19,0,0,0,1-1.2,1.73,1.73,0,0,0-2.05-1.58.43.43,0,0,0-.21.32C36.28,144.51,36.29,144.89,36.29,145.27Z"/><path class="cls-1" d="M34.59,132a1,1,0,0,1,.27-.09c1,0,2-.07,2.94,0a1.72,1.72,0,0,1,1.73,1.31,1.76,1.76,0,0,1-1.2,2l-.17.09A6.6,6.6,0,0,0,41,138.19c-.2,0-.4,0-.6.06a1.86,1.86,0,0,1-2.11-1c-.29-.49-.69-.91-.95-1.42s-.52-.53-1.07-.48c0,.81.06,1.61.12,2.41,0,.09.22.2.35.23a3.4,3.4,0,0,0,.68,0,4.65,4.65,0,0,1-2.75,0l.64-.12c0-.18,0-.37,0-.56,0-1.36,0-2.71,0-4.07C35.33,132.76,35.53,132.07,34.59,132Zm1.7,1.61h0v.49c0,1,.14,1.13,1.16.91a1.19,1.19,0,0,0,1.1-1.13,1.59,1.59,0,0,0-1.62-1.71c-.57-.06-.62,0-.63.55Z"/><path class="cls-1" d="M116.59,126.54h-2.66c.07-.1.09-.17.11-.17.61,0,.61-.33.6-.78,0-1.26,0-2.51,0-3.77v-.4c0-.8,0-.82-.87-1a2,2,0,0,1,.41-.14c1,0,2,0,2.94,0a1.71,1.71,0,0,1,1.59,1,1.47,1.47,0,0,1-.18,1.62,7.45,7.45,0,0,1-1.11.89,6.31,6.31,0,0,0,2.92,2.76,2.1,2.1,0,0,1-2.47-.55c-.47-.62-.87-1.3-1.36-1.91a3,3,0,0,0-.85-.49c0,1,0,1.75,0,2.54,0,.1.27.21.42.27a2.83,2.83,0,0,0,.52.08Zm-1-4.6h0v.4c0,1.1.26,1.29,1.36.94a1.13,1.13,0,0,0,.89-1.19,1.7,1.7,0,0,0-2-1.6.43.43,0,0,0-.25.33C115.57,121.19,115.59,121.57,115.59,121.94Z"/><path class="cls-1" d="M71.38,132.19l-.68-.14v-.11h2.22c-1.38.6-2.17,1.7-3.19,2.52a4.18,4.18,0,0,0-.34.36c.15.15.3.27.43.4.56.59,1.13,1.18,1.68,1.78.42.45.75,1,1.46,1v.14a5.17,5.17,0,0,0-.55.07,1.68,1.68,0,0,1-1.8-.82,16.54,16.54,0,0,0-1.66-1.8c-.09-.09-.29-.19-.35-.15a.5.5,0,0,0-.22.38c0,.54,0,1.08,0,1.62,0,.36.09.57.5.52a1,1,0,0,1,.33.06l0,.12H66.77l0-.15.56-.09a2,2,0,0,0,0-.36c0-1.53,0-3.07,0-4.6,0-.47,0-.95-.69-.87,0,0-.06-.07-.15-.17H69l0,.1-.6.14v2.95A15.6,15.6,0,0,0,71.38,132.19Z"/><path class="cls-1" d="M48.64,149.85h-2.2c.05-.08.07-.14.08-.13.67.05.63-.4.62-.85,0-.72,0-1.44,0-2.16s0-.8-.71-1.09l1.57-.09.1.54c.27-.13.5-.25.73-.35a1.39,1.39,0,0,1,1.64.22.48.48,0,0,0,.41.05c.25-.08.47-.24.71-.33a1.25,1.25,0,0,1,1.78,1.23c0,.62,0,1.24,0,1.86v.86l.6.12v.12H52l0-.1.49-.15c0-.89,0-1.81,0-2.71a.86.86,0,0,0-.49-.64,2.88,2.88,0,0,0-1.08.09c-.05,0-.09.16-.09.25,0,.82,0,1.63,0,2.45,0,.42,0,.71.56.65,0,0,.09,0,.14.05l0,.11h-2c.56-.13.47-.57.47-.94,0-.59,0-1.18,0-1.76a1,1,0,0,0-1.69-.85.64.64,0,0,0-.17.46c0,.66,0,1.31,0,2,0,.47-.08,1,.72,1Z"/><path class="cls-1" d="M49.41,138.19c.61-.18.47-.66.47-1.08s0-1.08,0-1.62a1,1,0,0,0-1.69-.85.54.54,0,0,0-.17.42c0,.64,0,1.28,0,1.91,0,.48-.22,1.13.78,1.08l-.14.14H46.49l0-.1.67-.16c0-1.14,0-2.29,0-3.45,0-.1-.18-.23-.3-.3a1.24,1.24,0,0,0-.4-.07V134l1.58-.1.09.54c.29-.13.54-.27.81-.37a1.39,1.39,0,0,1,1.55.23.49.49,0,0,0,.41.06c.22-.06.41-.2.62-.28a1.26,1.26,0,0,1,1.88,1.22c0,.72,0,1.44,0,2.16v.51l.6.14v.11H52l0-.08.48-.2c0-.87,0-1.75,0-2.63a.93.93,0,0,0-.49-.68,2.7,2.7,0,0,0-1.08.09s-.09.16-.09.24c0,.82,0,1.63,0,2.45,0,.38,0,.69.52.65,0,0,.09.06.24.16Z"/><path class="cls-1" d="M127.92,126.54h-2.13c0-.06,0-.11,0-.11.59,0,.64-.35.62-.82,0-.82,0-1.64,0-2.46,0-.41-.06-.72-.59-.64,0,0-.1-.05-.15-.2l1.58-.09.13.54a8.5,8.5,0,0,1,.81-.39,1.46,1.46,0,0,1,1.52.22.66.66,0,0,0,.49.06,3.49,3.49,0,0,0,.48-.23,1.27,1.27,0,0,1,1.95,1.22c0,.64,0,1.28,0,1.91,0,.42-.18,1,.71.84l-.15.14h-1.93c.61-.15.45-.63.46-1,0-.61,0-1.21,0-1.82,0-.35-.14-.69-.5-.75a3.67,3.67,0,0,0-1.09.1c-.05,0-.1.18-.1.28,0,.69,0,1.37,0,2.06,0,.48-.22,1.1.62,1.17h-1.93c.52-.15.44-.57.44-1,0-.58,0-1.17,0-1.76a1.06,1.06,0,0,0-1.7-.85.5.5,0,0,0-.16.33c0,.84,0,1.67,0,2.5C127.27,126.28,127.58,126.38,127.92,126.54Z"/><path class="cls-1" d="M85.39,143.75l-.23,1.4a2.18,2.18,0,0,0-2.57-1.27,2.71,2.71,0,0,0-2.18,3c0,.18,0,.36,0,.53a2.55,2.55,0,0,0,4,1.76,3.57,3.57,0,0,0,.7-.87c.45.7.41.88-.38,1.22a5.07,5.07,0,0,1-3.3.32,2.88,2.88,0,0,1-2-3.9,3.73,3.73,0,0,1,3.92-2.54A16.11,16.11,0,0,1,85.39,143.75Z"/><path class="cls-1" d="M82.67,125c.49.74.46.94-.28,1.27a5.21,5.21,0,0,1-3.5.29,3,3,0,0,1-1.77-4.19,3.5,3.5,0,0,1,3.22-2.18,9.62,9.62,0,0,1,2,.17c.4.05.62.25.49.7-.07.25-.09.51-.16.92a1.57,1.57,0,0,0-1.1-1.22A4.44,4.44,0,0,0,80,120.6a2.36,2.36,0,0,0-2,2.06,4.68,4.68,0,0,0,0,1.75A2.56,2.56,0,0,0,82,125.94a1.88,1.88,0,0,0,.44-.45A2.16,2.16,0,0,0,82.67,125Z"/><path class="cls-1" d="M71.54,145.61l1.59-.08.1.54.56-.28c1.21-.59,2.1-.06,2.13,1.28,0,.5,0,1,0,1.51,0,.87,0,.87.73,1.27H74.49c.64-.14.49-.64.5-1,0-.57,0-1.14,0-1.71a1,1,0,0,0-1.66-.78.41.41,0,0,0-.15.28c0,.77-.05,1.53,0,2.3,0,.58,0,.58.74,1h-2.3l0-.11c.75,0,.65-.5.64-1,0-.68,0-1.37,0-2s0-.8-.71-1Z"/><path class="cls-1" d="M40.15,126.55H38a.84.84,0,0,1,0-.12c.6,0,.63-.36.62-.83,0-.78,0-1.56,0-2.35,0-.42,0-.85-.64-.74,0,0-.09,0-.14-.06l0-.14,1.58-.09.11.55c.26-.13.48-.26.72-.36a1.28,1.28,0,0,1,2,1.22c0,.65,0,1.3,0,2s0,.68.58.93H40.9c.5-.12.46-.5.45-.87,0-.67,0-1.34,0-2,0-.35-.16-.69-.53-.72a4.74,4.74,0,0,0-1.18.13c-.05,0-.09.2-.09.3q0,1.28,0,2.55C39.54,126.26,39.56,126.26,40.15,126.55Z"/><path class="cls-1" d="M73,134l1.72-.09v2.27c0,.33,0,.65,0,1a.57.57,0,0,0,.7.61,2.18,2.18,0,0,0,.84-.22.82.82,0,0,0,.32-.52c0-.62,0-1.24,0-1.86,0-.82,0-.82-.7-1.15l1.56-.08c.29,1.38-.36,2.85.45,4.15-.73.36-.73.36-1.26-.36a9.14,9.14,0,0,1-1.5.56,1,1,0,0,1-1.3-1.11c0-.73,0-1.47,0-2.21,0-.44,0-.89-.68-.79C73.14,134.18,73.1,134.12,73,134Z"/><path class="cls-1" d="M63.25,149.62l.56.11,0,.12h-2v-.1l.47-.16c0-.91,0-1.84,0-2.76a.82.82,0,0,0-.51-.6,3.45,3.45,0,0,0-1.18.15c-.05,0-.08.21-.08.31,0,.82,0,1.64,0,2.45,0,.34,0,.34.76.71H58.88a.63.63,0,0,0,0-.13c.62,0,.67-.34.65-.84,0-.68,0-1.37,0-2,0-.86,0-.86-.74-1.21l1.58-.09.09.54c.26-.12.48-.24.72-.34a1.27,1.27,0,0,1,2,1.24c0,.83,0,1.67,0,2.5A.42.42,0,0,0,63.25,149.62Z"/><path class="cls-1" d="M118.6,138.19h-2c.53-.16.47-.58.48-1,0-.56,0-1.11,0-1.67a1,1,0,0,0-1.64-.92.46.46,0,0,0-.19.35c0,.85,0,1.7,0,2.54,0,.5.41.43.76.66h-2.32l0-.09c.75,0,.66-.54.65-1,0-.74,0-1.47,0-2.2,0-.44-.05-.76-.59-.71,0,0-.08,0-.12-.07s0,0,0-.11l1.62-.1.08.55a7.67,7.67,0,0,1,.77-.37,1.24,1.24,0,0,1,1.88,1.1c.06.61,0,1.24,0,1.85s-.22,1.11.72,1.07Z"/><path class="cls-1" d="M124.74,149.86h-2.1c.65-.19.48-.72.49-1.15a10.38,10.38,0,0,0-.06-1.85.83.83,0,0,0-.5-.62,3,3,0,0,0-1.18.13c-.06,0-.1.29-.1.45,0,.64,0,1.27,0,1.91,0,.47-.11,1,.65,1.11h-2.16l0-.11.64-.12c0-1.14,0-2.28,0-3.42,0-.51-.47-.31-.72-.44v-.13l1.58-.09.12.54c.23-.12.44-.23.66-.33a1.29,1.29,0,0,1,2,1.2c0,.74,0,1.47,0,2.21,0,.35,0,.58.47.53C124.53,149.68,124.58,149.74,124.74,149.86Z"/><path class="cls-1" d="M58.86,134l1.56-.08.09.54c.28-.14.52-.26.77-.37a1.27,1.27,0,0,1,1.91,1.23c0,.72,0,1.44,0,2.16,0,.35,0,.63.47.59,0,0,.09.06.21.16H61.8l0-.09.48-.18c0-.88,0-1.78,0-2.67a.87.87,0,0,0-.5-.66,3.21,3.21,0,0,0-1.18.12s-.1.2-.1.3c0,.83,0,1.67,0,2.5,0,.46.3.55.71.54l-.07.13H58.86c.06-.07.09-.14.11-.14.69.08.59-.4.59-.82,0-.65,0-1.31,0-2s.18-1.21-.84-1.15Z"/><path class="cls-1" d="M143.07,126.55h-2c.55-.18.45-.63.45-1a14.76,14.76,0,0,0-.05-2,.9.9,0,0,0-.56-.62,2.9,2.9,0,0,0-1.12.16c-.07,0-.09.26-.09.4,0,.71,0,1.41,0,2.11s0,.68.63.94h-2.12c.73-.07.6-.63.61-1.08,0-.74,0-1.47,0-2.21,0-.42,0-.81-.62-.72-.05,0-.1-.06-.14-.2l1.59-.09.11.54.56-.28c1.21-.6,2.11-.06,2.12,1.27,0,.59,0,1.18,0,1.77S142.47,126.25,143.07,126.55Z"/><path class="cls-1" d="M99.23,145.55v1.88c0,.44,0,.88,0,1.32s.27.73.8.69a2.44,2.44,0,0,0,.52-.12.7.7,0,0,0,.59-.8,19.25,19.25,0,0,1,0-2c0-.4-.07-.68-.56-.63,0,0-.09,0-.14-.19H102c.27,1.3-.38,2.77.43,4.07-.81.34-.81.34-1.29-.44a2.65,2.65,0,0,1-.65.37,5.37,5.37,0,0,1-1.37.22c-.42,0-.73-.46-.74-.95s0-1.24,0-1.86.24-1.32-.87-1.27l.09-.17Z"/><path class="cls-1" d="M141.94,145.67h1.56c.26,1.33-.37,2.78.41,4.09-.75.35-.75.35-1.22-.33a10.52,10.52,0,0,1-1.73.5c-.7.08-1.08-.34-1.09-1.06s0-1.18,0-1.76.23-1.32-.85-1.29l.08-.16,1.63-.11c0,1,0,1.93,0,2.88,0,.36-.1.78.38.95a1.69,1.69,0,0,0,1.43-.33.52.52,0,0,0,.09-.31c0-.78,0-1.57,0-2.35,0-.55-.41-.46-.72-.57Z"/><path class="cls-1" d="M68,122.35c0,.63,0,1.29,0,2,0,.42,0,.84,0,1.27a.52.52,0,0,0,.62.53,3.19,3.19,0,0,0,.62-.08.77.77,0,0,0,.67-.91,14.42,14.42,0,0,1,0-1.47c0-.89,0-.89-.73-1.26l1.54-.11c.3,1.39-.36,2.87.47,4.17-.79.34-.79.34-1.23-.34a10.32,10.32,0,0,1-1.7.52c-.72.09-1.12-.34-1.13-1.08s0-1.24,0-1.86c0-1,0-1-.77-1.34Z"/><path class="cls-1" d="M84.82,134l1.63-.09v2c0,.39,0,.78,0,1.17s.21.73.74.68a3.06,3.06,0,0,0,.92-.28.56.56,0,0,0,.23-.42c0-.77,0-1.54,0-2.31,0-.56-.4-.51-.74-.6l0-.12h1.58c.26,1.28-.42,2.76.43,4.05-.79.38-.79.38-1.29-.42a4.71,4.71,0,0,1-.58.32,4.61,4.61,0,0,1-1.06.32,1,1,0,0,1-1.12-1c0-.6,0-1.21,0-1.81s.25-1.35-.84-1.36Z"/><path class="cls-1" d="M88.53,145.67h1.72c.27,1.32-.41,2.79.45,4.09-.82.33-.82.33-1.3-.44a2.84,2.84,0,0,1-.7.39,4.87,4.87,0,0,1-1.37.19c-.41,0-.67-.47-.69-1q0-1.2,0-2.4c0-.41-.09-.72-.61-.63,0,0-.1-.06-.14-.21l1.65-.11v2.12c0,.39,0,.78,0,1.17s.23.62.58.58a4.33,4.33,0,0,0,1.15-.34c.09,0,.15-.27.16-.41,0-.69,0-1.37,0-2.06,0-.42,0-.81-.61-.74C88.75,145.88,88.7,145.81,88.53,145.67Z"/><path class="cls-1" d="M99.54,122.28c0,1,0,1.9,0,2.83a1.36,1.36,0,0,0,.51,1.3c-.92.4-.92.4-1.39-.41a3.08,3.08,0,0,1-.7.4,4.65,4.65,0,0,1-1.27.23.93.93,0,0,1-.79-1c0-.64,0-1.28,0-1.91s.2-1.29-.86-1.26l.1-.14h1.62c0,.9,0,1.84,0,2.79,0,.35-.08.74.35.93a1.68,1.68,0,0,0,1.46-.34.71.71,0,0,0,.09-.41c0-.58,0-1.15,0-1.72,0-.85,0-.85-.73-1.22Z"/><path class="cls-1" d="M60.13,122.38l1.54-.09c.36,1.35-.37,2.84.49,4.14-.69.39-.78.37-1.23-.31a12.5,12.5,0,0,1-1.77.51c-.63.09-1-.35-1-1s0-1.6,0-2.4c0-.46-.12-.76-.66-.7,0,0-.07-.06-.21-.18H59c0,.55,0,1.17,0,1.78,0,.39,0,.79,0,1.18,0,.68.21.86.91.8s1-.34,1-1.06v-1.43C60.87,122.75,60.87,122.75,60.13,122.38Z"/><path class="cls-1" d="M86.22,122.39l1.53-.11c.32,1.36-.36,2.84.46,4.14-.66.4-.75.38-1.23-.32a9.11,9.11,0,0,1-1.66.53c-.76.09-1.17-.36-1.18-1.14,0-.58,0-1.15,0-1.72s.24-1.32-.88-1.28l.1-.2h1c.67,0,.67,0,.67.64s0,1.6,0,2.4.18.82.82.79c.81,0,1.09-.32,1.09-1.13,0-.61,0-1.21,0-1.82,0-.37-.1-.64-.55-.6,0,0-.09,0-.13-.06S86.23,122.47,86.22,122.39Z"/><path class="cls-1" d="M125.12,124.38a2.2,2.2,0,1,1-4.39,0,2.12,2.12,0,0,1,2.39-2.18C124.41,122.21,125.12,123,125.12,124.38Zm-.85.51a2.68,2.68,0,0,0-.74-2.06,1.08,1.08,0,0,0-1.69.16,3.31,3.31,0,0,0,.46,3.09,1,1,0,0,0,1.72-.26A4.51,4.51,0,0,0,124.27,124.89Z"/><path class="cls-1" d="M45.83,136.05a2.12,2.12,0,0,1-2.2,2.28,2.24,2.24,0,1,1,.21-4.47C45.13,133.87,45.83,134.64,45.83,136.05Zm-.85.51a2.6,2.6,0,0,0-.8-2.12,1,1,0,0,0-1.65.28,3.06,3.06,0,0,0,.41,2.92,1,1,0,0,0,1.85-.28A4.25,4.25,0,0,0,45,136.56Z"/><path class="cls-1" d="M45.83,147.71A2.06,2.06,0,0,1,43.62,150a2,2,0,0,1-2.17-2.27c0-1.36.89-2.16,2.4-2.15C45.15,145.53,45.83,146.29,45.83,147.71Zm-3.47-.38-.12,0a11.4,11.4,0,0,0,.63,1.81,1,1,0,0,0,1.76.12,2.71,2.71,0,0,0-.45-3.22,1.06,1.06,0,0,0-1.78.71A4.55,4.55,0,0,0,42.36,147.33Z"/><path class="cls-1" d="M36.5,120.53c0,.17,0,.35,0,.52,0,1.49,0,3,0,4.46,0,.48,0,.92.67.85,0,0,.07,0,.19.16H34.82l0-.12.63-.13c0-.15,0-.32,0-.49,0-1.46,0-2.92,0-4.37,0-.81,0-.81-.73-1a4.17,4.17,0,0,1,2.46,0Z"/><path class="cls-1" d="M118.92,143.72l-.69.14v4.68c0,.93,0,.93.77,1.21a4.84,4.84,0,0,1-2.43,0s0-.08,0-.08c.59,0,.64-.32.63-.8,0-1.29,0-2.58,0-3.87,0-.56.29-1.32-.83-1.31l.11-.13h2.42Z"/><path class="cls-1" d="M137.84,126.27c-.55.68-1.05.56-1.87-.51a2.75,2.75,0,0,1-.37.53,1.23,1.23,0,0,1-1.72,0,1.17,1.17,0,0,1,.62-1.59,6.26,6.26,0,0,1,1.19-.43c.25-.07.41-.17.38-.46s0-.5,0-.73c-.06-.43-.39-.53-.76-.53s-.6.11-.59.55a.61.61,0,0,1-.19.47,1.5,1.5,0,0,1-.57.15,1.14,1.14,0,0,1,0-.52,2,2,0,0,1,2.59-.75,1.4,1.4,0,0,1,.41.91,5,5,0,0,1-.05,1.22C136.81,125.4,136.86,126.09,137.84,126.27ZM136,124.51c-.72,0-1.36.37-1.42.91a.82.82,0,0,0,.23.67.77.77,0,0,0,.7-.06C136.09,125.69,136.06,125.11,136,124.51Z"/><path class="cls-1" d="M108.5,126.33c-.5.62-1,.5-1.76-.47a1.12,1.12,0,0,1-.32.33,3.46,3.46,0,0,1-1.15.44.72.72,0,0,1-.73-1.09,3,3,0,0,1,.84-.89,1.91,1.91,0,0,1,.68-.25c.73-.22.89-.51.71-1.28a.68.68,0,0,0-.78-.53c-.36,0-.63.13-.61.58a.57.57,0,0,1-.17.44,1.9,1.9,0,0,1-.57.15c0-.18-.07-.38,0-.53a2,2,0,0,1,2.59-.74,1.13,1.13,0,0,1,.4.72,6,6,0,0,1,0,1.27C107.51,125.72,107.5,125.72,108.5,126.33Zm-1.77-1.81a1.31,1.31,0,0,0-1.38.78,1,1,0,0,0,.17.79c.22.27.53.1.78-.09C106.8,125.62,106.76,125.08,106.73,124.52Z"/><path class="cls-1" d="M111,149.64c-.48.61-.89.51-1.75-.46a1.75,1.75,0,0,1-1.34.77c-.83,0-1.2-.59-.77-1.31a2,2,0,0,1,.7-.65,2.63,2.63,0,0,1,.72-.28c.77-.23.77-.23.74-1,0-.52-.25-.78-.72-.79s-.71.16-.7.66a.52.52,0,0,1-.21.41,1.57,1.57,0,0,1-.54.08,1.32,1.32,0,0,1,0-.49,2,2,0,0,1,2.6-.77,1.12,1.12,0,0,1,.39.72,9,9,0,0,1,0,1.37C110.07,149.15,109.94,149,111,149.64Zm-1.57-1.47c-.18-.19-.27-.37-.38-.38a1.33,1.33,0,0,0-1.22.94.83.83,0,0,0,.23.68.72.72,0,0,0,.68-.07A6.45,6.45,0,0,0,109.39,148.17Z"/><path class="cls-1" d="M58.52,149.62c-.53.63-1,.51-1.79-.48-.11.13-.18.31-.32.37a3.38,3.38,0,0,1-1.15.41.68.68,0,0,1-.73-1,2.11,2.11,0,0,1,.75-.9,3.64,3.64,0,0,1,1-.38c.5-.15.66-.54.48-1.23a.72.72,0,0,0-1-.47.9.9,0,0,0-.37.42c-.08.15-.05.41-.16.49a2.09,2.09,0,0,1-.64.21c0-.18,0-.39,0-.53a2.08,2.08,0,0,1,2.57-.77,1,1,0,0,1,.44,1c0,.46,0,.91-.07,1.37C57.55,149.09,57.6,149.17,58.52,149.62Zm-1.83-1.8a1.27,1.27,0,0,0-1.38,1,.85.85,0,0,0,.23.63.8.8,0,0,0,.67,0C56.7,149.11,56.85,148.55,56.69,147.82Z"/><path class="cls-1" d="M98.22,138c-.59.6-.9.52-1.73-.4a8.72,8.72,0,0,1-1.12.67.87.87,0,0,1-1.09-.31.81.81,0,0,1,.11-1.08,4.44,4.44,0,0,1,1.36-.8c.79-.3.8-.26.74-1.09a.77.77,0,0,0-1.16-.65c-.12.07-.18.25-.24.39s0,.38-.12.45a2.44,2.44,0,0,1-.62.25c0-.19-.07-.41,0-.56a2,2,0,0,1,2.57-.72,1.07,1.07,0,0,1,.4.72,7.86,7.86,0,0,1,0,1.37C97.21,137.37,97.24,137.44,98.22,138Zm-1.61-1.49c-.18-.17-.27-.35-.39-.36A1.36,1.36,0,0,0,95,137a1,1,0,0,0,.22.76.73.73,0,0,0,.71-.09A6,6,0,0,0,96.61,136.5Z"/><path class="cls-1" d="M58.58,137.93c-.62.65-1.15.51-1.86-.5a3.47,3.47,0,0,1-.39.5,1.22,1.22,0,0,1-1.4.28.91.91,0,0,1-.43-.57,1.14,1.14,0,0,1,.69-1.23c.41-.21.86-.31,1.28-.49a.61.61,0,0,0,.3-.35,3,3,0,0,0,0-.73c0-.46-.36-.59-.76-.59s-.62.12-.61.57a.56.56,0,0,1-.51.62c-.3,0-.49-.11-.31-.39a2,2,0,0,1,.77-.83,3.52,3.52,0,0,1,1.51-.22c.58,0,.82.44.8,1.09,0,.41,0,.81-.07,1.22C57.51,137.08,57.59,137.74,58.58,137.93Zm-1.85-1.78c-.74,0-1.33.38-1.4.9a.89.89,0,0,0,.24.71.79.79,0,0,0,.69-.08C56.81,137.33,56.78,136.75,56.73,136.15Z"/><path class="cls-1" d="M79.18,138s0,0,0-.08c0-2,0-3.93,0-5.89,0-.43-.33-.45-.69-.42l0-.15,1.62-.25v.48l-.06,5.06c0,.22,0,.45,0,.68,0,.43.11.71.61.64.06,0,.13.06.18.18H78.49l0-.11Z"/><path class="cls-1" d="M71.29,149.59c-.66.65-1,.56-1.86-.43a1.61,1.61,0,0,1-1.53.78c-.59-.08-.91-.49-.67-1A2.8,2.8,0,0,1,68,148a2.08,2.08,0,0,1,.72-.28c.74-.22.93-.57.71-1.32-.11-.4-.43-.5-.8-.49s-.6.14-.58.57a.59.59,0,0,1-.15.44,2,2,0,0,1-.57.16c0-.18-.08-.38,0-.52a2,2,0,0,1,2.6-.75,1.2,1.2,0,0,1,.4.77,5.42,5.42,0,0,1,0,1.27C70.21,148.64,70.22,149.37,71.29,149.59ZM69.6,148.2c-.16-.19-.25-.39-.36-.41a1.32,1.32,0,0,0-1.22,1,.8.8,0,0,0,.24.67.71.71,0,0,0,.69-.08A6.33,6.33,0,0,0,69.6,148.2Z"/><path class="cls-1" d="M74.11,126.54H71.72c0-.06,0-.11,0-.11.71-.18.71-.18.71-1v-4.76c0-.71,0-.74-.69-1l1.63-.21v.78c0,1.72,0,3.43,0,5.15C73.37,126.25,73.37,126.25,74.11,126.54Z"/><path class="cls-1" d="M113.67,149.86h-2.42l0-.12.79-.13v-5.33c0-.86,0-.86-.83-1.21l1.73-.24c0,1.14,0,2.26,0,3.38,0,.95,0,1.9,0,2.84,0,.42.12.71.62.63,0,0,.11,0,.17.06Z"/><path class="cls-1" d="M91.34,126.53H88.79s0-.1,0-.1c.73-.19.73-.19.73-1v-4.65c0-.48.08-1-.78-.91l.09-.16,1.62-.2c0,.29,0,.55,0,.8l-.06,4.8C90.41,126.14,90.41,126.14,91.34,126.53Z"/><path class="cls-1" d="M113,138.18h-2.44l0-.14.59-.1a1.32,1.32,0,0,0,.07-.3c0-1.61,0-3.23,0-4.85,0-.45-.1-.73-.62-.67,0,0-.06-.07-.16-.18h2.46l0,.12-.69.15v2c0,.88,0,1.77,0,2.65a1.94,1.94,0,0,0,.11.91c.1.19.44.24.68.36Z"/><path class="cls-1" d="M100.86,138.19H98.49l0-.09a1.21,1.21,0,0,1,.35-.09c.37,0,.43-.15.43-.46,0-1.73,0-3.46,0-5.19,0-.71,0-.74-.71-1l1.65-.25c0,.66,0,1.29,0,1.92,0,1.19-.08,2.38-.07,3.57C100.11,137.25,99.8,138.06,100.86,138.19Z"/><path class="cls-1" d="M108.8,119.71l1.65-.18v3.14c0,1,0,2,0,3,0,.43,0,.44.89.84h-2.58c.1-.09.15-.15.18-.15.57.06.66-.23.65-.73,0-1.63,0-3.26,0-4.89C109.53,120,109.51,120,108.8,119.71Z"/><path class="cls-1" d="M91.3,143.05l1.62-.22c0,.19,0,.37,0,.55,0,1.7,0,3.41,0,5.11,0,.21,0,.42,0,.63s.09.62.53.56c.08,0,.17,0,.23.17H91.25v-.09c.06,0,.14-.09.2-.08.59.1.62-.24.61-.69,0-1.68,0-3.37,0-5.05,0-.44-.05-.79-.63-.73,0,0,0,0-.06-.06S91.31,143.12,91.3,143.05Z"/><path class="cls-1" d="M127.08,138.1c.57-.53,1.16-1,1.71-1.59a15.17,15.17,0,0,0,1.56-1.79,7.64,7.64,0,0,0-3,.09c-.05-.75.06-.86.72-.86h3.36a19.9,19.9,0,0,1-3.25,3.6h3.24c-.1.69-.1.69-.79.69h-3l-.47,0Z"/><path class="cls-1" d="M128.22,147l-.26-.52a1.13,1.13,0,0,0-1.39-.6.87.87,0,0,0-.54.52.83.83,0,0,0,.37.66,6.75,6.75,0,0,0,1.18.47c.77.28,1.07.68,1,1.31a1.27,1.27,0,0,1-1.26,1.14,2.85,2.85,0,0,1-1,0c-1.13-.26-1.17-.32-1-1.56.06.14.13.29.19.44a1.3,1.3,0,0,0,1.81.83,1,1,0,0,0,.52-.67c0-.13-.24-.42-.43-.52-.45-.23-1-.35-1.4-.58a1.16,1.16,0,0,1-.73-1.35,1.17,1.17,0,0,1,1.11-.94,3.82,3.82,0,0,1,1.17.05C128.35,145.76,128.49,146.06,128.22,147Z"/><path class="cls-1" d="M152.25,146.94c-.92.15-1.78.32-2.64.4-.43,0-.48.2-.44.55.23,1.74,1.64,1.82,2.68,1.39l.33-.16a2.42,2.42,0,0,1-2.59.77,2.06,2.06,0,0,1-1.28-2.28,2,2,0,0,1,1.48-2A2.29,2.29,0,0,1,152.25,146.94Zm-1.09-.06c-.19-.69-.74-1.14-1.2-1.07s-.75.62-.68,1.39Z"/><path class="cls-1" d="M107.09,135.22l-.24-.44a1.13,1.13,0,0,0-1.35-.6c-.31.07-.63.2-.58.54a1,1,0,0,0,.44.68,14.13,14.13,0,0,0,1.45.58,1,1,0,0,1,.68,1,1.17,1.17,0,0,1-.72,1.13,1.74,1.74,0,0,1-.66.17,5,5,0,0,1-1.16-.11c-.82-.19-1-.62-.7-1.55l.2.47a1.31,1.31,0,0,0,1.81.84,1.11,1.11,0,0,0,.52-.67c0-.13-.24-.43-.43-.53-.48-.24-1-.38-1.48-.62a1.1,1.1,0,0,1-.64-1.3,1.07,1.07,0,0,1,1-.91,3.76,3.76,0,0,1,1.11,0C107.18,134,107.32,134.26,107.09,135.22Z"/><path class="cls-1" d="M46.44,123.57c-.1-.16-.16-.25-.21-.35a1.07,1.07,0,0,0-1.35-.68c-.23,0-.57.3-.6.49a.87.87,0,0,0,.38.7,9.4,9.4,0,0,0,1.31.52,1.1,1.1,0,0,1,.84,1,1.22,1.22,0,0,1-1.13,1.35,5,5,0,0,1-1.5-.11c-.75-.18-.93-.67-.58-1.55.08.21.13.36.18.5a1.32,1.32,0,0,0,1.77.87c.34-.09.63-.32.58-.67a1,1,0,0,0-.48-.57c-.48-.24-1-.39-1.49-.62a1.11,1.11,0,0,1-.61-1.23,1,1,0,0,1,.92-1,4.38,4.38,0,0,1,1.4,0C46.56,122.43,46.7,122.77,46.44,123.57Z"/><path class="cls-1" d="M136,135.29c-.91.14-1.75.31-2.61.38-.47,0-.54.21-.47.6a1.76,1.76,0,0,0,2.72,1.34l.3-.15a2.48,2.48,0,0,1-2.69.75,2.08,2.08,0,0,1-1.19-2.3,2,2,0,0,1,1.48-2A2.29,2.29,0,0,1,136,135.29Zm-1.08-.06c-.23-.75-.77-1.15-1.27-1s-.71.65-.6,1.35Z"/><path class="cls-1" d="M126.8,135.29c-.89.13-1.74.3-2.61.38-.42,0-.52.16-.47.56a1.74,1.74,0,0,0,2.62,1.42l.38-.19a2.39,2.39,0,0,1-2.48.8,2,2,0,0,1-1.42-2.1,2.17,2.17,0,0,1,1.45-2.2A2.32,2.32,0,0,1,126.8,135.29Zm-1.09-.06c-.22-.74-.77-1.15-1.27-1s-.72.68-.61,1.35Z"/><path class="cls-1" d="M57,125.93a1.89,1.89,0,0,1-2.42.44,1.19,1.19,0,0,1-.3-.74c0-.68,0-1.37,0-2.06,0-.47.14-1-.63-1.09.11-.12.14-.18.19-.21l1.25-.91v.91l1.62.13c0,.39,0,.39-.6.36l-1-.05v2.22c0,1.19.32,1.43,1.49,1.09Z"/><path class="cls-1" d="M144.38,145.77l1.47-1.07c0,.14.09.23.07.31-.11.52.13.67.61.63.32,0,.64,0,1,0l.08.19c-.13.09-.25.22-.38.24a2.74,2.74,0,0,1-.64,0c-.67,0-.67-.06-.67.59s0,1.34,0,2,.19.79.81.77c.35,0,.69-.11,1.07-.17a2,2,0,0,1-2.28.5,1.32,1.32,0,0,1-.43-.85c0-.7,0-1.41,0-2.11C145.1,146.35,145.11,145.9,144.38,145.77Z"/><path class="cls-1" d="M92.78,138.22H90.34l0-.13.6-.15c0-1.13,0-2.29,0-3.44,0-.1-.18-.23-.3-.29a1.06,1.06,0,0,0-.37-.07V134l1.58-.11.06.59.34-.2c.15-.09.31-.26.46-.25a1.5,1.5,0,0,1,.92.2c.15.15,0,.57-.07.93a1.1,1.1,0,0,0-1.34-.44.62.62,0,0,0-.33.4c0,.76,0,1.53,0,2.3,0,.47.17.69.66.65a1.25,1.25,0,0,1,.32,0Z"/><path class="cls-1" d="M100.53,122.32l1.58-.11.06.6.33-.2c.18-.1.37-.29.56-.29s.68,0,.82.23,0,.57,0,.78a9.67,9.67,0,0,0-1.31-.31c-.29,0-.47.16-.46.5,0,.73,0,1.47,0,2.2,0,.52.2.71.69.67a.33.33,0,0,1,.3.17h-2.44l0-.1a.79.79,0,0,0,.27-.1c.12-.09.3-.21.3-.33,0-1,0-2,0-3,0-.31-.11-.5-.46-.47-.08,0-.16,0-.24-.08Z"/><path class="cls-1" d="M84.53,137.58a2,2,0,0,1-2.43.45,1.14,1.14,0,0,1-.3-.73c0-.67,0-1.34,0-2,0-.48.13-1-.65-1.2l1.42-1c0,.11.1.18.08.24-.12.54.11.73.64.7a6.65,6.65,0,0,1,1,.07c0,.57-.43.32-.69.34s-.58,0-1,0v2.32c0,1,.32,1.22,1.27,1Z"/><path class="cls-1" d="M97.32,149.26a2.21,2.21,0,0,1-2.27.56.94.94,0,0,1-.5-.89c0-.71,0-1.43,0-2.15s0-.67-.62-1.08l1.41-1a.94.94,0,0,1,.06.3c0,.66,0,.66.68.67l.68,0a2.35,2.35,0,0,1,.36.07c-.2.16-.3.32-.42.33a4.05,4.05,0,0,1-.92,0c-.31,0-.47,0-.46.37,0,.74,0,1.47,0,2.2s.26.9,1,.84C96.66,149.41,97,149.32,97.32,149.26Z"/><path class="cls-1" d="M91.47,122.42,93,121.34v.93l1.62.14c0,.54-.39.33-.64.34a9.59,9.59,0,0,1-1,0V124c0,.47,0,.94,0,1.42s.18.68.72.69a2.92,2.92,0,0,0,.59,0,4.24,4.24,0,0,0,.6-.18c0,.13,0,.21-.09.23a2.58,2.58,0,0,1-1.8.49.9.9,0,0,1-.86-1c0-.62,0-1.24,0-1.86S92.23,122.65,91.47,122.42Z"/><path class="cls-1" d="M135.42,145.74l1.43-1c.05.08.09.12.09.16,0,.76,0,.76.79.77l.77,0,.09.13c-.11.09-.22.25-.34.26a3.71,3.71,0,0,1-.88,0c-.33-.06-.49,0-.48.39,0,.75,0,1.5,0,2.25,0,.58.19.75.78.76a3.83,3.83,0,0,0,.58-.07c.17,0,.33-.08.54-.13a2,2,0,0,1-2.39.47,1.33,1.33,0,0,1-.35-.81c0-.63,0-1.27,0-1.91S136.21,146,135.42,145.74Z"/><path class="cls-1" d="M48.69,122.27l1.6.13.08.1a2.24,2.24,0,0,1-.34.27.72.72,0,0,1-.29,0c-1.07-.05-1.07-.05-1.07,1v1.47c0,.71.17.87.88.84a9.8,9.8,0,0,0,1.06-.16c-.08.11-.12.21-.18.23a6.77,6.77,0,0,1-1.43.45,1,1,0,0,1-1.16-1.09c0-.62,0-1.24,0-1.86s.12-1.05-.66-1.25l1.48-1.08Z"/><path class="cls-1" d="M136.22,134.09l1.42-1c.06.06.09.08.09.11,0,.79,0,.78,1,.87a2.36,2.36,0,0,1,.57.18,2.72,2.72,0,0,1-.61.2c-.32,0-.64,0-1,0,0,1,0,1.92,0,2.88,0,.34.28.48.58.47s.83-.09,1.29-.14c-.06.08-.09.19-.16.21a7.09,7.09,0,0,1-1.52.44c-.73.05-1.1-.41-1.08-1.15,0-.57,0-1.14,0-1.71S137.06,134.3,136.22,134.09Z"/><path class="cls-1" d="M120.44,133c.08.92.08.92.91,1a3.15,3.15,0,0,1,.44,0,1.47,1.47,0,0,1,.28.18c-.11.08-.21.2-.31.21-.42,0-.85,0-1.29,0,0,.95,0,1.92,0,2.89,0,.34.29.46.59.45s.82-.09,1.23-.13a2,2,0,0,1-2.35.42,1.3,1.3,0,0,1-.35-.81c0-.66,0-1.33,0-2,0-.47.08-1-.7-1.14Z"/><path class="cls-1" d="M105.55,149.86h-2.46l0-.14.59-.09c0-.17,0-.36,0-.55,0-.77,0-1.53,0-2.3s0-.74-.69-1.15l1.54-.1.08.57.29-.14a2.69,2.69,0,0,1,.46-.28c.35-.14.77-.2,1,.16a1.45,1.45,0,0,1-.06.93c-.41-.4-.81-.64-1.32-.42a.68.68,0,0,0-.36.47c0,.74,0,1.47,0,2.21,0,.45.13.72.64.66a1.51,1.51,0,0,1,.35.06Z"/><path class="cls-1" d="M64.14,122.76c0,1,0,1.87,0,2.79a.51.51,0,0,0,.59.56c.42,0,.83-.09,1.26-.13,0,0,0,.08,0,.1a2.36,2.36,0,0,1-2,.51.84.84,0,0,1-.73-.91c0-.7,0-1.4,0-2.1,0-.48.09-1-.71-1.12l1.52-1.11v.92l1.64.13c0,.57-.4.33-.66.35S64.5,122.76,64.14,122.76Z"/><path class="cls-1" d="M128.92,145.77l1.51-1.1a1.45,1.45,0,0,1,.07.25c0,.71,0,.71.67.72l.87,0,.08.15c-.11.08-.22.23-.34.24a3.25,3.25,0,0,1-.88,0c-.33-.05-.49,0-.48.4,0,.72,0,1.44,0,2.16s.25.91.94.85a9.1,9.1,0,0,0,1-.18,2,2,0,0,1-2.28.52,1.45,1.45,0,0,1-.43-.86,18.39,18.39,0,0,1,0-2.1C129.66,146.35,129.67,145.9,128.92,145.77Z"/><path class="cls-1" d="M66.61,149.85H64.33l0-.12.7-.12V148c0-.5,0-1,0-1.51s0-.67-.53-.6c-.07,0-.15-.06-.23-.1v-.15l1.62-.09v2.38c0,.4,0,.81,0,1.22s.1.61.54.55c.06,0,.13,0,.2.07Z"/><path class="cls-1" d="M132.82,149.72l.68-.09c0-1.16,0-2.29,0-3.43,0-.11-.19-.24-.32-.31s-.24,0-.36-.13c.49-.31,1-.12,1.58-.25v1.75c0,.62,0,1.24,0,1.86,0,.38.12.63.57.56.06,0,.13,0,.18.17h-2.31Z"/><path class="cls-1" d="M103.58,138.2h-2.3a1.32,1.32,0,0,0,0-.13c.73,0,.69-.44.68-.95,0-.75,0-1.5,0-2.26,0-.39,0-.73-.58-.67,0,0-.12-.07-.16-.21l1.68-.11c0,.5-.07.94-.08,1.39,0,.69,0,1.38,0,2.06,0,.41.05.77.61.7,0,0,.1.06.15.09Z"/><path class="cls-1" d="M53.33,126.54H51.1c.83-.06.64-.67.65-1.15,0-.72,0-1.44,0-2.16,0-.42-.06-.76-.61-.7,0,0-.1,0-.15-.08v-.14l1.61-.09v2c0,.42,0,.85,0,1.27s0,1,.86.89Z"/><path class="cls-1" d="M136.83,121.66a7.31,7.31,0,0,1-.84-.42.62.62,0,0,0-.8,0,2.3,2.3,0,0,1-.8.34c.32-.38.52-.88,1.08-1,.77-.12,1,.53,1.42.93Z"/><path class="cls-1" d="M134.16,143.6c.06.07.22.19.25.34s-.34.69-.65.65a.52.52,0,0,1-.37-.32C133.33,144,133.7,143.61,134.16,143.6Z"/><path class="cls-1" d="M65.92,143.83c0,.43-.38.81-.68.76a.5.5,0,0,1-.34-.34.63.63,0,0,1,.65-.63C65.7,143.63,65.84,143.78,65.92,143.83Z"/><path class="cls-1" d="M102.07,132.94a1,1,0,0,1-.21-.36.64.64,0,0,1,.68-.61.49.49,0,0,1,.32.32C102.91,132.6,102.53,133,102.07,132.94Z"/><path class="cls-1" d="M97.19,132.48l-1.93.94A1.66,1.66,0,0,1,97.19,132.48Z"/><path class="cls-1" d="M126.07,132.45l-2,1-.08-.16C124.6,132.87,125,132.15,126.07,132.45Z"/><path class="cls-1" d="M57.54,132.46l-2,1A1.77,1.77,0,0,1,57.54,132.46Z"/></svg>