<svg id="Layer_1" data-name="Layer 1" xmlns="http://www.w3.org/2000/svg" viewBox="0 0 178.5 174"><defs><style>.cls-1{fill:#010101;}</style></defs><g id="aCVeZf"><path class="cls-1" d="M90.6,29.58c.91.14,1.83.25,2.73.44a18.23,18.23,0,0,1,13.93,14.49,17.8,17.8,0,0,1-5.15,16.32A17.45,17.45,0,0,1,91.18,66a18.24,18.24,0,0,1-18.24-10.1,18,18,0,0,1-1.88-8A18.25,18.25,0,0,1,85.81,29.92c.71-.14,1.43-.23,2.14-.34Zm.57,32a13.83,13.83,0,0,0,12-13.37H97.09A18.3,18.3,0,0,1,91.17,61.62ZM75.37,48.23a13.78,13.78,0,0,0,3.9,9.26,13.43,13.43,0,0,0,8,4.11,18.47,18.47,0,0,1-5.85-13.37ZM91.32,34.06a18.27,18.27,0,0,1,5.77,13.19h6.12A13.82,13.82,0,0,0,91.32,34.06ZM81.46,47.25a18.52,18.52,0,0,1,5.67-13.16,13.61,13.61,0,0,0-8.42,4.71,13.75,13.75,0,0,0-3.33,8.45Zm8.26,14.33a16.58,16.58,0,0,0,5.37-7.5,18.1,18.1,0,0,0,1-5.84H89.72ZM96.1,47.25c.59-3.82-3.31-11.89-6.37-13.19V47.25ZM88.73,61.46V48.24H82.44C82,52.47,85.15,59.06,88.73,61.46Zm0-27.43A16.39,16.39,0,0,0,84,40.12a17.86,17.86,0,0,0-1.59,7.13h6.33Z"/><path class="cls-1" d="M66.54,80.18v.53q0,8.72,0,17.43a.81.81,0,0,1-.49.83c-2.37,1.33-4.72,2.69-7.07,4a.63.63,0,0,1-.73,0q-3.67-2.09-7.37-4.13a.61.61,0,0,1-.38-.63q0-21.88,0-43.79v-.42l2,1,28.9,15.17c2.51,1.32,5,2.63,7.52,4a.64.64,0,0,0,.7,0l28.26-14.84,9.75-5.11.37-.17v.72q0,21.66,0,43.32a.85.85,0,0,1-.51.86c-2.43,1.34-4.85,2.7-7.26,4.06a.6.6,0,0,1-.69,0c-2.41-1.39-4.81-2.77-7.23-4.14a.63.63,0,0,1-.35-.64c0-5.83,0-11.67,0-17.51V80.2l-.41.2q-7,4-13.91,7.92a.63.63,0,0,0-.36.64q0,13.44,0,26.87a.65.65,0,0,1-.39.66c-2.4,1.36-4.8,2.72-7.19,4.11a.8.8,0,0,1-.93,0c-2.39-1.39-4.78-2.75-7.19-4.11a.61.61,0,0,1-.36-.63q0-13.36,0-26.74a.85.85,0,0,0-.49-.87Q73.87,84.36,67,80.43Z"/><path class="cls-1" d="M59.4,139.2c.2-.61.36-1.16.57-1.68,1.42-3.49,2.86-7,4.29-10.45,0-.12.21-.28.31-.28.88,0,1.76,0,2.69,0l1.09,15.13H66.09l-.75-13.06c-.29.79-.54,1.56-.84,2.3-1.41,3.46-2.84,6.92-4.26,10.38-.1.24-.22.36-.5.33-.45,0-1,.12-1.33-.09s-.37-.77-.53-1.18q-1.87-4.92-3.74-9.84c-.22-.59-.38-1.21-.59-1.88l-.83,13H50.54c0-.46.07-.92.1-1.38q.34-4.17.67-8.34c.14-1.71.28-3.41.41-5.11,0-.25.13-.31.35-.31.77,0,1.54,0,2.3,0a.61.61,0,0,1,.4.34c1.57,4,3.34,7.82,4.55,11.9C59.33,139.06,59.35,139.08,59.4,139.2Z"/><path class="cls-1" d="M84.57,126.78c.78,0,1.55,0,2.31,0a.44.44,0,0,1,.27.17c2.66,3.78,5.59,7.37,8,11.34.19.32.36.64.51.91l-.15-12.36.3,0H97.6v15.14H95.45c-.08,0-.17-.1-.22-.17-2.71-3.87-5.67-7.57-8.12-11.62l-.52-.9v12.68h-2Z"/><path class="cls-1" d="M127.59,141.94c-.77,0-1.5,0-2.22,0-.11,0-.26-.19-.31-.32-.54-1.36-1.08-2.72-1.6-4.09a.46.46,0,0,0-.51-.37q-2.72,0-5.43,0a.48.48,0,0,0-.52.37c-.49,1.35-1,2.69-1.5,4a.51.51,0,0,1-.59.39c-.61,0-1.22,0-1.9,0l.15-.42q2.81-7.19,5.61-14.37a.49.49,0,0,1,.55-.38c.67,0,1.34,0,2,0a.42.42,0,0,1,.45.29l5.73,14.65Zm-7.38-13.22-2.54,6.91h5.12Z"/><path class="cls-1" d="M74.09,134.83v5.47H81.6v1.61H71.84V126.83h9.37v1.57H74.13v4.81h6.68v1.62Z"/><path class="cls-1" d="M110.52,127.29l-.61,1.57a7.5,7.5,0,0,0-3.85-.68,3.2,3.2,0,0,0-2.19.92,1.88,1.88,0,0,0,0,2.69,8.09,8.09,0,0,0,1.91,1.17c.93.43,1.92.72,2.84,1.14a4.45,4.45,0,0,1,2.21,1.94,3.94,3.94,0,0,1-1.37,5.05,6.64,6.64,0,0,1-3.17,1,11.12,11.12,0,0,1-5-.62l-.39-.17-.25-.14.55-1.53c.9.27,1.74.57,2.61.75a6,6,0,0,0,3.45-.21,2.35,2.35,0,0,0,1.47-3.17,2.38,2.38,0,0,0-1.19-1.23c-.69-.34-1.42-.59-2.11-.9a22.88,22.88,0,0,1-2.69-1.28,3.55,3.55,0,0,1,.27-6.25,6.91,6.91,0,0,1,3.27-.86,9.47,9.47,0,0,1,3.73.53l.32.12Z"/></g></svg>