<?xml version="1.0" encoding="UTF-8"?>
<svg id="Layer_1" xmlns="http://www.w3.org/2000/svg" version="1.1" viewBox="0 0 178.5 174">
  <!-- Generator: Adobe Illustrator 29.0.0, SVG Export Plug-In . SVG Version: 2.1.0 Build 186)  -->
  <defs>
    <style>
      .st0 {
        fill: #fdcb04;
      }

      .st1 {
        fill: #222;
      }
    </style>
  </defs>
  <path class="st1" d="M47.3,45.5c.6,0,2.1.2,2.7.3,6.2,1.2,7.3,10.1,1,12.1.7.6,1.5.6,2.2,1.1,3.8,2.6,2.7,9.8-1.6,11.2s-2.4.6-2.7.6h-9.9v-25.4c2.7.1,5.6-.2,8.2,0ZM45.2,56.1c2.4.3,4.6-1.2,3.4-3.8s-3.4-1.5-3.4-.8v4.6ZM45.5,65.3c5,.8,4.8-5.2,0-4.7v4.7Z"/>
  <path class="st1" d="M85.7,45.5c16.2-2.2,13.1,32.4-2.7,24.4-7.3-3.7-7.3-23,2.7-24.4ZM86.8,51.4c-3.3.5-3,8.7-2.3,11.1s4.3,3.4,5.4,0,1.1-11.9-3.1-11.2Z"/>
  <path class="st1" d="M132.2,108.3c.3.4.8.5,1.3.5,5,.6,10.8.7,15.6,1.4s3.4,1.6,4.9,1.9l-1.1.6c.8,1.4,2.5,1.1,3.6,1.5s2.5,1.3,3.9,1.5c0,.5-1,.3-1.3.3-4.1-.6-9.1-3.6-13.5-4.4s-5.2-.7-7.5-.9-1.7-.2-1.8.3c1.1,0,2.3.6,3.3,1,3.5,1.4,7.4,3.2,10.7,4.9s3.7,1.8,4.3,2.3.3.5.4.8c-.5.4-5.5-2.2-6.4-2.6-6.1-2.5-13.5-5.4-19.8-7.3-7.9-2.4-17.2-1.6-23.9-6.4s-20.5-.9-24.1-1.2-2.4-.1-1.6-1.7c5.4.1,10.8.1,16.2.3s7.5.9,10.3.2c7.2-1.7,14.1-1.1,21.5-.2,11.7,1.4,25.1,5,35.8,9.4s5.1,1.9,6.5,3,.8.2.2.6c-4.4-1.4-9.7-4.6-14.3-5s-1-.2-1,.3c3.2.9,6.8,2.3,9.5,4.2-.7,0-1.3,0-2-.1-2.2-.5-8.5-2.7-10.6-3.7s-1.9-1.3-3-1.8c-9.8-4.5-28.4-7.4-39.1-6.2-.2,0-1.9.3-1.3.8s6.9.7,8,1.4h2.9c.7.4.7.6-.1.9-2.7-.4-5.5-1.1-8.3-1.1s-1.8-.2-2,.3c.9.2,1.9.3,2.8.6s1.7.4,2.5.6c5.4,1.3,10.5,2.3,15.9,2.8s1.5.2,2.2.3ZM95.5,101.6h-7.8l5.7.6c.6-.2,2.3.5,2.1-.6ZM104.8,102.2l-4.2-.3c-.1.8.2.5.7.6.8,0,1.7.2,2.5.3s1.1.2,1-.6Z"/>
  <path class="st1" d="M76.3,52.7c-.5.6-2.2-3-4.4-1.7s3,5.6,4.1,7.1c2.6,3.7,2.1,10.4-2.6,12.2s-6.1.8-8.9-.3v-7.5c1.4,1.2,3.9,3.5,5.7,2,2.7-2.2-2.7-4.9-3.9-6.2-4.3-4.5-1.7-12.5,4.8-12.8s5.1.5,5.1,1.5v5.7Z"/>
  <path class="st1" d="M33.8,45.5v25.3s-.4.4-.4.4H8.5s-.4-.4-.4-.4v-25.3h25.7ZM18.3,46.1c-10.9,1.5-13.4,17.7-3.8,22.9s23.4-5.9,17-17.3c-2.7-4.7-8.1-6.3-13.3-5.6Z"/>
  <rect class="st1" x="56.7" y="45.7" width="6.1" height="25.1"/>
  <path class="st1" d="M116.2,87.9v-9.5h3.1v16.8h-3s-5.4-9.8-5.4-9.8v9.4c0,.6-3.4.6-3.4,0v-16.3c.9.1,2.8-.3,3.5.3l5.2,9.2Z"/>
  <path class="st1" d="M38.8,88.2v-9.8c0-.2,3.1-.6,3.1.1v16.6c-1-.1-2.6.4-3.4-.4l-5.3-9.6v10.1h-3.1v-16.6c0-.6,2.9-.7,3.2.1,1.9,3.1,3.3,6.6,5.4,9.5Z"/>
  <polygon class="st1" points="96.9 78.4 96.9 84.8 101.4 84.8 101.4 78.4 104.5 78.4 104.5 95.2 101.4 95.2 101.4 88.2 96.9 88.2 96.9 95.2 93.9 95.2 93.9 78.4 96.9 78.4"/>
  <path class="st1" d="M24.1,78.4c3.2.7,3.7,8.8.1,9.9.4.9,3.8,6.4,3.4,6.8h-3.6s-2.8-6.1-2.8-6.1v6.1h-3.1v-16.8c1.7.3,4.4-.3,6,0ZM21.2,81.8v4.2c3.2.2,3.3-4.7,0-4.2Z"/>
  <path class="st1" d="M133,78.4v6.4c1.2-.8,2.8-5.8,3.6-6.3s2.7,0,3.6-.1c.4.4-4.3,6.8-4.2,7.9.1,1.7,4.2,6.7,4.8,8.7,0,.2-3.5.3-3.9,0-.8-.5-2.7-6-3.9-6.8v7h-3.1v-16.8h3.1Z"/>
  <path class="st0" d="M119,104.1c-1.3-.8-4.6-.7-6.3-1.1s-.9,0-1-.6c10.6,0,21.3.9,31.4,4.3,1.9.6,4.3,1.4,5.8,2.7-3,0-6.1-.6-9.1-.8s-5.2,0-7.7-.3c-.7,0-1.5-.2-2.2-.3l-15.9-2.8c-.8-.2-1.7-.4-2.5-.6.2-.7-.4-.5-.8-.8,2.7,0,5.5.7,8.3,1.1.9-.3.8-.4.1-.8Z"/>
  <path class="st1" d="M14.6,78.1c.8.2.3,3.2.4,3.9h-3.6s0,2.6,0,2.6l3.4.2v3.6h-3.4s0,2.6,0,2.6c0,.5,3.1-.2,3.5.4s.3,3.6-.3,3.6h-6.6v-16.6s.4-.4.4-.4c1.3,0,5.3-.3,6.1,0Z"/>
  <path class="st1" d="M80.2,78.4v3.6s-3.6,0-3.6,0v2.8s3.4,0,3.4,0v3.6l-3.4.2v2.6c.8.1,3.1-.3,3.5.3s.3,3.6-.3,3.6h-6.1s-.4-.4-.4-.4v-16.3h7Z"/>
  <path class="st1" d="M91.3,83.7c-.8.2-.6-.6-1.1-1-3.8-2.8-6.5,4.6-3.5,7.7s3.2.5,4.6-.8v5.3c-10.8,4.5-12.1-16.4-3.2-17s3.2.4,3.2,1v4.9Z"/>
  <polygon class="st1" points="61.2 78.4 61.2 82.1 57.5 82.1 57.5 84.7 60.9 85 60.9 88.5 57.5 88.5 57.5 91.3 61.2 91.3 61.2 95.2 54.5 95.2 54.5 78.4 61.2 78.4"/>
  <path class="st1" d="M52.5,78.4c0,.6.1,3.5,0,3.6s-2.1,0-2.5,0v13.1h-3.1v-13.1c-.4,0-2.4.1-2.5,0s0-3.1,0-3.6h8.1Z"/>
  <path class="st1" d="M71.2,78.4c0,.6.1,3.5,0,3.6s-2.1,0-2.5,0v13.1h-3.1v-13.1c-.4,0-2.4.1-2.5,0s0-3.1,0-3.6h8.1Z"/>
  <rect class="st1" x="122.9" y="78.4" width="3.1" height="16.8"/>
  <path class="st1" d="M81,124.5c.9-.2,1.8.2,2.7.2s1-.4,1.6-.2c1.1.3.7,3,.7,3.9h-.8c-.1-1.2.6-3.3-1.1-3.1-.1,1.2.6,3.3-1.1,3.1-.2-.8.6-3.6-.7-3.1s-.3,2.3-.4,3.1h-.8v-3.9Z"/>
  <path class="st1" d="M91.9,128.4h-.8c0-.5.2-3-.1-3.1-1.8-.2-.6,3-1.1,3.1s-.7.2-.7-.4c0-1.1.5-2.9-1.1-2.7-.2.2.5,3.3-.7,3.1s-.6-3.3-.3-3.6c.5-.7,1.9,0,2.6,0s1.3-.6,2,0,.3,2.7.4,3.7Z"/>
  <path class="st1" d="M126.6,123.4c-.6-.3-2.8-.4-2.5.7s4,1,2.5,3.6c-.8,1.4-3.7.9-3.3-.9.8-.1.5.8,1.3.9s1.5,0,1.6-.7c.1-1.7-2.8-1.2-2.7-3,0-2.7,4.1-1.2,3.3-.5Z"/>
  <path class="st1" d="M160.9,124.5v3.9c-2.1.5-5.1-.6-3.5-3.1s2-.4,3.5-.9ZM158.2,127.5c1.6,1.6,3.1-2.5.6-2.2s-1.3,1.5-.6,2.2Z"/>
  <path class="st1" d="M105.6,126.7h-2.8c0,1.8,2.4.1,2.5.3.1,1.9-2.7,1.9-3.2.3-1-3.3,3.7-4,3.5-.6ZM104.8,126.2c0-1.1-1.4-1.1-2-.4l2,.4Z"/>
  <path class="st1" d="M115.9,126.7h-2.8c-.1.5.6,1,1,1.1.6,0,.8-.9,1.5-.8.1,1.9-2.7,1.9-3.2.3-1-3.3,3.7-4,3.5-.6ZM115.1,126.2c0-1.1-1.4-1.1-2-.4l2,.4Z"/>
  <path class="st1" d="M96.4,126.7h-2.8c-.1.6.6,1,1,1,.8,0,1.1-1.2,1.5-.8.9,1-2.5,2.6-3.2.3-1-3.3,3.7-4,3.5-.6ZM95.5,126.2c0-1.1-1.4-1.1-2-.4l2,.4Z"/>
  <path class="st1" d="M141.1,123.4c-.3,1,.3,1.6,1.1,1s.3-1.6.8-1-.1.7,0,1.1.6.2.8.5c.4.6-.8.2-.9.6-.2.7.2,2.1,0,2.9-.3.4-.5,0-.6-.4-.1-1.1.6-2.6-1-2.7-.7,0-.4.2-.4.7s.2,3.4-.6,2.4c0-.8,0-1.6,0-2.4s-.8-.5,0-2.2-.2-.6.6-.4Z"/>
  <path class="st1" d="M108.4,124.5c3.6-.5,3.2,1,3.1,3.9h-.8c0-.8,0-1.6,0-2.4s.2-.7-.4-.7c-1.6,0-.8,2-1,3.1h-.8v-3.9Z"/>
  <path class="st1" d="M151.6,124.5c3.2-.7,3.2,5-.5,3.7-1.7-.6-1.4-3.3.5-3.7ZM151.3,125.4c-.8.3-.7,1.8.2,2.3,2.1,1,2.6-3.2-.2-2.3Z"/>
  <path class="st1" d="M116.8,124.5c.8.4,1.8-.2,2.6.3s.4,2.8.5,3.7h-.8c-.1-1.4.7-3.4-1.4-3.1-.3.3.6,3.2-.8,3.1v-3.9Z"/>
  <path class="st1" d="M131.6,122c.8-1.1.5,2.7.6,2.8,2.9-1.1,2.2,1.7,2.2,3.6-1.2.1-.2-2.1-.7-2.8s-1.3-.4-1.5.5.3,2.5-.6,2.3v-6.4Z"/>
  <path class="st1" d="M162.6,124.5c-.5,4.4,2.1,4.4,1.7,0,1.6,0,.8,3.5-.2,3.9-2.3.7-2.2-1.8-2-3.4s.2-.9.6-.4Z"/>
  <path class="st1" d="M167.9,125.6c0,0-2-.6-1.1.3s1.2.2,1.6.8c.9,1.7-2.5,2.6-2.7.6,4.4.7.7-.6.4-1.1-.9-1.4,2-2.7,1.8-.6Z"/>
  <path class="st1" d="M130.5,125.6c0,.1-2.3-1.3-2.3,1s2.4.6,2.5.7c1,1-4.1,2.4-3.3-1.2s4-1.7,3.1-.4Z"/>
  <path class="st1" d="M147.8,126.7c.6,0,1-3.1,2-2.2s-1.3,3.9-1.5,3.9c-.6,0-2.3-3.8-2.1-3.9.8-.7,1.6,1.8,1.7,2.2Z"/>
  <path class="st1" d="M137.7,124.5c.1.9-1,.6-1.2,1.2s-.1,1.9-.2,2.7h-.8c.2-2.2-1-4.5,2.2-3.9Z"/>
  <path class="st1" d="M154.8,124.5h2c.4,1.4-.9.6-1.1.8s0,2.6,0,3.1h-.8v-3.9Z"/>
  <rect class="st1" x="169.6" y="122.5" width=".8" height="4.7"/>
  <rect class="st1" x="106.4" y="124.5" width=".8" height="3.9"/>
  <path class="st1" d="M79,124.5c1.5.2.6,2.8.8,3.9h-.8v-3.9Z"/>
  <path class="st1" d="M97.2,124.5c1-1.3.6,3.2.6,3.5,0,.5.1.5-.6.4v-3.9Z"/>
  <rect class="st1" x="138.6" y="124.5" width=".6" height="3.9"/>
  <polygon class="st0" points="20.8 46.3 32.9 58.2 21 70 8.9 58.2 20.8 46.3"/>
</svg>