<svg id="Layer_1" data-name="Layer 1" xmlns="http://www.w3.org/2000/svg" viewBox="0 0 178.5 174"><defs><style>.cls-1{fill:#010101;}</style></defs><path id="Path_4671" data-name="Path 4671" class="cls-1" d="M67.31,60c-.88,4-1.67,7.56-2.47,11.23q-4.53,20.76-9,41.54c-.23,1.2-.71,1.56-1.9,1.56-3.27-.08-6.53,0-9.79,0-.56,0-1-.08-1.75-.08,1-4.3,1.82-8.36,2.78-12.45,3-13.22,6-26.5,8.91-39.71.32-1.56.88-2.16,2.56-2.08C60.15,60.08,63.57,60,67.31,60Z"/><path id="Path_4672" data-name="Path 4672" class="cls-1" d="M92.3,93.36q3.49-16.73,7-33.45a5.29,5.29,0,0,1,1.11-.15h15.93c4.66,0,7.56,2.46,8.43,6.92A8.31,8.31,0,0,1,120.55,75a11.71,11.71,0,0,1-1.59.78c3.11,1.2,3.82,3.67,3.74,6.37a10.58,10.58,0,0,1-4.54,8.84,11.56,11.56,0,0,1-6.69,2.33c-6.12.08-12.18.08-18.31.08A1.67,1.67,0,0,1,92.3,93.36Zm8.91-6.61c2.15,0,4.14.07,6.23,0a26.58,26.58,0,0,0,4.45-.4A3.79,3.79,0,0,0,115.24,83c.24-2.33-1.28-4.06-4-4.21-2.47-.16-5-.08-7.49-.08a1.3,1.3,0,0,0-1,.9C102.1,81.94,101.69,84.27,101.21,86.75Zm3-13.85c3.18,0,6.22.08,9.23-.08a5.09,5.09,0,0,0,2.71-1.19c1.28-1,1.36-2.46,1-4a2.66,2.66,0,0,0-2.71-1.91c-2.54-.07-5.09-.15-7.64-.15a1.46,1.46,0,0,0-1.11.78c-.56,2.21-.95,4.28-1.44,6.51Z"/><path id="Path_4673" data-name="Path 4673" class="cls-1" d="M128.91,93.36c.64-3.11,1.27-6.23,1.91-9.24,1.59-7.56,3.19-15.12,4.67-22.68.24-1.19.63-1.75,2-1.67,5,.08,10.11,0,15.12.08a8.91,8.91,0,0,1,6,1.9c4.23,3.58,3.35,10.43-1.66,13.3-.4.24-.88.47-1.44.77A5.59,5.59,0,0,1,159,80.37a11.38,11.38,0,0,1-9.47,13h0a12.8,12.8,0,0,1-1.64.13c-6.13.16-12.26.08-18.47.08C129.47,93.44,129.23,93.36,128.91,93.36Zm9-6.85c3.42,0,6.84.16,10.18-.08a3.8,3.8,0,0,0,3.77-3.83,2.54,2.54,0,0,0,0-.39c-.08-1.9-1.6-3.27-4.06-3.34s-4.93-.08-7.32,0a1.54,1.54,0,0,0-1.12.88c-.58,2.19-1.06,4.52-1.48,6.76Zm2.94-13.61c3.18,0,6.13.08,9.15-.08a4.79,4.79,0,0,0,2.47-.95,3.48,3.48,0,0,0,1.27-4,2.68,2.68,0,0,0-2.86-2.14c-2.55-.08-5.1-.16-7.64-.08a1.63,1.63,0,0,0-1.12,1c-.55,2-.87,4-1.27,6.23Z"/><path id="Path_4674" data-name="Path 4674" class="cls-1" d="M31,114.21c.94-4.3,1.9-8.36,2.78-12.44q4.52-20,9-40.17c.32-1.35.78-1.75,2.15-1.67,2.15.15,4.38,0,6.84,0-.55,2.46-1,4.77-1.51,7.08-3.34,15.2-6.76,30.4-10.11,45.61-.24,1.11-.63,1.59-1.82,1.51C36,114.13,33.65,114.21,31,114.21Z"/><path id="Path_4675" data-name="Path 4675" class="cls-1" d="M90.47,86.83c-.4,2.15-.71,4.14-1.19,6a1.21,1.21,0,0,1-.88.64H66.62c.56-2.46.95-4.77,1.51-7.08C69.89,78.24,71.8,70,73.47,61.75c.32-1.55.87-2.22,2.47-2.06,1.82.15,3.66,0,5.73,0-2,9.07-3.89,18-5.9,27.06C80.68,86.83,85.46,86.83,90.47,86.83Z"/><path id="Path_4676" data-name="Path 4676" class="cls-1" d="M22.9,114.21c1.35-6,2.62-11.62,3.88-17.35C29.41,85.07,32,73.3,34.56,61.52c.24-1.27.72-1.67,2-1.55s2.47,0,4,0c-.56,2.7-1.12,5.25-1.68,7.72q-5,22.68-10,45.21c-.23,1.11-.72,1.51-1.83,1.43A33,33,0,0,0,22.9,114.21Z"/><path id="Path_4677" data-name="Path 4677" class="cls-1" d="M17.24,114.05l1.2-5.49c3.42-15.56,6.84-31,10.34-46.49.49-2.22,1-2.46,3.89-1.82-1,4.06-1.83,8.19-2.7,12.25-3,13.33-6,26.55-9,39.88C20.59,114.44,20.27,114.61,17.24,114.05Z"/></svg>