<?xml version="1.0" encoding="UTF-8"?>
<svg id="Layer_1" xmlns="http://www.w3.org/2000/svg" version="1.1" viewBox="0 0 259.4 50">
  <!-- Generator: Adobe Illustrator 29.0.0, SVG Export Plug-In . SVG Version: 2.1.0 Build 186)  -->
  <defs>
    <style>
      .st0 {
        fill-rule: evenodd;
      }
    </style>
  </defs>
  <g id="Symbols">
    <g id="Basis-Header-1000">
      <g id="Logo">
        <g>
          <path id="Heinemann" class="st0" d="M95.8,14.7h3.6v25.4h-3.6v-11.7h-12.4v11.7h-3.6V14.7h3.6v10.6h12.4v-10.6ZM103.8,30.7c0-1.7.2-3.2.7-4.4s1.1-2.3,1.9-3.1,1.7-1.5,2.8-1.9c1.1-.4,2.1-.6,3.2-.6,2.6,0,4.5.8,5.9,2.4s2.1,4,2.1,7.3v1.2h-13.1c0,2,.7,3.5,1.7,4.5s2.6,1.5,4.7,1.5,2.2,0,3-.3,1.4-.4,1.9-.6l.5,2.9c-.4.2-1.1.5-2.2.7-1,.2-2.2.4-3.5.4s-3.1-.3-4.3-.8c-1.2-.5-2.2-1.2-3-2.1-.8-.9-1.4-1.9-1.7-3.1-.4-1.3-.6-2.6-.6-4ZM116.9,28.8c0-1.5-.4-2.8-1.2-3.8-.8-1-1.9-1.5-3.3-1.5s-1.5.2-2.1.5-1.1.7-1.5,1.2-.7,1.1-1,1.7c-.2.6-.4,1.3-.5,1.9,0,0,9.6,0,9.6,0ZM128.2,40.2h-3.4v-19.1h3.4v19.1ZM126.5,17.6c-.6,0-1.1-.2-1.6-.6-.4-.4-.6-.9-.6-1.6s.2-1.2.6-1.6.9-.6,1.6-.6,1.1.2,1.6.6c.5.4.6.9.6,1.6s-.2,1.2-.6,1.6c-.5.4-1,.6-1.6.6ZM133.5,21.6c.8-.2,1.8-.4,3.1-.6s2.8-.3,4.5-.3,2.8.2,3.8.6,1.8,1,2.4,1.8c.6.8,1,1.7,1.3,2.8.2,1.1.4,2.3.4,3.6v10.7h-3.4v-10c0-1.2-.1-2.2-.2-3-.2-.8-.4-1.5-.8-2-.4-.5-.9-.9-1.5-1.1s-1.4-.3-2.3-.3h-1.1c-.4,0-.8.1-1.1.1s-.7.1-1,.1-.5.1-.6.1v16.1h-3.4v-18.6h0ZM152.9,30.7c0-1.7.2-3.2.7-4.4s1.1-2.3,1.9-3.1c.8-.8,1.7-1.5,2.8-1.9s2.1-.6,3.2-.6c2.6,0,4.5.8,5.9,2.4s2.1,4,2.1,7.3v1.2h-13.1c.1,2,.7,3.5,1.7,4.5s2.6,1.5,4.7,1.5,2.2,0,3-.3,1.4-.4,1.9-.6l.5,2.9c-.4.2-1.1.5-2.2.7-1,.2-2.2.4-3.5.4s-3.1-.3-4.3-.8-2.2-1.2-3-2.1c-.8-.9-1.4-1.9-1.7-3.1-.4-1.3-.6-2.6-.6-4ZM166,28.8c0-1.5-.4-2.8-1.2-3.8s-1.9-1.5-3.3-1.5-1.5.2-2.1.5-1.1.7-1.5,1.2-.7,1.1-1,1.7c-.2.6-.4,1.3-.5,1.9,0,0,9.6,0,9.6,0ZM173.9,21.6c.8-.2,1.8-.4,3.1-.6s2.8-.3,4.5-.3,2.2.2,3.1.5c.8.3,1.5.8,2.1,1.4.2-.1.4-.3.8-.5.4-.2.8-.4,1.4-.6.5-.2,1.1-.4,1.8-.6s1.4-.2,2.1-.2c1.5,0,2.7.2,3.6.6.9.4,1.7,1,2.2,1.8s.9,1.7,1.1,2.8c.2,1.1.3,2.2.3,3.5v10.7h-3.4v-10c0-1.1-.1-2.1-.2-2.9-.1-.8-.3-1.5-.6-2s-.7-.9-1.2-1.2c-.5-.3-1.2-.4-2-.4s-2.1.2-2.8.5-1.3.6-1.5.8c.2.6.3,1.3.4,2.1.1.8.1,1.6.1,2.4v10.7h-3.4v-10c0-1.1-.1-2.1-.2-2.9-.1-.8-.3-1.5-.6-2s-.7-.9-1.2-1.2c-.5-.3-1.2-.4-2-.4h-1.1c-.4,0-.8.1-1.1.1s-.7.1-1,.1-.5.1-.6.1v16.1h-3.4v-18.4h-.3ZM211.4,37.7c.8,0,1.5,0,2.1,0,.6,0,1.1,0,1.6-.2v-5.7c-.2-.1-.6-.2-1.2-.3-.6-.1-1.2-.1-2-.1s-1.1,0-1.6.1c-.6.1-1.1.2-1.6.5-.5.2-.9.6-1.2,1s-.5.9-.5,1.6c0,1.2.4,2.1,1.2,2.5.8.5,1.8.7,3.2.7ZM211.1,20.6c1.4,0,2.5.2,3.5.5s1.7.9,2.3,1.5,1,1.4,1.2,2.3.4,1.9.4,3v11.9c-.3,0-.7,0-1.2.2-.5,0-1.1.2-1.8.2-.7,0-1.4,0-2.1.2s-1.5,0-2.3,0-2.1,0-3-.3-1.7-.6-2.3-1c-.7-.5-1.2-1.1-1.5-1.9s-.6-1.7-.6-2.8.2-2,.6-2.7c.4-.8,1-1.4,1.7-1.8.7-.5,1.6-.8,2.6-1s2-.3,3.1-.3.7,0,1.1.1c.4,0,.7.1,1,.1.3.1.6.1.9.2.2,0,.4.1.5.1v-1c0-.6-.1-1.1-.2-1.7-.1-.6-.3-1-.7-1.5-.3-.4-.8-.8-1.3-1-.6-.3-1.3-.4-2.1-.4s-2.1.1-3,.2c-.8.2-1.5.3-1.9.5l-.4-2.8c.4-.2,1.2-.4,2.2-.6s2.1-.3,3.3-.3ZM223.5,21.6c.8-.2,1.8-.4,3.1-.6s2.8-.3,4.5-.3,2.8.2,3.8.6,1.8,1,2.4,1.8,1,1.7,1.3,2.8c.2,1.1.4,2.3.4,3.6v10.7h-3.4v-10c0-1.2-.1-2.2-.2-3-.2-.8-.4-1.5-.8-2-.4-.5-.9-.9-1.5-1.1s-1.4-.3-2.3-.3h-1.1c-.4,0-.8.1-1.1.1s-.7.1-1,.1-.5.1-.6.1v16.1h-3.4v-18.6h0ZM244,21.6c.8-.2,1.8-.4,3.1-.6s2.8-.3,4.5-.3,2.8.2,3.8.6c1,.4,1.8,1,2.4,1.8s1,1.7,1.3,2.8c.2,1.1.4,2.3.4,3.6v10.7h-3.4v-10c0-1.2-.1-2.2-.2-3-.2-.8-.4-1.5-.8-2-.4-.5-.9-.9-1.5-1.1s-1.4-.3-2.3-.3h-1.1c-.4,0-.8.1-1.1.1s-.7.1-1,.1-.5.1-.6.1v16.1h-3.5v-18.6Z"/>
          <g id="Segel">
            <path id="Shape" class="st0" d="M19.2,4.8C28.3,4.8,35.4,1.1,43.6,0,43.7,0,43.8,0,43.7.2c-11.5,15.7-11.9,33.4-1.7,49.3,0,0,0,0,0,.2,0,0,0,.3-.3.3h-.4c-5.1-.5-10-2.4-15-4-.4,0-.7-.4-1-.8-5.5-10.5-4.8-22.8.8-33.3.2-.4-.2-.3-.2-.3l-2,.3c-.2,0-.3.1-.4.3-6.9,11.6-7.3,24-.8,35.8l.2.4c.1.2.1.3-.1.3h-.5c-4.9,0-10.8-3.9-18.9-2.2-.2,0-.5,0-.6-.3-4.4-9.8-3.6-20.4,1.3-30,0-.2.2-.2.4-.2,3.3.3,6.5-.1,9.6-1.1,1.2-3.4,2.8-6.7,4.6-9.8.1-.3.2-.3.4-.3M7.2,19l-.9,2s0,.2,0,.1l7.6-1.2c.1,0,.2-.1.2-.1l1.1-2.1s.1-.2-.1-.1l-7.7,1.3c-.2,0-.2,0-.3.1M22.4,7.7l-1.1,2.1c-.1.3.1.2.1.2l8.6-1.4h.2c.1,0,.3-.1.3-.2.3-.6,1.2-2.2,1.3-2.3q.1,0,0,0l-8.9,1.6c-.1,0-.2,0-.4,0"/>
            <path id="Shape1" data-name="Shape" class="st0" d="M40.4,13.8q0-.2.2-.2c.9-.1,4.5-.7,5.6-.8h.3c.2,0,.3-.1.4-.3,0,0,0-.3.3-.7l.9-1.9s0-.2-.2-.2l-6.1,1c-.3.1-.3-.1-.3-.2l.4-1c.6-1.4,1.1-2.5,1.5-3.3,0,0,0,0,.2,0,5.9-.7,10.7-3,17.9-3.5,0,0,.2,0,0,.2-10.5,15.3-7.7,31.7,3.4,46,0,0,0,.3,0,.3-8.8,1.4-14.2-1.8-20-3.1-.4,0-.8-.3-1.1-.7-5.2-8.9-6.7-19.5-4.1-29.5,0-.3.4-1.4.7-2"/>
          </g>
        </g>
      </g>
    </g>
  </g>
</svg>