<?xml version="1.0" encoding="UTF-8"?>
<svg id="Layer_1" xmlns="http://www.w3.org/2000/svg" version="1.1" viewBox="0 0 178.5 174">
  <!-- Generator: Adobe Illustrator 29.0.0, SVG Export Plug-In . SVG Version: 2.1.0 Build 186)  -->
  <defs>
    <style>
      .st0 {
        fill: none;
      }
    </style>
  </defs>
  <path d="M80.1,90.9h-10.4v2.4h.3c0-.3.7-1,1.5-1h2.3v12.2h2.3v-12.2h2.4c.8,0,1.3.4,1.4.9h0c0,0,.3,0,.3,0v-2.3ZM12.3,90.2c-1.5,1.5-2.4,3.8-2.4,5.9s1,4.7,2.7,6.2c1.7,1.5,4,2.4,6.4,2.4s3.8-.3,6.2-1.7h0c0,0,.3-3.5.3-3.5h-.4c0,0,0,0,0,0-1.8,3.7-4.5,3.7-5.6,3.7-4.7,0-6.8-3.9-6.8-7.5s2.1-7.1,6.8-7.1,4.1.5,5.5,3.7v.2c0,0,.5-.2.5-.2l-.2-3.5h0c-2.2-1-4-1.5-5.8-1.5-2.9,0-5.4,1-7.1,2.8h0ZM27.9,90.9v.3c0,0,.3.6.3,1.2v11.9h2.2v-6.1h.9c.9,0,1.2.6,1.7,1.4h0c0,0,.3.6.3.6.5.8,1.1,1.9,1.8,2.9.5.8,1.1,1.1,1.9,1.3.5,0,1.6,0,2,0h.5c0,0,.2-.2.2-.2l-.7-.2c-.3,0-.7-.3-1.3-.9-.3-.4-.9-1.4-1.8-2.7l-.9-1.4c-.3-.3-.6-.9-1.3-1.3,1.3-.4,2.5-1.5,2.5-3.2s0-1.5-.9-2.2-2.1-1.2-3.9-1.2h-3.7ZM31.7,92.2c2.3,0,2.4,2,2.4,2.3,0,2-1.5,2.6-2.6,2.6h-.9v-4.9c.3,0,.7-.2,1.2,0ZM50.9,90.9v.3c.2,0,.3.6.3,1v12.1h3.8c2.6,0,4.6-.8,6.1-2.3,1.2-1.3,1.9-2.9,1.9-4.7s-.3-2.6-1.4-3.9c-1.4-1.7-3.4-2.6-6.2-2.6h-4.5ZM53.5,92.3h1.2c.3,0,1.1,0,1.7,0,3.8.6,4.2,3.8,4.2,5.1s-.2,2.6-1.1,3.9c-.9,1.2-2.4,1.8-4.4,1.8h-1.6v-10.9ZM67.7,90.9h-2.6v.3c.3,0,.4.6.4,1.1v12h2.2v-13.5ZM112.9,90.9h-2.6v.3c.3,0,.4.6.4,1.1v12h2.2v-13.5ZM47.9,90.9h-7.5v.3c.3,0,.5.6.5,1.2v11.9h7.5l.5-2.4h-.3c0,0,0,0,0,0-.6.9-1.3,1.1-3.4,1.1s-1.5,0-2,0v-5.5h3.8v-1.3h-3.8v-4.2h3.1c.7,0,1.5.7,1.5,1.1h0c0,0,.3,0,.3,0v-2.5ZM144.2,90.9h-7.5v.3c.2,0,.4.5.4,1.2v11.9h7.5l.5-2.4h-.3c0,0,0,0,0,0-.6.9-1.3,1.1-3.4,1.1s-1.5,0-2,0v-5.5h3.8v-1.3h-3.8v-4.2h3.1c.9,0,1.5.7,1.5,1.1h0c0,0,.3,0,.3,0v-2.5ZM86.7,88.5c-.8.6-1.7,1.6-1.8,3.4h0c0,2.2,1.4,3.4,3.6,4.5,0,0,.3.2.9.4,1.9.9,3.2,1.6,3.2,3.5s-.3,1.6-.9,2.3c-.6.6-1.4.9-2.3.9-2.8,0-3.8-2.5-4.1-3.6v-.2c0,0-.6,0-.6,0l.2,3.5h.3c.9.4,2.4,1.3,4.6,1.4,1.5,0,3.1-.6,4.2-1.7.9-.9,1.5-2.1,1.5-3.4,0-2.8-2-3.9-4.2-5l-.4-.3c-2.2-1.1-3.2-1.8-3.2-3.2s.8-2.5,2.6-2.5,3.4,1.7,3.7,2.7v.2c0,0,.6,0,.6,0l-.2-3.1h0c-1.3-.9-2.9-1.1-3.6-1.1-1.5,0-2.8.5-3.8,1.2h0ZM116.6,94.3c0,1.9,1.1,2.8,2.9,3.8l.7.3c1.5.7,2.4,1.2,2.4,2.6s0,1-.7,1.7c-.4.4-1,.7-1.8.6-2.1,0-2.9-1.7-3.2-2.6v-.2c0,0-.5,0-.5,0v2.8c0,0,.2,0,.2,0,.7.4,1.9,1.1,3.7,1.1s2.5-.5,3.3-1.4c.8-.8,1.1-1.7,1.1-2.7,0-2.4-1.6-3.2-3.3-4.1l-.3-.2c-1.9-.9-2.5-1.4-2.5-2.4s.5-1.8,2-1.8,2.6,1.4,2.7,2v.2c0,0,.5,0,.5,0l-.2-2.5h0c-1-.8-2.3-.9-2.8-.9-2,0-4.1,1.2-4.1,3.5h0ZM126.6,94.3c0,1.9,1.1,2.8,2.9,3.8l.7.3c1.5.7,2.4,1.2,2.4,2.6s0,1-.7,1.7c-.4.4-1,.7-1.8.6-2.1,0-2.9-1.7-3.2-2.6v-.2c0,0-.5,0-.5,0v2.8c0,0,.2,0,.2,0,.7.4,1.9,1.1,3.7,1.1s2.5-.5,3.3-1.4c.8-.8,1.1-1.7,1.1-2.7,0-2.4-1.6-3.2-3.3-4.1l-.3-.2c-1.9-.9-2.5-1.4-2.5-2.4s.2-.9.5-1.3c.3-.3.9-.5,1.5-.5,1.8,0,2.6,1.4,2.7,2v.2c0,0,.5,0,.5,0l-.2-2.5h0c-1-.8-2.3-.9-2.8-.9-1.8,0-4,1.2-4,3.5h0ZM107.3,90.9h-1.8v.3c0,0,.3.3.3,1.1v7.7c0,1.5-.5,3.2-3.2,3.2s-3-1.5-3-3.7v-8.7h-2.8v.3c.2,0,.5.4.5,1.2v7.2c0,4.4,2.9,4.9,5.1,4.9s4.6-.3,4.6-4.5l.2-9.1ZM163.6,87.1c1.6.5,3.2,1.2,5,2.2-4.4-7.2-12-14.9-19.6-20,2,2,5.1,6.2,6,10.8,3.1,2.2,6,4.6,8.6,7ZM163.6,87.1c-3.8-1.2-6.9-1.3-9.2-1,.9-2,.9-4,.6-6-5.7-4.1-12.1-7.7-18.2-10.3,4.4,3,9.4,11.8,11.4,21.2,4.4-1.3,11.2-2.2,20,.8-1.5-1.5-3-3.1-4.6-4.6h0Z"/>
  <path class="st0" d="M154.9,80.1c.3,2,.3,4-.5,6,2.4-.3,5.5-.2,9.2,1-2.6-2.4-5.5-4.8-8.7-7Z"/>
</svg>