<svg id="Layer_1" data-name="Layer 1" xmlns="http://www.w3.org/2000/svg" viewBox="0 0 178.5 174"><defs><style>.cls-1{fill:#010101;}</style></defs><path class="cls-1" d="M25.6,81.4A2.09,2.09,0,0,1,28,80c1.72,0,3.44,0,5.16,0a8.7,8.7,0,0,1,2.27.32,4.25,4.25,0,0,1,3.2,3.87,4.86,4.86,0,0,1-2.23,5.06.53.53,0,0,0-.1.13c.2.1.39.19.57.3a5.1,5.1,0,0,1,2.45,5.21A5.2,5.2,0,0,1,34,99.66c-2,0-4,0-6,0a2.09,2.09,0,0,1-2.38-1.44Zm2.14,16.27c.07,0,.09.06.12.06,2,0,4.08,0,6.11,0a3.09,3.09,0,0,0,3-2,3.55,3.55,0,0,0-3.25-5.11c-1.92-.07-3.84,0-5.76,0a1,1,0,0,0-.2,0Zm0-15.81V88.6l.37,0c1.59,0,3.17,0,4.76,0a3.46,3.46,0,0,0,3.66-4.17,2.51,2.51,0,0,0-1.72-2.25,7.2,7.2,0,0,0-2-.34c-1.38-.05-2.76,0-4.15,0Z"/><path class="cls-1" d="M72.56,97.54a6.94,6.94,0,0,1-3,1.58,5.14,5.14,0,0,1-6.49-4.06,9.3,9.3,0,0,1,0-4.42,6.2,6.2,0,0,1,6.36-4.77,9.06,9.06,0,0,1,1.64.19,4.14,4.14,0,0,1,3.39,3.84,10.7,10.7,0,0,1,.1,1.5c0,2.55,0,5.11,0,7.66,0,3.5-1.77,5.71-5.21,6.36a36,36,0,0,1-3.66.34v-1.88c.78,0,1.55,0,2.3-.12a9.46,9.46,0,0,0,2-.48,3.61,3.61,0,0,0,2.47-3,26.42,26.42,0,0,0,.14-2.68Zm.08-4.71h0c0-.75,0-1.5,0-2.25a2.62,2.62,0,0,0-1.5-2.52,4.35,4.35,0,0,0-5.81,2.48A7,7,0,0,0,65.21,95,3,3,0,0,0,68,97.3a5.9,5.9,0,0,0,4.58-1.9.67.67,0,0,0,.11-.46C72.65,94.24,72.64,93.54,72.64,92.83Z"/><path class="cls-1" d="M53.22,93.7h-10a3.87,3.87,0,0,0,2.15,3.64,5.6,5.6,0,0,0,3.81.44,34.15,34.15,0,0,0,3.26-1l.67,1.7c-.78.35-1.52.73-2.3,1a8.74,8.74,0,0,1-4.45.35,6,6,0,0,1-5.18-5.62,9.26,9.26,0,0,1,.58-4.77,6.07,6.07,0,0,1,8.69-2.76A5.57,5.57,0,0,1,53,90.88C53.17,91.78,53.16,92.7,53.22,93.7Zm-2.13-1.8a4.05,4.05,0,0,0-1.64-3.64,3.93,3.93,0,0,0-4.36-.06,4.34,4.34,0,0,0-2,3.7Z"/><path class="cls-1" d="M88.57,93.7h-10A4,4,0,0,0,81,97.45a6.21,6.21,0,0,0,4.12.23c.9-.24,1.75-.64,2.7-1l.65,1.62a1.86,1.86,0,0,1-.27.22,9.27,9.27,0,0,1-6.89,1.16A6,6,0,0,1,76.56,94,9.48,9.48,0,0,1,77,89.67a6.08,6.08,0,0,1,8.68-3.12,5.35,5.35,0,0,1,2.51,3.25A12,12,0,0,1,88.57,93.7Zm-10-1.8h7.86a3.73,3.73,0,0,0-3.34-4.27C80.58,87.37,78.69,89.13,78.58,91.9Z"/><path class="cls-1" d="M98,86v2h-.59a17,17,0,0,0-1.89.11,2.78,2.78,0,0,0-2.59,2.84c-.08,1.53,0,3.07,0,4.61,0,1.35,0,2.7,0,4.1h-2c0-.14,0-.26,0-.39q0-3.81,0-7.62a8.93,8.93,0,0,1,.13-1.55,4.54,4.54,0,0,1,4.19-3.94C96,86,97,86,98,86Z"/><path class="cls-1" d="M62.55,86v2h-.62a17,17,0,0,0-1.89.12,2.8,2.8,0,0,0-2.57,2.75A11.07,11.07,0,0,0,57.41,92v7.65h-2c0-.17,0-.33,0-.49,0-2.52,0-5,0-7.56A8.14,8.14,0,0,1,55.53,90a4.53,4.53,0,0,1,4.19-3.83C60.64,86,61.58,86,62.55,86Z"/><path class="cls-1" d="M65.45,76l2.2,4.21c-.94.22-1,.18-1.43-.57-.55-1-1.1-2.06-1.63-3.1a.65.65,0,0,0-.69-.41c-.71,0-1.43,0-2.19,0V80.3h-1c0-.17,0-.35,0-.52q0-4,0-8c0-.89.27-1.17,1.15-1.18h2.61a2.64,2.64,0,0,1,2.81,2.06,2.78,2.78,0,0,1-1.6,3.26Zm-3.75-.85c1,0,2,0,3,0a1.71,1.71,0,0,0,1.62-1.73A1.58,1.58,0,0,0,65,71.61c-1.07-.1-2.16,0-3.27,0,0,.17,0,.32,0,.46Z"/><path class="cls-1" d="M96.69,74.41V70.62h.94c0,.17,0,.34,0,.52V78.7a1.37,1.37,0,0,1-1.45,1.59,10.1,10.1,0,0,1-1.65,0A2.67,2.67,0,0,1,92,78a6.52,6.52,0,0,1,0-2.33A2.56,2.56,0,0,1,96,74C96.22,74.07,96.41,74.22,96.69,74.41Zm0,2.86a4,4,0,0,1,0-.85c.19-1-.39-1.37-1.11-1.7a3,3,0,0,0-.72-.22,1.55,1.55,0,0,0-1.43.41A3.25,3.25,0,0,0,93.7,79a1.55,1.55,0,0,0,.76.35,11.36,11.36,0,0,0,1.75,0c.36,0,.5-.26.49-.62S96.7,77.75,96.7,77.27Z"/><path class="cls-1" d="M82.58,76.81a2.51,2.51,0,0,0,0-.27c.07-1.77-.51-2.31-2.27-2A15.47,15.47,0,0,0,78.6,75l-.33-.77a4.77,4.77,0,0,1,4.21-.44,1.75,1.75,0,0,1,1.06,1.69c0,1.25,0,2.5,0,3.75a1,1,0,0,1-1,1,16.11,16.11,0,0,1-3-.08,1.66,1.66,0,0,1-1.48-1.75,1.87,1.87,0,0,1,1.34-2,3.9,3.9,0,0,1,2.73.15A5,5,0,0,1,82.58,76.81Zm-1.5,2.7v-.05h.35c1.18,0,1.23-.11,1.19-1.28,0-.17-.06-.42-.17-.48a3.42,3.42,0,0,0-2.68-.41,1,1,0,0,0-.72,1,1,1,0,0,0,.75,1C80.22,79.41,80.65,79.44,81.08,79.51Z"/><path class="cls-1" d="M68.35,76.92c0-.31,0-.62.09-.91a2.84,2.84,0,0,1,3-2.52A2.76,2.76,0,0,1,74.42,76a6.58,6.58,0,0,1,0,1.88,2.8,2.8,0,0,1-3,2.54,2.86,2.86,0,0,1-3-2.61C68.39,77.54,68.37,77.22,68.35,76.92Zm1,.09a10.19,10.19,0,0,0,.2,1.19,1.83,1.83,0,0,0,1.89,1.42,1.72,1.72,0,0,0,1.89-1.38A6.68,6.68,0,0,0,73.4,76a1.78,1.78,0,0,0-1.86-1.67,1.87,1.87,0,0,0-2.05,1.59A10.32,10.32,0,0,0,69.33,77Z"/><path class="cls-1" d="M90.48,80.31h-.92v-.55c0-1.14,0-2.27,0-3.41S89,74.6,87.77,74.54c-1.63-.09-1.65-.07-1.65,1.55v4.2h-.9s0-.05,0-.08c0-1.84,0-3.67,0-5.51a1,1,0,0,1,.89-1,14.73,14.73,0,0,1,2.82.08,1.82,1.82,0,0,1,1.58,1.77C90.53,77.12,90.48,78.69,90.48,80.31Z"/><path class="cls-1" d="M76.78,80.3h-.92V70.62h.92Z"/><path class="cls-1" d="M109.34,116.65V60.44h19.5a3,3,0,0,0,.48.16c5.84,1.08,9.8,4.44,11.38,10.13s-.11,10.72-4.63,14.67l-.73.63.55.07a15.31,15.31,0,0,1-1.45,30.54C126.08,116.67,117.71,116.65,109.34,116.65Z"/></svg>