<svg id="Layer_1" data-name="Layer 1" xmlns="http://www.w3.org/2000/svg" viewBox="0 0 178.5 174"><defs><style>.cls-1{fill:#010101;}</style></defs><path class="cls-1" d="M73,81.74,72,82a.43.43,0,0,0,0,.17l.25.88a4.06,4.06,0,0,1-.85-.21,1,1,0,0,0-1.43.34,10,10,0,0,1-1,1.06l-.21-.12.3-1.49-4.68,1.1L65.07,85l-.15.2a10.81,10.81,0,0,1-1.28-.62c-.46-.3-.79-.34-1.16.15s-1,1.13-1.46,1.7l-.24-.07.31-1.8c-1.22.56-2.41.74-3.51-.41l3.37-.9-1-1.16a5.5,5.5,0,0,1,.76.05,2.78,2.78,0,0,1,.44.19c1.32.55,1.51.49,2.29-.69.07-.11.16-.21.39-.51l.22,1.28,4.49-1.11-.73-1,.06-.19a5.69,5.69,0,0,1,.84.18c1.51.59,1.66.55,2.71-.65a4.52,4.52,0,0,1,.53-.43l.15.1-.24,1,1.1-.32V74.35h7.27l0-.14-.6-.37a20.25,20.25,0,0,1-5-3.94,10.48,10.48,0,0,1-1-1.26,5.9,5.9,0,0,1,.33-7.2,20.14,20.14,0,0,1,4.63-4.1c.92-.65,1.85-1.29,2.75-2a13.56,13.56,0,0,0,4.34-4.74,14.61,14.61,0,0,1,4.07,3.71c2.39,3.29,2.19,6.53-.64,9.47-.86.89-1.81,1.7-2.73,2.53a14.64,14.64,0,0,0-4.32,7.32c0,.18-.07.36-.12.64h7.45v4.44l1.72.14-.13-1.2.2-.11a14.17,14.17,0,0,1,1,1.24.7.7,0,0,0,1.08.31c.38-.19.78-.32,1.18-.48l.12.13-.66,1c2.51,1.1,4.79,2.48,6.1,5.12l1.09-.7.17.13a3.65,3.65,0,0,1-.3.76c-.49.74-.7,1.44.06,2.15a2.47,2.47,0,0,1,.37.68l-.11.15-1.48-.64c-.77,3.08-3.3,3.93-6,4.57l.46,1.19a7.41,7.41,0,0,1-.83-.32c-.81-.47-.86-.46-1.47.28a4.2,4.2,0,0,1-1.17,1l.23-1.49L89.53,93V102l1.64-.44-.93-.88.07-.21a6.76,6.76,0,0,1,1.28.38,1.18,1.18,0,0,0,1.63-.32.47.47,0,0,1,.15-.13l.65-.28.23.83,4.07-1.37-1.17-.79,0-.19a6.86,6.86,0,0,1,1.36,0,1.63,1.63,0,0,0,1.8-.66,3.77,3.77,0,0,1,.59-.51l.13,1c1-.28,1.9-1,3,0l-2.37,1.21.56.89-.06.16c-.37-.12-.74-.22-1.09-.37a.64.64,0,0,0-1,.32A6.42,6.42,0,0,1,99,102.25v-1.51l-4.83,1.72.8,1.19-.19.16L93.09,103l-1.5,1.61-.21-.08.11-1.46a13,13,0,0,0-1.69.53c-.17.07-.3.42-.3.65,0,2.44,0,4.88,0,7.32v.81L73,109.92c0-1.26,0-2.45,0-3.64,0-.59-.2-.79-.83-.73l.13,1-.15.09a7.93,7.93,0,0,1-.67-.62c-1-1.1-1.1-1.14-2.5-.68-.39.13-.79.24-1.18.35l-.11-.21.67-.81c-.32-.15-.6-.29-.88-.41a12.25,12.25,0,0,1-3.93-2.64.69.69,0,0,0-1.1-.09,7.52,7.52,0,0,1-.78.45l-.17-.18a16.45,16.45,0,0,1,.91-1.38c.39-.46.43-.81-.1-1.18a8.28,8.28,0,0,1-.75-.7l.13-.21,1.58.35c.63-2.45,2.73-3.42,4.8-4.53L66.47,93a2.13,2.13,0,0,1,.66-.12,6.08,6.08,0,0,1,1.42.3A1.1,1.1,0,0,0,70,92.64a1.84,1.84,0,0,1,.74-.65l.1,1.15L73,92.68Zm6.89,11.72c-1.27.16-2.38.32-3.49.42-.48.05-.55.28-.55.68,0,4.11,0,8.23,0,12.34,0,.48.18.62.63.67,1.64.2,3.28.44,4.92.66l5.27.7V93.14l-3.8.22.4,1.21a5.37,5.37,0,0,1-1.08-.49c-.68-.57-1.13-.32-1.63.28a7.43,7.43,0,0,1-1.15.91l-.15-.17Zm-4-16.2v15l3.17-.31a4.06,4.06,0,0,1-.42-.67,1.72,1.72,0,0,1,0-.56,2.1,2.1,0,0,1,.51.05,13,13,0,0,1,1.3.64.74.74,0,0,0,1-.13c.32-.29.68-.52,1-.78l.17.17-.24.93,4.28-.23V77.26ZM86.41,55c-1.72,1.48-3.39,2.85-5,4.32a20,20,0,0,0-2.56,2.87,7.1,7.1,0,0,0,1.83,10.31,2,2,0,0,0,.11-.32,13.79,13.79,0,0,1,2.44-5.65c.8-1.12,1.64-2.21,2.41-3.36C87.35,60.59,87.36,57.87,86.41,55ZM93.8,81.58l-.17.92a1.38,1.38,0,0,1-.27-.11c-.32-.35-.6-.92-1-1s-.92.32-1.4.48c-.31.1-.65.16-1,.24l-.11-.2L91,80.48H89.52V91.29l1.07-.15-.65-.93.13-.23a8,8,0,0,1,1.56.45.72.72,0,0,0,1.05-.25c.25-.32.55-.61.94-1l.28,1.14a5.11,5.11,0,0,0,4-2.36l-1,.3-.11-.2a6.45,6.45,0,0,1,.37-.54c1.09-1.3,1.09-1.3.17-2.71a2.05,2.05,0,0,1-.16-.55l.59-.15A6.29,6.29,0,0,0,93.8,81.58ZM68.46,97l-.25,0,.19-1.3a7.59,7.59,0,0,0-3.32,2.67l.79-.35.13.14-1,1.74c.36.59,1.17.73,1.26,1.56l-.83-.15a7.91,7.91,0,0,0,3.81,1.9L69,102l.15-.1c.36.33.73.65,1.06,1a.82.82,0,0,0,1.2.19,5.25,5.25,0,0,1,1.14-.37l.09.17-.54,1L73,104V94.39l-1.43.33.46.67-.1.16a8,8,0,0,1-1.21-.34.83.83,0,0,0-1.16.34C69.17,96,68.81,96.5,68.46,97Z"/><path class="cls-1" d="M27.11,66.54l10,2.11L36.63,71,28.86,69.4l0,.09,3.24,1.79c1.17.64,2.33,1.3,3.51,1.92.4.21.56.41.44.9-.26,1.06-.23,1.06-1.35,1.16-2.34.19-4.67.38-7,.69l7.61,1.62-.41,2-10-2.11c.24-1.16.45-2.27.72-3.35,0-.17.37-.36.58-.38,1.7-.16,3.4-.28,5.09-.41l.6,0-1-.6c-1.31-.72-2.61-1.45-3.93-2.16-.38-.2-.53-.39-.41-.85C26.69,68.66,26.88,67.63,27.11,66.54Z"/><path class="cls-1" d="M131.2,95.82l-4.71,1c.16-.87.29-1.65.48-2.42,0-.14.32-.28.52-.32,1-.21,2-.42,3-.54.62-.08.89-.34.91-.94,0-.27.09-.54.15-.87L127.61,91l.42-2.39,10.12,1.92c-.39,1.9-.71,3.75-1.19,5.56a2.64,2.64,0,0,1-2.72,2,2.83,2.83,0,0,1-2.9-2Zm2.13-3.77c-.14.77-.31,1.46-.38,2.16A1.21,1.21,0,0,0,134,95.53a1.08,1.08,0,0,0,1.33-.71c.23-.73.34-1.5.51-2.29Z"/><path class="cls-1" d="M68.42,128.43l1.79.62c-1.1,3.22-2.2,6.41-3.33,9.69-.8-.27-1.58-.52-2.34-.83-.14,0-.2-.38-.24-.59-.38-2-.75-3.93-1.24-5.91-.61,1.76-1.22,3.52-1.87,5.38l-1.79-.61,3.33-9.7a14.86,14.86,0,0,1,1.71.61,1.1,1.1,0,0,1,.38.72c.45,2.28.87,4.56,1.44,6.87Z"/><path class="cls-1" d="M41.14,60.47l-1,1.61-8.65-5.52c.44-.69.83-1.36,1.29-2,.11-.15.44-.19.66-.18,2,.08,4,.18,6.06.15l-4.78-3.06,1-1.61,8.65,5.52c-.35.55-.65,1.09-1,1.57-.11.14-.45.17-.68.16-2.34-.11-4.68-.23-7.09-.22Z"/><path class="cls-1" d="M123.35,104.38l.93-1.66,9,5c-.39.71-.73,1.39-1.14,2a1,1,0,0,1-.7.27c-1.75.05-3.5.06-5.24.08a1.49,1.49,0,0,0-.77.16l4.94,2.74-.92,1.67-9-5a13.83,13.83,0,0,1,.85-1.5,1,1,0,0,1,.74-.31c2.2-.06,4.41-.08,6.62-.12a.61.61,0,0,0,.44-.14Z"/><path class="cls-1" d="M122.76,44.36c.52.63,1,1.15,1.42,1.73a.92.92,0,0,1,.06.73c-.62,1.73-1.28,3.45-1.93,5.17-.07.18-.13.38-.26.76L126.59,49l1.22,1.46L119.91,57a15.66,15.66,0,0,1-1.15-1.43.86.86,0,0,1,0-.68c.81-2.22,1.65-4.43,2.38-6.73l-5.09,4.21-1.22-1.46Z"/><path class="cls-1" d="M85.1,135.33a21.74,21.74,0,0,1-.79,2.89,4.15,4.15,0,0,1-7.64-.17,6.84,6.84,0,0,1,.17-5.62,3.82,3.82,0,0,1,3.69-2.32,3.72,3.72,0,0,1,3.74,2.31A24.44,24.44,0,0,1,85.1,135.33Zm-2.6-.14a20.4,20.4,0,0,0-.5-2.11,1.43,1.43,0,0,0-1.53-1,1.36,1.36,0,0,0-1.34,1,6.79,6.79,0,0,0-.1,4.47,1.42,1.42,0,0,0,1.43,1.07,1.4,1.4,0,0,0,1.48-1C82.19,136.85,82.32,136,82.5,135.19Z"/><path class="cls-1" d="M49,50.25l-6.6-7.86L48,37.66l1.31,1.57-3.75,3.15,1.29,1.53,2.95-2.47,1.28,1.5-3,2.49,1.41,1.68L53.32,44l1.31,1.56Z"/><path class="cls-1" d="M127.43,74.92l10.19-1.17c.28,2.43.56,4.83.84,7.29l-2,.22c-.19-1.63-.38-3.21-.58-4.85l-2,.22.41,3.84-1.94.22-.46-3.81-2.17.23c.18,1.63.36,3.2.54,4.86l-2,.25C128,79.78,127.72,77.4,127.43,74.92Z"/><path class="cls-1" d="M63.62,32.07,62,33.48a1.79,1.79,0,0,0-2.54-.14,1.37,1.37,0,0,0-.48,1c0,.51.55.64,1,.58.7-.1,1.4-.26,2.11-.36,1.93-.25,3.3.53,3.73,2.14a3,3,0,0,1-.59,2.85,5.37,5.37,0,0,1-4.79,1.93,3.12,3.12,0,0,1-2.27-1.43L60,38.73A2.08,2.08,0,0,0,63,39c.47-.29.85-.67.65-1.3s-.75-.62-1.26-.56c-.78.09-1.55.27-2.32.34A2.69,2.69,0,0,1,57,35.8a3.14,3.14,0,0,1,.82-3.65,4.27,4.27,0,0,1,5.49-.43C63.38,31.81,63.47,31.92,63.62,32.07Z"/><path class="cls-1" d="M110,120.84c.58-.54,1.06-1,1.59-1.47a.83.83,0,0,1,.69-.06c.55.21,1.09.75,1.57.69s.86-.7,1.28-1.09c1-1,1.08-1,.4-2.22-.3-.54-.28-.89.23-1.26a11.59,11.59,0,0,0,1-.92l1.89,4c.8,1.7,1.59,3.41,2.43,5.1.25.5.22.85-.25,1.15a1.86,1.86,0,0,0-.26.23c-1.27,1.18-1.27,1.18-2.81.31l-7.13-4C110.47,121.13,110.28,121,110,120.84Zm7-1.07-1.52,1.42,2.9,1.68.1-.1Z"/><path class="cls-1" d="M50.1,118.32c.64.48,1.24.9,1.81,1.37.11.09.12.33.16.51s0,.13-.06.19c-.54,1.57-.54,1.57.81,2.57l1.23.91,1.77-1.28,1.68,1.25a4.23,4.23,0,0,1-.41.36c-2.6,1.86-5.21,3.71-7.8,5.59-.37.27-.64.33-1,0-.54-.5-1.42-.84-1.61-1.42s.35-1.32.58-2l2.55-7.29C49.89,118.85,50,118.62,50.1,118.32Zm2.32,6.75-1.69-1.22L49.61,127l.13.08Z"/><path class="cls-1" d="M36.18,95.28c-3.49-.57-6.85-1.11-10.21-1.68-.18,0-.31-.31-.46-.48,0,0,0,0,0-.07-.09-.75-.46-1.64-.18-2.21s1.2-.73,1.86-1.06l6.89-3.34.76-.34c.12.81.25,1.55.33,2.29,0,.14-.16.36-.31.45-.51.32-1.28.48-1.51.93s.1,1.15.18,1.74c.19,1.3.18,1.35,1.48,1.49.7.08,1,.3,1,1A9.2,9.2,0,0,0,36.18,95.28Zm-4.46-2.76-.31-2.07-3,1.45,0,.13Z"/><path class="cls-1" d="M86.7,27c.91.15,1.68.25,2.43.42a.93.93,0,0,1,.49.55c.38,1.15.73,2.31,1.13,3.6.73-1,1.42-1.88,2-2.81a1,1,0,0,1,1.3-.53,9.73,9.73,0,0,0,1.29.23,5.45,5.45,0,0,1-.29.48c-1.13,1.46-2.27,2.89-3.38,4.36a2.74,2.74,0,0,0-.49,1.1c-.24,1.19-.42,2.39-.64,3.65l-2.39-.41c.22-1.28.43-2.49.61-3.71a2.25,2.25,0,0,0-.08-1c-.56-1.7-1.16-3.39-1.74-5.09C86.89,27.56,86.82,27.32,86.7,27Z"/><path class="cls-1" d="M124.86,66.47l-1-2.23L131.4,61l-1-2.38,1.9-.82c1,2.32,2,4.6,3,7l-1.9.83-1-2.34Z"/><path class="cls-1" d="M104.18,124.43c1.28,2.43,2.52,4.81,3.79,7.24l2.3-1.18,1,1.84-6.71,3.51-1-1.83,2.25-1.21L102,125.56Z"/><path class="cls-1" d="M78.34,26.85l.24,2-2.52.35,1,8.1-2.41.3-1-8.1-2.55.28-.26-2.05Z"/><path class="cls-1" d="M40.09,109.37l1.68-1.22c1.29,1.77,2.55,3.51,3.85,5.28l-8.29,6-1.44-2,6.6-4.82Z"/><path class="cls-1" d="M109.13,46.16l-2-1.4L113,36.34l2,1.4Z"/><path class="cls-1" d="M91.5,129.23l2.36-.58,2.43,10-2.36.58C93.11,135.86,92.31,132.57,91.5,129.23Z"/></svg>