<svg id="Layer_1" data-name="Layer 1" xmlns="http://www.w3.org/2000/svg" viewBox="0 0 178.5 174"><defs><style>.cls-1{fill:#010101;}</style></defs><path class="cls-1" d="M73.37,73.3H69.21v4.27l2.74,0A3.75,3.75,0,0,0,74.24,77a1.66,1.66,0,0,0,.48-.57,1.15,1.15,0,0,0,.14-.27,1.93,1.93,0,0,0,.16-.89,1.89,1.89,0,0,0,0-.82A2,2,0,0,0,73.37,73.3Z"/><path class="cls-1" d="M136.4,108a4.65,4.65,0,0,0-.3-1,4.53,4.53,0,0,0-.5-.88,3.89,3.89,0,0,0-.32-.39,2.92,2.92,0,0,0-1-.64l-.37-.11c-.32-.07-.64-.11-1-.15s-.65,0-1,0h-1.8v9.45h2.1a4.36,4.36,0,0,0,1.3-.14,4.13,4.13,0,0,0,1.21-.5,3,3,0,0,0,.75-.67,6.3,6.3,0,0,0,.45-.8c.06-.14.11-.28.16-.42a4.47,4.47,0,0,0,.23-.87,5.18,5.18,0,0,0,.06-1.36A4.55,4.55,0,0,0,136.4,108Z"/><path class="cls-1" d="M136.47,92.64a4.68,4.68,0,0,0-.19-1,4.63,4.63,0,0,0-.68-1.35,3.89,3.89,0,0,0-.32-.39,3,3,0,0,0-1-.66,2.32,2.32,0,0,0-.37-.13l-.45,0h-.9l-.45,0h-1.95v9.3h2.1a4.36,4.36,0,0,0,1.3-.14,4.42,4.42,0,0,0,1.21-.5,3,3,0,0,0,.75-.67,5.49,5.49,0,0,0,.9-3.45A4.37,4.37,0,0,0,136.47,92.64Z"/><path class="cls-1" d="M95.8,108.54a1.89,1.89,0,0,0,1.12-3.34,3.27,3.27,0,0,0-.5-.24,2.59,2.59,0,0,0-.55-.13H91.75v3.71h4Z"/><path class="cls-1" d="M10.19,55.37v63.26h155V55.37ZM21.82,84.21l-4.65-6.27-2,1.92v4.35H13.42V71.76h1.76v6l6-6h2.29l-5.14,5L24,84.21Zm11.43-.57-.33.23a5.05,5.05,0,0,1-1.58.64,9.54,9.54,0,0,1-1.69,0,5.13,5.13,0,0,1-3.41-1.05,3.42,3.42,0,0,1-.9-1.2,7.79,7.79,0,0,1-.48-3.38V71.76l1.8.15v7.5a5.05,5.05,0,0,0,.3,2.21A2.8,2.8,0,0,0,29.73,83a2.87,2.87,0,0,0,3-1.65,4.75,4.75,0,0,0,.23-1.87V72h1.76v7.5A4.8,4.8,0,0,1,33.25,83.64ZM46,84.21H37.75V71.76h1.77V82.67H46ZM53.35,73.3h-3.9V84.21h-1.8V73.3H43.79V71.76h9.56Zm9.71,10.19-.37.23a4.5,4.5,0,0,1-1.5.79,9.54,9.54,0,0,1-1.69,0,5.09,5.09,0,0,1-3.41-1.05,3.3,3.3,0,0,1-.9-1.2,7.8,7.8,0,0,1-.49-3.38V71.76l1.8.15v7.5a4.63,4.63,0,0,0,.3,2.21,2.81,2.81,0,0,0,2.7,1.31,2.88,2.88,0,0,0,3-1.65,4.75,4.75,0,0,0,.23-1.87V71.87h1.8v7.5A4.8,4.8,0,0,1,63.06,83.49Zm12.08.72v-.38a19.17,19.17,0,0,1-.23-2.14,4.39,4.39,0,0,0-.07-.72,5.56,5.56,0,0,0-.19-.7,1.59,1.59,0,0,0-.12-.27,1,1,0,0,0-.16-.24,1.45,1.45,0,0,0-.43-.39,2.42,2.42,0,0,0-.73-.29,2.32,2.32,0,0,0-.38-.06H69.21v5.18H67.45V71.76h5.06l.46,0h.47a5.44,5.44,0,0,1,.9.14,5.61,5.61,0,0,1,1.7.7,4,4,0,0,1,.36.35,3.9,3.9,0,0,1,.31.4,3.41,3.41,0,0,1,.37.93,3.63,3.63,0,0,1,.12,1,3.4,3.4,0,0,1-.13,1,3.34,3.34,0,0,1-.17.44A3.23,3.23,0,0,1,75.65,78a3.55,3.55,0,0,1-.44.21l.49.27a2.25,2.25,0,0,1,.56.59,2.09,2.09,0,0,1,.3.76,18.64,18.64,0,0,1,.26,2.47v.83a4.44,4.44,0,0,0,.45,1Zm14.1-3.49A3.43,3.43,0,0,1,88.37,83a5.4,5.4,0,0,1-4.08,1.47,5.74,5.74,0,0,1-3.75-1.17,4.67,4.67,0,0,1-1.32-2,8,8,0,0,1-.22-1v-.56h1.84a3.29,3.29,0,0,0,.6,1.76,1.61,1.61,0,0,0,.52.52,4,4,0,0,0,2.59.83,4.32,4.32,0,0,0,2.17-.49,2.34,2.34,0,0,0,.45-.37,1.92,1.92,0,0,0,.53-1.32,1.32,1.32,0,0,0-.34-.93,3.19,3.19,0,0,0-1.8-.94,6,6,0,0,0-1.16-.3l-1.16-.3a7.34,7.34,0,0,1-2.4-.9,2.88,2.88,0,0,1-.87-.9,3.38,3.38,0,0,1,1.13-4.35,5.88,5.88,0,0,1,3.15-.75,4.38,4.38,0,0,1,4.27,2.29A4.13,4.13,0,0,1,88.94,75a3.31,3.31,0,0,1,0,.63H87.29a2.58,2.58,0,0,0-1-2,3.36,3.36,0,0,0-2.06-.6,2.89,2.89,0,0,0-2.4.82,1.58,1.58,0,0,0-.37,1,1.32,1.32,0,0,0,.22.82,3.92,3.92,0,0,0,2.25,1.09l1.5.3,1,.26a3.79,3.79,0,0,1,2.52,1.65A3.37,3.37,0,0,1,89.24,80.72Zm.33-9H99.1V73.3H95.2V84.21H93.43V73.3H89.57Zm10.17,41a3.46,3.46,0,0,1-.53,1.41c-.1.14-.21.28-.32.41a3.75,3.75,0,0,1-3.24,1.2H90.06V103.29l3.94,0a7,7,0,0,1,1,0,8.78,8.78,0,0,1,1,.09,8,8,0,0,1,2,.59,2.52,2.52,0,0,1,.49.37l.15.15a2.75,2.75,0,0,1,.32.44,3,3,0,0,1,.43,1.55,3.82,3.82,0,0,1-.06.68,2.87,2.87,0,0,1-1.07,1.68,5.14,5.14,0,0,1-.64.38,2.74,2.74,0,0,1,.4.15l.38.2a2.84,2.84,0,0,1,1.33,2.08,2.73,2.73,0,0,1,0,.57A4.19,4.19,0,0,1,99.74,112.72Zm.86-41h1.8V84.21h-1.8Zm10,43.42-.34.22a4.54,4.54,0,0,1-1.54.64,9.43,9.43,0,0,1-1.68,0,4.16,4.16,0,0,1-4.35-2.25,7.75,7.75,0,0,1-.45-3.37v-7.13l1.8.11v7.5a4.69,4.69,0,0,0,.3,2.22,2.77,2.77,0,0,0,2.77,1.42,2.88,2.88,0,0,0,3-1.61,5.68,5.68,0,0,0,.19-1.88v-7.5h1.8v7.5A4.87,4.87,0,0,1,110.61,115.18Zm3.56-41.85h-6.64V77h5.59v1.54h-5.59v5.63h-1.8V71.76h17.85V73.3h-3.9V84.21h-1.8V73.3h-3.71ZM125,115.74h-1.8l-4-6.15c-.53-.79-.9-1.35-1.39-2.21a11.56,11.56,0,0,1-.82-1.35l-.19-.34v10h-1.69V103.29h1.91l4.35,6.68c.34.56.64,1,.94,1.53a2.21,2.21,0,0,1,.3.45l.68,1.47a4.33,4.33,0,0,0,0-.72v-9.41H125Zm.38-33.48a7.8,7.8,0,0,1-.49-3.38V71.76l1.8.15v7.5a4.63,4.63,0,0,0,.3,2.21,2.82,2.82,0,0,0,2.74,1.31,2.89,2.89,0,0,0,3-1.65,5.65,5.65,0,0,0,.23-1.87V72h1.79v7.5a4.76,4.76,0,0,1-1.42,4.12l-.37.23a4.34,4.34,0,0,1-1.54.64,9.54,9.54,0,0,1-1.69,0,5,5,0,0,1-3.41-1.05A3.3,3.3,0,0,1,125.42,82.26Zm12.66,29.28a6.76,6.76,0,0,1-.33,1c-.07.16-.15.31-.23.47s-.16.3-.25.45a6.28,6.28,0,0,1-.48.64,6,6,0,0,1-.57.56,5,5,0,0,1-.76.46,5.85,5.85,0,0,1-.82.33l-.65.16a8,8,0,0,1-2,.14h-3.75V103.29l1.89,0,1.9,0a4.53,4.53,0,0,1,.52,0,6,6,0,0,1,1,.06,6.72,6.72,0,0,1,2.45.87l.45.56a6.14,6.14,0,0,1,.9,1c.15.29.28.59.4.89a8.22,8.22,0,0,1,.47,1.88c0,.33.06.65.07,1A7.13,7.13,0,0,1,138.08,111.54Zm0-15.67a5.33,5.33,0,0,1-.33.92,7.29,7.29,0,0,1-.45.88,4.24,4.24,0,0,1-.46.65,3.81,3.81,0,0,1-.59.55,5.29,5.29,0,0,1-1.58.82c-.21.06-.43.11-.65.15a9.67,9.67,0,0,1-2,.15h-3.75V87.51l3.83.18.52,0,.52,0a6.68,6.68,0,0,1,2.51.66l.46.25.41.34a6.14,6.14,0,0,1,.9,1,7.92,7.92,0,0,1,.42.94,8.46,8.46,0,0,1,.52,3A7.12,7.12,0,0,1,138.05,95.87Zm1.54-21.41-.19-.34V84.21h-1.72V71.76h1.95l4.31,6.67,1,1.54a2.51,2.51,0,0,1,.26.45l.71,1.46a4.21,4.21,0,0,1,0-.71V71.76h1.69V84.17h-1.8l-4-6.15c-.52-.79-1.08-1.72-1.38-2.21S139.85,75,139.59,74.46Zm10.09,41.28h-9V103.29h8.78v1.58h-7v3.71h6.38V110H142.4v4.16h7.28Zm0-15.75h-9V87.51h8.78v1.57h-7v3.71h6.38v1.5H142.4v4.13h7.28Zm.49-21.9A6.59,6.59,0,0,1,153,72.28a6.21,6.21,0,0,1,3.15-.86A5.17,5.17,0,0,1,159.88,73l.22.27a4.88,4.88,0,0,1,.94,2.25l-2.1.07a3.27,3.27,0,0,0-.26-.82A3.31,3.31,0,0,0,155.57,73a4,4,0,0,0-3.75,3.45,8.07,8.07,0,0,0,0,1.39,5.83,5.83,0,0,0,1.23,3.75,4.07,4.07,0,0,0,3,1.24h.89A3.34,3.34,0,0,0,159.2,81a4.83,4.83,0,0,0,.34-1.72V79h-3.75V77.53h5.47v6.68h-1.35V82.14a3.69,3.69,0,0,1-1.46,1.69,4.59,4.59,0,0,1-2.58.68,6,6,0,0,1-2.29-.42,5.09,5.09,0,0,1-1.8-1.35,6.37,6.37,0,0,1-1.24-2.06A8.41,8.41,0,0,1,150.17,78.09Zm10.46,36.49a5.38,5.38,0,0,1-4,1.46,5.79,5.79,0,0,1-3.75-1.16,4.33,4.33,0,0,1-1.31-1.95,2,2,0,0,1-.27-1q0-.3,0-.6h1.8a3.44,3.44,0,0,0,.64,1.8,1.65,1.65,0,0,0,.45.53,3.74,3.74,0,0,0,2.55.82,4.17,4.17,0,0,0,2.17-.48l.45-.38a1.78,1.78,0,0,0,.57-1.31,1.76,1.76,0,0,0-.34-1,3.76,3.76,0,0,0-1.84-.93l-1.16-.3-1.16-.27a7.57,7.57,0,0,1-2.4-.9,2.4,2.4,0,0,1-.83-.9,2.86,2.86,0,0,1-.37-1.46,3.42,3.42,0,0,1,1.46-2.89,5.63,5.63,0,0,1,3.19-.75,4.39,4.39,0,0,1,4.31,2.29,4.88,4.88,0,0,1,.41,1.24,3.42,3.42,0,0,1,0,.64l-1.84,0a2.82,2.82,0,0,0-1-2,3.46,3.46,0,0,0-2.1-.6,3,3,0,0,0-2.4.83,1.56,1.56,0,0,0-.37,1,1.21,1.21,0,0,0,.3.83,3.71,3.71,0,0,0,2.21,1.08l1.5.3,1.05.27a4.08,4.08,0,0,1,2.51,1.61,3.24,3.24,0,0,1,.49,1.87A3.48,3.48,0,0,1,160.63,114.58Zm0-15.75a5.31,5.31,0,0,1-4,1.42,5.57,5.57,0,0,1-3.75-1.16,4.13,4.13,0,0,1-1.31-2,8.21,8.21,0,0,1-.27-1,5.23,5.23,0,0,1,0-.56h1.8a3.91,3.91,0,0,0,.64,1.8,3.65,3.65,0,0,0,.45.52,4.74,4.74,0,0,0,4.72.3,2.34,2.34,0,0,0,.45-.37,1.79,1.79,0,0,0,.57-1.32,1.56,1.56,0,0,0-.34-.93,3.33,3.33,0,0,0-1.84-.94l-1.16-.3-1.16-.26a7.33,7.33,0,0,1-2.4-.94,2.18,2.18,0,0,1-.83-.9,2.88,2.88,0,0,1-.37-1.46A3.39,3.39,0,0,1,153.24,88a5.47,5.47,0,0,1,3.19-.75,4.41,4.41,0,0,1,4.31,2.25,5.92,5.92,0,0,1,.41,1.23c0,.22,0,.43,0,.64h-1.61a2.86,2.86,0,0,0-1-2,3.83,3.83,0,0,0-2.1-.6,3.16,3.16,0,0,0-2.51.94,1.54,1.54,0,0,0-.38.94,1.29,1.29,0,0,0,.3.86,3.73,3.73,0,0,0,2.21,1l1.5.34a5,5,0,0,1,.94.15A4.08,4.08,0,0,1,161,94.63a3.15,3.15,0,0,1,.49,1.84A3.53,3.53,0,0,1,160.63,98.83Z"/><path class="cls-1" d="M95.66,110.09H91.75v4.12H95c.11,0,.23,0,.34,0a3.37,3.37,0,0,0,1-.15,3.16,3.16,0,0,0,1.17-.66,2,2,0,0,0,.43-.93c0-.12,0-.23,0-.35a1.88,1.88,0,0,0-.41-1.27A2.25,2.25,0,0,0,95.66,110.09Z"/></svg>