<svg id="Layer_1" data-name="Layer 1" xmlns="http://www.w3.org/2000/svg" viewBox="0 0 178.5 174"><path d="M29.62,96.5c-1,5.1-1.9,10.2-2.9,15.2-.5,2.6,0,2-2.4,2.1h-7.9c-1.1,0-1.2-.4-1-1.3.9-5.2,1.7-10.3,2.5-15.5,1.4-8.7,2.7-17.4,4.1-26.1,1.2-7.5,2.4-14.9,3.6-22.4.4-2.6.8-5.3,1.2-7.9.1-.6.3-.8.9-.8h9.5c.6,0,.8.1.7.8-.9,6-1.7,11.9-2.5,17.9-.9,6.8-1.9,13.5-2.8,20.3a.65.65,0,0,0,.2.5l2.4-5.7,3.9-9.3a1.1,1.1,0,0,1,1.2-.8h7.9c1.4,0,1.5,0,.9,1.3-2,4.8-4,9.5-6,14.2-.7,1.7-1.4,3.3-2.1,4.9a9.37,9.37,0,0,0-.8,4.7c.7,7.6,1.3,15.1,2,22.7.2,2.3.2,2.3-2.1,2.3h-7.2c-1,0-1.2-.3-1.3-1.2-.5-5-1.1-10.1-1.6-15.1C29.92,97.2,30,96.9,29.62,96.5Z"/><path d="M59.42,91.6a3.49,3.49,0,0,0-.6,1.8c-1.2,6.3-2.4,12.6-3.5,18.9-.2,1.1-.5,1.5-1.7,1.5-2.4-.1-4.9-.1-7.3,0-.7,0-1-.1-.8-1,1.6-8.4,3.2-16.8,4.7-25.2,1.4-7.7,2.9-15.4,4.3-23,.2-1.2.7-1.6,1.9-1.5,2.3.1,4.7.1,7,0,.8,0,1.1.1,1.2,1,.6,6.2,1.2,12.5,1.8,18.7.1.8.2,1.6.3,2.6a50.13,50.13,0,0,0,1.2-5.8c1-5.1,1.9-10.3,2.8-15.4.1-.8.4-1.1,1.3-1.1,2.6.1,5.1.1,7.7,0,.8,0,.9.3.8,1C78.32,75.6,76.22,87,74,98.5c-.9,4.8-1.8,9.6-2.6,14.4-.1.7-.4.9-1.1.9-2.7,0-5.4-.1-8.1,0-1,0-1.2-.4-1.2-1.2-.3-4.6-.7-9.3-1-13.9C59.82,96.4,59.62,94.1,59.42,91.6Z"/><path d="M119.52,63.1h5c.6,0,.8.2.7.8-1.2,6-2.3,12-3.4,18-1.3,7.2-2.9,14.4-4,21.7,0,.3-.1.6-.1.9,0,.7-.1,1.5.8,1.7a1.7,1.7,0,0,0,2-1,19.09,19.09,0,0,0,1.1-4.1c1.7-8.8,3.3-17.5,4.9-26.3.7-3.6,1.3-7.1,2-10.7.1-.7.3-1,1.1-1h9.7c.8,0,.9.3.8,1-1.8,9.7-3.6,19.4-5.5,29.1-.6,3.4-1.3,6.7-2.1,10.1a15,15,0,0,1-16.9,11.5,13.86,13.86,0,0,1-3.5-.9c-4.5-1.9-6.5-5.7-5.7-10.7,1.4-8.9,3.2-17.7,4.8-26.6.8-4.2,1.6-8.3,2.3-12.5.1-.8.4-1,1.2-1C116.32,63.2,117.92,63.1,119.52,63.1Z"/><path d="M97.32,63.1h6.2c.9,0,1.3.2,1.2,1.2-.5,6.4-.9,12.7-1.4,19.1l-1.5,21.6c-.2,2.6-.4,5.3-.6,7.9,0,.7-.3,1-1,1h-8.7c-.9,0-1-.3-.9-1.1l.9-6.9c.1-.9-.1-1.2-1-1.2-2.8,0-2.8,0-3.6,2.8l-1.5,5.4c-.2.8-.5,1-1.3,1-3.1,0-6.2-.1-9.3,0-1.1,0-1.2-.3-.9-1.2,1.3-4.1,2.6-8.2,4-12.3,2.7-8.3,5.3-16.6,8-24.8,1.2-3.8,2.5-7.6,3.7-11.4a1.13,1.13,0,0,1,1.3-.9C93.12,63.1,95.22,63.1,97.32,63.1ZM94.82,77c-.4,0-.4.2-.4.3-1.5,5.3-3.2,10.5-4.5,15.8-.2.8-1,1.9-.4,2.4s1.7.1,2.5.2,1.1-.3,1.2-1.1c.3-3.9.8-7.7,1.1-11.6C94.42,81,94.92,79,94.82,77Z"/><path d="M153.82,63.1h8.1c1,0,1.4,0,1.2,1.3-.6,2.6-1,5.3-1.5,8-.1.7-.4.9-1.1.9h-5.8a1,1,0,0,0-1.2.9c-.4,2.6-.9,5.1-1.4,7.7-.2.8,0,1.1.9,1.1,1.6-.1,3.2,0,4.8,0,.7,0,1,.1.9.9-.5,2.6-.9,5.2-1.3,7.8-.1.7-.4.9-1.1.9h-5.2c-.6,0-.9.1-1,.8-1.4,8.3-2.9,16.5-4.4,24.8-.9,4.9-1.8,9.8-2.6,14.8-.2.9-.5,1.2-1.5,1.2q-4.5-.15-9,0c-.9,0-1-.3-.8-1,1-5.7,2.1-11.3,3.1-17,1.6-8.8,3.1-17.6,4.7-26.5l4.2-22.8c.1-.8.3-1.6.4-2.5s.5-1,1.3-1A74.93,74.93,0,0,1,153.82,63.1Z"/></svg>