<svg id="Layer_1" data-name="Layer 1" xmlns="http://www.w3.org/2000/svg" viewBox="0 0 178.5 174"><defs><style>.cls-1{fill:#010101;}</style></defs><path class="cls-1" d="M36.28,65.83c0,.16,0,.32,0,.48V87H15.07V65.83ZM29,74.74l5.24-3a9.47,9.47,0,1,0,0,9.35L29,78.1a3.4,3.4,0,1,1,0-3.36Z"/><path class="cls-1" d="M163.43,65.83V87H142.28c0-.14,0-.27,0-.4V66.2c0-.12,0-.25,0-.37ZM150.08,78a2.33,2.33,0,0,1,.22.25Q153,81.6,155.77,85a.7.7,0,0,0,.64.31c1.57,0,3.14,0,4.71,0l.4,0V67.54h-6v7.31l-.23-.26-5.44-6.81a.64.64,0,0,0-.56-.27h-4.82l-.34,0V85.32h5.91Z"/><path class="cls-1" d="M78.64,65.83V87H57.46V66.34c0-.17,0-.34,0-.51ZM59.75,67.34V85.47h6.08V80.22c.54,0,1,0,1.56,0a.45.45,0,0,1,.47.3c.77,1.57,1.56,3.13,2.35,4.69.08.17.14.31.39.31,2.12,0,4.23,0,6.34,0l.2,0-3.58-6,.35-.2a6.33,6.33,0,0,0,2.85-7.68,6.55,6.55,0,0,0-6.15-4.26c-3.58,0-7.15,0-10.72,0Z"/><path class="cls-1" d="M121,65.83c0,.11,0,.22,0,.33V87H99.86V65.83Zm-1.07,10.58a9.48,9.48,0,1,0-9.46,9.47A9.49,9.49,0,0,0,119.93,76.41Z"/><path class="cls-1" d="M28.69,88.55h6v18.11l-.39,0c-1.76,0-3.51,0-5.27,0a.72.72,0,0,1-.62-.31c-1.82-2.29-3.66-4.57-5.49-6.86l-.31-.37v7.51h-6V88.52H18c1.42,0,2.84,0,4.26,0a.73.73,0,0,1,.68.32l5.49,6.86.3.34Z"/><path class="cls-1" d="M150.57,100.09v.38c0,1.94,0,3.88,0,5.82,0,.31-.09.4-.4.4-2,0-3.9,0-5.85,0l-.36,0V88.55h6.59V94.3l.08,0c.07-.1.15-.2.22-.31,1.15-1.73,2.3-3.45,3.44-5.19a.58.58,0,0,1,.56-.31c2.45,0,4.89,0,7.42,0l-.24.36c-1.95,2.69-3.89,5.39-5.85,8.08a.43.43,0,0,0,0,.6l5.84,8.71.27.41h-.46c-2.32,0-4.63,0-6.94,0a.59.59,0,0,1-.58-.33q-1.71-3-3.44-5.93c-.08-.12-.16-.24-.23-.36Z"/><path class="cls-1" d="M131.67,67a9.46,9.46,0,1,1-9.49,9.38A9.46,9.46,0,0,1,131.67,67Zm-3.43,9.45A3.4,3.4,0,1,0,131.68,73,3.4,3.4,0,0,0,128.24,76.41Z"/><path class="cls-1" d="M119.91,97.6a9.47,9.47,0,1,1-9.42-9.45A9.47,9.47,0,0,1,119.91,97.6Zm-9.46,3.4a3.4,3.4,0,1,0-3.4-3.42A3.41,3.41,0,0,0,110.45,101Z"/><path class="cls-1" d="M41.94,67.35h9.84l4.54,18.12H49.89l-.7-3c-1.49,0-2.95,0-4.41,0a.39.39,0,0,0-.27.25c-.2.82-.39,1.65-.58,2.48,0,.18-.07.29-.29.29H37.52l-.11,0Zm6.2,10.56L46.89,72.5h-.06l-1.23,5.4Z"/><path class="cls-1" d="M36.3,108.16V87H57.43v21.12Zm18.51-6.42H45V100h8.3c0-.15,0-.27,0-.39,0-1.26,0-2.52,0-3.78,0-.34-.1-.41-.42-.41H45V93.82h9.82V88.54H38.92v18.13H54.81Z"/><path class="cls-1" d="M85.83,85.47V72.65H80.2V67.36H98.3v5.27H92.68V85.47Z"/><path class="cls-1" d="M59,93.82V88.55H77.13v5.26H71.47v12.85l-.41,0c-2,0-4,0-6,0-.33,0-.41-.09-.41-.41q0-6,0-11.94v-.52Z"/><path class="cls-1" d="M78.69,87.05H99.83v21.12H78.69Zm10.57,14.77c.69,1.58,1.35,3.06,2,4.55a.43.43,0,0,0,.48.33c1.57,0,3.14,0,4.71,0h.37c.64-6.08,1.28-12.11,1.92-18.16H93c-.25,2.36-.5,4.69-.75,7h-.06c-1-2.12-2-4.25-3-6.44l-3,6.55-.75-7.13h-5.7q1,9.09,1.91,18.11l.15,0q2.52,0,5,0a.45.45,0,0,0,.32-.22c.18-.36.33-.74.5-1.11C88.2,104.21,88.71,103.06,89.26,101.82Z"/><path class="cls-1" d="M142.22,87v21.13H121.08V87Zm-5.07,13.61.29-.18a6.37,6.37,0,0,0,3.23-6.37,6.44,6.44,0,0,0-6.36-5.56c-3.54-.05-7.09,0-10.64,0l-.35,0v18.13h6.07V101.4c.54,0,1.05,0,1.55,0a.47.47,0,0,1,.51.31c.78,1.56,1.57,3.12,2.35,4.69a.46.46,0,0,0,.5.31c2,0,4,0,6,0l.39,0Z"/><path class="cls-1" d="M65.82,75.64c1.3,0,2.57,0,3.83,0a1.47,1.47,0,0,0,1.43-1.45,1.5,1.5,0,0,0-1.39-1.52c-1.27,0-2.54,0-3.81,0,0,0,0,0-.06,0Z"/><path class="cls-1" d="M65.82,75.64V72.71s0,0,.06,0c1.27,0,2.54,0,3.81,0a1.5,1.5,0,0,1,1.39,1.52,1.47,1.47,0,0,1-1.43,1.45C68.39,75.65,67.12,75.64,65.82,75.64Z"/><path class="cls-1" d="M110.44,79.8a3.39,3.39,0,1,1,3.39-3.37A3.38,3.38,0,0,1,110.44,79.8Z"/><path class="cls-1" d="M129.4,96.84v-3a1,1,0,0,1,.17,0c1.17,0,2.35,0,3.52,0a1.47,1.47,0,0,1,1.56,1.54A1.51,1.51,0,0,1,133,96.84Z"/></svg>