<?xml version="1.0" encoding="UTF-8"?>
<svg id="Layer_1" xmlns="http://www.w3.org/2000/svg" version="1.1" viewBox="0 0 178.5 174">
  <!-- Generator: Adobe Illustrator 29.0.0, SVG Export Plug-In . SVG Version: 2.1.0 Build 186)  -->
  <defs>
    <style>
      .st0 {
        fill: #010101;
      }
    </style>
  </defs>
  <g>
    <path class="st0" d="M121.4,77.9c-1.1,0-1.7.7-1.7,2.5s.5,2.5,1.7,2.5,1.6-.7,1.6-2.5-.5-2.5-1.6-2.5Z"/>
    <path class="st0" d="M107.6,80.4c0-1.6-.5-2.4-1.4-2.4-.6,0-1.1.2-1.6.4v3.9c.5.2,1,.4,1.6.4,1,0,1.5-.8,1.5-2.3Z"/>
    <path class="st0" d="M109.5,92.1c-.9,0-1.5.6-1.6,1.9h2.9c0-1.3-.4-1.9-1.3-1.9Z"/>
    <path class="st0" d="M89.4,106.5c-.9,0-1.5.6-1.6,1.9h2.9c0-1.4-.4-1.9-1.3-1.9Z"/>
    <path class="st0" d="M90.3,63.5c-.9,0-1.5.7-1.6,1.9h2.9c0-1.3-.4-1.9-1.3-1.9Z"/>
    <path class="st0" d="M127.6,92.1c-.9,0-1.5.6-1.6,1.9h2.9c0-1.3-.4-1.9-1.3-1.9Z"/>
    <path class="st0" d="M84.1,64.7c0-1.1-.2-2.1-.9-2.9-.5-.6-1.1-.7-2.6-.7h-.8v7.3h.5c1.6,0,2.2-.2,2.8-.7.7-.8,1.1-1.9,1-3Z"/>
    <path class="st0" d="M82.9,105.3c0-.4-.2-.9-.5-1.1-.3-.2-.7-.2-1.7-.2h-.9v2.9h.7c1.9,0,2.4-.4,2.4-1.6Z"/>
    <path class="st0" d="M140.4,77.8c-.9,0-1.5.7-1.6,1.9h2.9c0-1.3-.4-1.9-1.3-1.9Z"/>
    <path class="st0" d="M130,63.5c-.9,0-1.5.7-1.6,1.9h2.9c0-1.3-.4-1.9-1.3-1.9Z"/>
    <path class="st0" d="M82.5,108.1c-.5-.2-1-.3-1.5-.2h-1.2v3.4h.7c.6,0,1.3,0,1.9-.2.5-.3.9-.9.8-1.5,0-.6-.2-1.1-.7-1.5Z"/>
    <path class="st0" d="M82,89.5c-1.7,0-2.5,1.3-2.5,3.8,0,1,.2,2,.7,2.9.4.6,1.1.9,1.8.8,1.7,0,2.5-1.2,2.5-3.8s-.8-3.8-2.4-3.8Z"/>
    <path class="st0" d="M72.9,55.2v63.4h97.5v-63.4h-97.5ZM134.8,75.7c-.5,0-.9-.3-.9-.8,0-.5.3-.9.8-.9,0,0,.1,0,.2,0,.5,0,.8.5.8.9,0,.4-.4.7-.8.8ZM135.4,77v6.8h-1.4v-6.8h1.4ZM129.9,62.5c1.8,0,2.7,1.1,2.7,3.4v.3h-4.2s0,.2,0,.2c0,1.4.6,2,1.6,2,.8,0,1.6-.2,2.3-.5l.2.8c-.9.5-1.9.8-2.9.8-1.7,0-2.8-1.2-2.8-3.3s1.2-3.8,3-3.8ZM119.7,59.3h1.3v3.9c.7-.4,1.5-.6,2.3-.7.6,0,1.2.2,1.5.7.3.4.3.7.3,1.8v4.4h-1.4v-4.1c0-.9,0-1.6-1-1.6-.6,0-1.2.1-1.7.3v5.4h-1.4v-10.2ZM116.1,62.5c.8,0,1.5.2,2.2.4l-.2.9c-.5-.1-1.1-.2-1.6-.2-1.2,0-1.8.8-1.8,2.4s.6,2.3,1.7,2.3c.6,0,1.2-.1,1.8-.3l.3.8c-.8.4-1.7.6-2.6.7-1.6,0-2.7-1.2-2.7-3.5s1.2-3.6,2.9-3.6ZM109.4,66.5c-1.2-.3-2.1-.8-2.1-2s.9-2,2.4-2c.7,0,1.4.1,2,.4l-.2.9c-.5-.1-1-.2-1.6-.2-.7,0-1.2.3-1.2.9,0,1.4,3.3.5,3.3,2.9,0,1.5-1,2.3-2.7,2.3-.7,0-1.4-.1-2.1-.3l.2-1c.5.1,1.1.2,1.7.2,1,0,1.4-.3,1.4-1s-.2-.7-1.1-1ZM109,80.3c0,2.2-1,3.6-2.5,3.6-.7,0-1.4-.3-2-.8v3.5h-1.4v-9.6h1.3v.6c.7-.4,1.5-.7,2.3-.8,1.4,0,2.3,1.3,2.3,3.5ZM101.6,62.9h1.2v-2h1.4v1.8h1.8v1h-1.8v3.2c0,1.1,0,1.2.1,1.3.1.2.4.3.6.2.4,0,.8,0,1.2-.2l.2.9c-.6.3-1.3.4-1.9.4-.6,0-1.1-.2-1.4-.7-.2-.5-.3-1-.2-1.6v-3.6h-1.2v-.8ZM94.7,67.2v-4.5h1.4v4.1c0,.9,0,1.6,1,1.6.6,0,1.2-.1,1.7-.3v-5.4h1.4v6.8h-1.3v-.6c-.7.4-1.5.7-2.4.7-.6,0-1.2-.2-1.6-.7-.3-.5-.4-1.2-.3-1.8ZM90.2,62.5c1.8,0,2.7,1.1,2.7,3.4v.3h-4.2v.2c0,1.4.6,2,1.6,2,.8,0,1.5-.2,2.3-.5l.2.8c-.9.5-1.9.8-2.9.8-1.7,0-2.8-1.2-2.8-3.3s1.2-3.8,3-3.8ZM91.3,91.3h.3v1.2c-.1,0-.3,0-.4,0-.6,0-1.2.1-1.7.4v5.2h-1.4v-6.8h1.3v.7c.5-.5,1.2-.7,1.9-.7ZM87.9,82.1l1.7-5.1h1.3l-2.8,7.6c-.6,1.7-1.1,2.1-2.3,2.1-.3,0-.7,0-1,0v-.9c.3,0,.5,0,.7,0,.9,0,1,0,1.6-1.5l.2-.6-2.8-6.7h1.5l1.9,5.1ZM78.4,59.9h2.6c1.7,0,2.6.2,3.3.9,1,1,1.5,2.5,1.4,3.9.1,1.6-.6,3.2-1.8,4.2-.8.5-1.5.6-3.3.6h-2.2v-9.5ZM81.3,79.8c-1.6-.6-3.6-.8-3.6-3s1.2-2.7,3.1-2.7c.9,0,1.8.2,2.7.4l-.2,1c-.8-.2-1.5-.3-2.3-.3-.9,0-1.7.5-1.7,1.5s.3,1,1.8,1.5c2,.6,2.8,1.1,2.8,2.8s-1.3,3-3.4,3c-1,0-1.9-.2-2.8-.5l.3-1.1c.8.2,1.6.3,2.4.3,1.1,0,2.1-.5,2.1-1.5s-.2-1-1.1-1.3ZM84.7,109.7c0,1-.5,1.9-1.5,2.3-.8.3-1.7.4-2.6.3h-2.3v-9.5h2.1c.9,0,1.8,0,2.7.3.8.3,1.2,1.2,1.2,2,0,0,0,0,0,0,0,1.1-.8,2-1.9,2.1.1,0,.2,0,.3,0,1.2.1,2,1.2,1.9,2.4ZM82,98.2c-2.6,0-4-1.8-4-4.9s1.5-4.9,4.1-4.9,4,1.8,4,4.9-1.5,4.9-4.1,4.9ZM92,109.2h-4.2s0,.2,0,.2c0,1.4.6,2,1.6,2,.8,0,1.6-.2,2.3-.5l.3.8c-.9.5-1.9.8-2.9.8-1.7,0-2.7-1.2-2.7-3.3s1.2-3.8,3-3.8,2.7,1.1,2.7,3.4v.3ZM92.2,77h1.3v.5c.6-.4,1.4-.6,2.1-.7.6,0,1.1.3,1.4.8.7-.4,1.5-.7,2.3-.8,1.6,0,1.6,1.3,1.6,2.5v4.4h-1.4v-4c0-.9,0-1.7-.9-1.7-.5,0-1,.2-1.5.4,0,.3,0,.6,0,.9v4.5h-1.4v-4c0-.9,0-1.7-.9-1.7-.5,0-1,.2-1.4.4v5.4h-1.4v-6.8ZM97.4,106.8c-.1,0-.3,0-.5,0-.6,0-1.2.1-1.7.4v5.3h-1.4v-6.8h1.3v.6c.5-.5,1.2-.7,1.9-.7h.3v1.2ZM95,98.2c-1.6,0-2.7-1.2-2.7-3.5s1.2-3.6,2.9-3.6c.8,0,1.5.2,2.2.5l-.2.9c-.5-.1-1.1-.2-1.6-.2-1.2,0-1.8.8-1.8,2.4s.6,2.3,1.7,2.3c.6,0,1.2-.1,1.8-.3l.3.8c-.8.4-1.7.7-2.5.7ZM100.1,112.4h-1.4v-10.2h1.4v10.2ZM103.8,112.4h-1.4v-6.8h1.4v6.8ZM103.1,104.3c-.5,0-.9-.4-.9-.8,0,0,0,0,0,0,0-.5.4-.8.9-.8.5,0,.8.4.8.9,0,.5-.4.8-.8.8ZM104.6,98.1h-1.4v-4.1c0-.9,0-1.6-1-1.6-.6,0-1.2.1-1.7.3v5.4h-1.5v-10.2h1.4v3.9c.7-.4,1.5-.6,2.3-.7.6,0,1.2.2,1.5.7.3.4.3.7.3,1.8v4.4ZM111.6,112.4h-1.4v-4.1c0-.9,0-1.6-1-1.6-.6,0-1.2.1-1.7.3v5.4h-1.5v-6.8h1.3v.6c.7-.4,1.5-.7,2.4-.7.6,0,1.2.2,1.5.7.3.4.3.7.3,1.8v4.4ZM112.1,94.9h-4.2s0,.2,0,.2c0,1.4.6,2,1.6,2,.8,0,1.6-.2,2.3-.5l.2.8c-.9.5-1.9.8-2.9.8-1.7,0-2.8-1.2-2.8-3.3s1.2-3.8,3-3.8,2.7,1.1,2.7,3.4v.3ZM112.3,83.8h-1.4v-10.2h1.4v3.9c.7-.4,1.5-.6,2.3-.7.6,0,1.2.2,1.5.7.3.4.3.7.3,1.8v4.4h-1.4v-4.1c0-.9,0-1.6-1-1.6-.6,0-1.2.1-1.7.3v5.4ZM115.5,98.2c-.7,0-1.4-.1-2.1-.3l.2-.9c.5.1,1.1.2,1.7.2.9,0,1.4-.3,1.4-1s-.2-.7-1.1-1c-1.2-.3-2.1-.8-2.1-2s.9-2.1,2.4-2.1c.7,0,1.4.1,2,.4l-.2.9c-.5-.1-1.1-.2-1.7-.1-.7,0-1.2.3-1.2.9,0,1.4,3.3.5,3.3,2.9,0,1.4-.9,2.2-2.6,2.2ZM121.7,98.2c-.6,0-1.1-.2-1.4-.8-.2-.5-.3-1-.2-1.5v-3.7h-1.1v-.8l1.1-.2v-1.9h1.4v1.8h1.9v1h-1.9v3.3c0,1.1,0,1.2.1,1.3.1.2.4.3.6.3.4,0,.8,0,1.2-.2l.2.9c-.6.3-1.3.4-1.9.4ZM121.4,83.9c-2,0-3.1-1.3-3.1-3.5s1.1-3.5,3.1-3.5,3.1,1.2,3.1,3.5h0c0,2.2-1.1,3.5-3.1,3.5ZM130.2,94.9h-4.2s0,.2,0,.2c0,1.4.6,2,1.6,2,.8,0,1.5-.2,2.3-.5l.3.8c-.9.5-1.9.8-2.9.8-1.7,0-2.7-1.2-2.7-3.3s1.2-3.8,3-3.8,2.7,1.1,2.7,3.4v.3ZM131.9,83.8h-1.4v-4.1c0-.9,0-1.6-1-1.6-.6,0-1.2.1-1.7.3v5.4h-1.4v-6.8h1.3v.6c.7-.4,1.5-.7,2.4-.7.6,0,1.2.2,1.5.7.3.4.3.7.3,1.8v4.4ZM135.5,92.5c-.1,0-.3,0-.4,0-.6,0-1.2.1-1.7.4v5.2h-1.4v-6.8h1.3v.7c.5-.5,1.2-.7,1.9-.7h.3v1.2ZM134,69.3l.2-1c.5.1,1.1.2,1.7.2.9,0,1.4-.3,1.4-1s-.2-.7-1.1-1c-1.2-.3-2.1-.8-2.1-2s.9-2,2.4-2c.7,0,1.4.1,2,.4l-.2.9c-.5-.1-1-.2-1.6-.2-.7,0-1.2.3-1.2.9,0,1.4,3.3.5,3.3,2.9,0,1.5-1,2.3-2.7,2.3-.7,0-1.4-.1-2.1-.3ZM143,80.5h-4.2s0,.2,0,.2c0,1.4.6,2,1.6,2,.8,0,1.5-.2,2.3-.5l.3.8c-.9.5-1.9.8-2.9.8-1.7,0-2.8-1.2-2.8-3.3s1.2-3.8,3-3.8,2.7,1.1,2.7,3.4v.3Z"/>
  </g>
  <path class="st0" d="M31.2,55.2c-4,4.4-5.9,11.5.7,16.7,2.1,1.6,8.1,6.2,9.2,7l-.7.7c-.8-.6-4.5-3.2-10-7.4h0c-5.2-4-6.7-11.5-2.2-17h-1.5c-4,4.2-5.7,13.2.6,18.5,2.1,1.8,9.3,7.5,10.6,8.5l-.7.7s0,0,0,0h0,0c-.9-.7-5.8-4.4-11.3-9.1-5.6-4.6-6.6-12.9-2.1-18.6h-1.5c-5.8,7.7-4.6,16.1,2.1,21.7,2.2,1.8,9.5,7.6,10.5,8.4l-.8.8c-.6-.5-4.6-3.6-10.5-8.5-7.9-6.5-9-15.7-4.1-22.4h-1.5c-5.8,8.1-4.7,18.4,3.1,25.2,2.2,2,9.8,7.6,10.7,8.2l-.7.8c-.6-.3-4.8-3.3-10.8-8.3-8.8-7.2-10.1-19.4-5.2-25.8H5.9v63.4h34-1.5c3.5-4.8,1.8-11.9-2-15-4.3-3.5-11-8.5-11-8.5l2.3-2.4c2,1.6,8.2,6.5,10.2,8.1,6.5,5.2,5.5,13.2,2,17.7h2.9c3.4-5.3,2.9-12.8-3.2-17.8-5-4.1-9.5-7.6-11.1-8.8l2.4-2.5c1.4,1.1,8.3,6.7,10.4,8.5,6.6,5.5,7.8,13.1,2.9,20.7h3c4-5.8,2.7-15.1-5-21.6-5.6-4.6-9.4-7.7-10.3-8.5l2.2-2.3c1.6,1.2,8.3,6.2,10.4,8,7.7,6.8,9.3,16.6,4.2,24.3h3c4.3-6,2.9-18-6.1-25.1-5.4-4.4-9.3-7.3-10.4-8.1l2.2-2.3c5.7,3.9,12,8.7,15.6,13.7,4.3,6.1,4.3,15.2.2,21.9h14.5v-63.4H31.2Z"/>
</svg>