<svg id="Layer_1" data-name="Layer 1" xmlns="http://www.w3.org/2000/svg" viewBox="0 0 178.5 174"><path d="M62.28,75.56c-.2-1.2-.4-2.5-.6-3.7h0a29.92,29.92,0,0,0-1-3.2,10.09,10.09,0,0,0-.7-1.5,9.06,9.06,0,0,0-1.1-1.6,6,6,0,0,0-.8-.8,5.72,5.72,0,0,0-1.6-1.1,18.75,18.75,0,0,0-5.3-2,22,22,0,0,0-3.7-.6c-1.4-.2-2.9-.3-4.3-.4a40.48,40.48,0,0,0-4.9.1,45.51,45.51,0,0,0-6.3.9,21.72,21.72,0,0,0-2.4.7,14.76,14.76,0,0,0-2.9,1.2,11.78,11.78,0,0,0-1.9,1.1,14.31,14.31,0,0,0-1.5,1.1A15.38,15.38,0,0,0,22,67c-.6.5-1.1,1.1-1.7,1.7-.3.3-.6.7-.9,1s-.5.7-.8,1l-.9,1.2c-.3.5-.7.9-1,1.4s-.7,1-1,1.5a25.29,25.29,0,0,0-1.3,2.2,10.93,10.93,0,0,0-.8,1.5c-.5,1-.9,1.9-1.4,2.9a30.44,30.44,0,0,0-1.4,3.9,25.75,25.75,0,0,0-.8,4s-1.2,8.6,6.8,16.6c8.4,8.4,17.3,7.5,17.3,7.5a11.63,11.63,0,0,0,1.6-.3c1-.2,2-.5,3-.7s1.7-.6,2.5-.9a14.17,14.17,0,0,0,1.8-.8,15.11,15.11,0,0,0,1.8-.9l1.8-.9c.5-.3.9-.5,1.4-.8a8.79,8.79,0,0,1,1-.6l.9-.6c.5-.4,1.1-.8,1.6-1.2l1.1-.8,1.8-1.5c.7-.7,1.5-1.4,2.2-2.1.5-.6,1-1.2,1.5-1.9a19.92,19.92,0,0,0,1.2-1.9,22.63,22.63,0,0,0,1.7-4.3c.3-1.1.6-2.3.8-3.4s.4-2.5.6-3.8l.3-3.9v-3.9A20.24,20.24,0,0,1,62.28,75.56ZM41,101.66a15.9,15.9,0,1,1,11.9-19A15.82,15.82,0,0,1,41,101.66Z"/><polygon points="134.88 78.96 128.98 92.36 123.68 78.96 119.38 78.96 126.98 97.66 130.88 97.66 139.28 78.96 134.88 78.96"/><path d="M163,80.46v-1.4h-3.9v18.7H163v-11c0-3,1.8-3.5,4-3.6l1.6-3.7A10.79,10.79,0,0,0,163,80.46Z"/><path d="M96.68,80.46v-1.4h-3.9v18.7h3.9v-11c0-3,1.8-3.5,4-3.6l1.6-3.7A10.79,10.79,0,0,0,96.68,80.46Z"/><path d="M148.08,79a9.61,9.61,0,0,0-9.8,9.4,9.18,9.18,0,0,0,9.1,9.3,9.75,9.75,0,0,0,8.3-4.7l-3.5-1.7a5.32,5.32,0,0,1-4.3,2.4,5.49,5.49,0,0,1-5.3-3.5h14.2a4.53,4.53,0,0,0,.1-.8c0-.2.1-.7.1-1C156.88,83.06,153.38,79,148.08,79Zm-5.4,7a5.25,5.25,0,0,1,5.1-3,5.43,5.43,0,0,1,4.7,3l.1.3h-10Z"/><path d="M111.08,79a9.5,9.5,0,0,0-9.6,9.4,9,9,0,0,0,8.9,9.3,9.52,9.52,0,0,0,9.8-9.3,10.9,10.9,0,0,0-.3-2.6A8.84,8.84,0,0,0,111.08,79Zm-5.6,9.3a5.4,5.4,0,1,1,5.4,5.4,5.38,5.38,0,0,1-5.4-5.4"/><path d="M80.68,85.36l-1.2,2.8h7.2a7,7,0,0,1-.6,1.9,8.26,8.26,0,0,1-7.5,4.9,8.4,8.4,0,0,1,0-16.8,8.09,8.09,0,0,1,6.1,2.7c.1.2.3.3.4.5a.65.65,0,0,0,.9.2l2.9-1.4a12.16,12.16,0,1,0-10.3,18.7,12.27,12.27,0,0,0,12.2-12.3v-2.3h-8.3A1.89,1.89,0,0,0,80.68,85.36Z"/></svg>