<svg id="Layer_1" data-name="Layer 1" xmlns="http://www.w3.org/2000/svg" viewBox="0 0 178.5 174"><defs><style>.cls-1{fill:#010101;}</style></defs><g id="dFHxBA.tif"><path class="cls-1" d="M87.63,24.5h3.25c.15,0,.3.05.46.06a58.82,58.82,0,0,1,9.17,1,62.25,62.25,0,0,1,37.24,22.1A61.56,61.56,0,0,1,151.69,85c0,.14,0,.28.06.43v3.12a2.73,2.73,0,0,0-.05.4c-.07,1.13-.12,2.26-.2,3.4a56.79,56.79,0,0,1-1,7.22,62.58,62.58,0,0,1-45.94,48,60.34,60.34,0,0,1-13.16,1.85c-.17,0-.33,0-.49.06H87.63l-.65-.06c-1.37-.1-2.75-.12-4.11-.29-2.07-.25-4.13-.54-6.17-.94a58.83,58.83,0,0,1-11.8-3.65,62.72,62.72,0,0,1-31.31-29.14,61.48,61.48,0,0,1-6.78-26.37c0-.14,0-.28-.06-.42V85.44A3.15,3.15,0,0,0,26.8,85a62.25,62.25,0,0,1,.89-8.72,60.5,60.5,0,0,1,4.62-15A62.53,62.53,0,0,1,87.13,24.56C87.3,24.55,87.46,24.52,87.63,24.5ZM48.53,94.07a28,28,0,0,0-4.83-.85,17.61,17.61,0,0,0-4.7.09,7.14,7.14,0,0,0-3.48,1.49,3.47,3.47,0,0,0-1.28,2,4,4,0,0,0,1.23,3.78,8.63,8.63,0,0,0,3.92,2.11,13.4,13.4,0,0,0,5.6.25A14.65,14.65,0,0,0,52.18,100a1.58,1.58,0,0,1,1.76-.27c3.11,1.14,6.3,2,9.51,2.9q5.31,1.4,10.72,2.35a93.45,93.45,0,0,0,9.42,1.27c2.22.18,4.45.37,6.67.41,2.69,0,5.38,0,8.06-.1,3.77-.1,7.53-.39,11.27-.81,2.56-.29,5.13-.58,7.68-1,3.14-.48,6.28-1,9.4-1.62,4.08-.78,8.11-1.74,12.11-2.85.74-.2,1.47-.42,2.23-.64l-.7-2.51-.86.26a99.94,99.94,0,0,1-14.21,3c-2.95.43-5.92.79-8.89,1.07s-6.12.51-9.18.67c-2.71.15-5.41.22-8.12.25a127,127,0,0,1-14.73-.47c-2.26-.23-4.51-.46-6.76-.79s-4.6-.72-6.88-1.17a111.82,111.82,0,0,1-14.19-3.75l-.77-.29c.07-.12.11-.2.15-.28.68-1.44,1.41-2.86,2-4.33,1.32-3.25,2.37-6.59,3.38-10a.51.51,0,0,1,.37-.39c.62-.2,1.24-.42,1.85-.67a24.44,24.44,0,0,0,8.41-5.43A13.3,13.3,0,0,0,76,65.41a5.47,5.47,0,0,0-1.49-3.89A7.65,7.65,0,0,0,69,59.07a10.67,10.67,0,0,0-6.73,2,16.14,16.14,0,0,0-4.35,4.81A35.22,35.22,0,0,0,54,75.54c-.23.87-.43,1.74-.65,2.61,0,.17-.05.39-.34.33-1.14-.22-2.29-.41-3.43-.65-.68-.15-1.34-.36-2-.55-.25.71-.49,1.4-.74,2.09-.08.21,0,.31.16.37.77.26,1.52.57,2.31.76,1.13.28,2.29.47,3.51.72A75.86,75.86,0,0,1,48.53,94.07ZM95.39,79.48H95l-7,.12a.38.38,0,0,0-.44.34c-.81,3.06-1.63,6.11-2.44,9.16a.75.75,0,0,1-.35.48A22.43,22.43,0,0,1,78,92.35a12.83,12.83,0,0,1-4.32.45A3.23,3.23,0,0,1,71,91.1a2.22,2.22,0,0,1-.25-1.39h.18a12.93,12.93,0,0,0,3.46,0,16.15,16.15,0,0,0,5.25-1.6,5.81,5.81,0,0,0,2.65-2.56,3.84,3.84,0,0,0-1.14-4.93,6.47,6.47,0,0,0-2-.87,15.57,15.57,0,0,0-5.89-.25,13.45,13.45,0,0,0-5.58,1.94,9.55,9.55,0,0,0-4.41,5.68,7.18,7.18,0,0,0,.28,5,6.32,6.32,0,0,0,3.77,3.34,15.68,15.68,0,0,0,8.31.61,28,28,0,0,0,8.46-3l.77-.42a.69.69,0,0,1,.06.13,4.21,4.21,0,0,0,2.82,3.17,8,8,0,0,0,4.13.24,14.85,14.85,0,0,0,6.64-3.08l.57-.46s.06,0,.07.06A8.7,8.7,0,0,0,108.26,96,13.61,13.61,0,0,0,115,92.3l.24-.23a6.46,6.46,0,0,0,3.15,3.14,8.62,8.62,0,0,0,9.12-1.51l.24-.21c.29.34.53.69.83,1a5.45,5.45,0,0,0,4.59,1.39,11.63,11.63,0,0,0,5.93-2.41c.57-.42.57-.43.38-1.1s-.29-1-.44-1.57a2.13,2.13,0,0,0-.09-.27l-.49.32a5.64,5.64,0,0,1-1.92.86,1.33,1.33,0,0,1-1.68-1.38,6.7,6.7,0,0,1,.22-1.6c.67-2.44,1.36-4.88,2-7.32.18-.63.39-1.25.59-1.87l-.12,0c-2.25,0-4.5.08-6.75.14-.08,0-.19.11-.22.19-.09.26-.15.53-.23.84a4.5,4.5,0,0,0-2.14-1.48,9,9,0,0,0-4.54-.21A10.76,10.76,0,0,0,117,83a9.59,9.59,0,0,0-2.31,5.49,1.81,1.81,0,0,1-.62,1.3,7.94,7.94,0,0,1-4.84,2.49,2.57,2.57,0,0,1-2.91-1.65,3.79,3.79,0,0,1-.26-1.37,10.27,10.27,0,0,1,1.85-5.76,3.37,3.37,0,0,1,.3-.36,3.18,3.18,0,0,1,4.69-.21c.19.17.35.36.54.54a.35.35,0,0,0,.08-.12c.29-1,.59-1.91.86-2.87a.29.29,0,0,0-.13-.28,8.08,8.08,0,0,0-1.14-.57,10.52,10.52,0,0,0-4.46-.52,11.85,11.85,0,0,0-6.76,2.68,9.5,9.5,0,0,0-3.75,7.13,1.62,1.62,0,0,1-.59,1.28c-.36.27-.68.59-1,.84a4.23,4.23,0,0,1-2.64.83,1.18,1.18,0,0,1-1.27-1,2.88,2.88,0,0,1,.05-1.17c.67-2.54,1.36-5.08,2-7.61C94.9,81.2,95.14,80.36,95.39,79.48ZM92.92,76.7l0-.09a6.41,6.41,0,0,0,2.38-.41,3,3,0,0,0,2-3.14A2.73,2.73,0,0,0,95,70.62a7.48,7.48,0,0,0-3.58-.07,3,3,0,0,0-2.53,2.81,2.48,2.48,0,0,0,1.72,2.87A19.52,19.52,0,0,0,92.92,76.7Z"/><path class="cls-1" d="M61.76,77.85c.15-.83.28-1.57.44-2.31a43,43,0,0,1,2.25-7.64,15.44,15.44,0,0,1,1.91-3.5,5.36,5.36,0,0,1,2-1.73,3,3,0,0,1,3.51.79,3.24,3.24,0,0,1,.56,2.41,13,13,0,0,1-2.59,6.56,15.18,15.18,0,0,1-6.31,4.74C63,77.41,62.42,77.6,61.76,77.85Z"/><path class="cls-1" d="M46.58,97.41a12.28,12.28,0,0,1-5.28,2.42,3.57,3.57,0,0,1-3-.93,1.38,1.38,0,0,1,.28-2.3,3.18,3.18,0,0,1,1.7-.44A18.73,18.73,0,0,1,46.58,97.41Z"/><path class="cls-1" d="M129.24,84a15.5,15.5,0,0,1-2.1,6.54,3.77,3.77,0,0,1-1.77,1.53,2,2,0,0,1-2.93-1.82,11.52,11.52,0,0,1,.93-5,6.84,6.84,0,0,1,1.68-2.71,2.73,2.73,0,0,1,2.79-.73A2.11,2.11,0,0,1,129.24,84Z"/><path class="cls-1" d="M71.39,87.18c.15-.57.28-1.09.43-1.61A8.23,8.23,0,0,1,73,83.05a3.17,3.17,0,0,1,2.11-1.43,2.94,2.94,0,0,1,1.22.06,1.5,1.5,0,0,1,1.18,1.95,3.8,3.8,0,0,1-2.73,3.2A8.05,8.05,0,0,1,71.39,87.18Z"/></g></svg>