<?xml version="1.0" encoding="UTF-8"?>
<svg id="Layer_1" data-name="Layer 1" xmlns="http://www.w3.org/2000/svg" viewBox="0 0 121.51 119.35">
  <polygon points="16.56 13.17 18.55 12.16 67.41 61.19 18.55 110.95 16.56 109.94 16.56 13.17"/>
  <path d="M19.55,9.69l3.78-.36,59.49,33.42c.83.61,1.91.91,1.6,2.29-.23,1.03-14.26,14.64-15.3,14.46L19.55,9.69Z"/>
  <path d="M19.55,113.42l49.57-49.8c1.04-.18,15.07,13.42,15.3,14.45.31,1.4-.77,1.66-1.61,2.28-17.58,8.56-34.23,20.6-51.6,29.26-3.71,1.85-7.28,4.44-11.66,3.81Z"/>
  <path d="M87.1,45.74c4.4,2.73,22.9,10.55,23.37,15.37.55,5.6-18.86,13.29-23.38,16.31l-15.55-16.23,15.55-15.45Z"/>
</svg>