<svg id="Layer_1" data-name="Layer 1" xmlns="http://www.w3.org/2000/svg" viewBox="0 0 178.5 174"><defs><style>.cls-1{fill:#010101;}</style></defs><g id="ehdZwC"><path class="cls-1" d="M31.22,127.43c.53-1.31,1.07-2.61,1.57-3.94q5.37-14.17,10.72-28.37a.67.67,0,0,1,.73-.53c1.36,0,2.71,0,4.07,0a.64.64,0,0,1,.69.5q4.28,12,8.57,23.9l2.94,8.18c0,.11.06.23.11.41a3.78,3.78,0,0,1-.51.08c-1.23,0-2.46,0-3.68,0a.7.7,0,0,1-.78-.56c-1-2.8-2-5.59-2.93-8.39a.81.81,0,0,0-.9-.65q-5.94,0-11.88,0a.74.74,0,0,0-.82.59c-1,2.73-2,5.45-2.94,8.18-.21.61-.48.89-1.17.84-1-.06-2.07,0-3.11,0a5.58,5.58,0,0,1-.68-.1Zm19.87-13.36-5-14.27-.17,0-5.17,14.25Z"/><path class="cls-1" d="M92.3,54.06H93c5.48,0,11,0,16.45,0a15,15,0,0,1,8.67,2.46A13.27,13.27,0,0,1,123.36,64a22.8,22.8,0,0,1-.27,14.17,13.17,13.17,0,0,1-9.23,8.45,22.7,22.7,0,0,1-6.4.85c-4.83,0-9.66,0-14.49,0-.55,0-.72-.14-.72-.71q0-16.09,0-32.21C92.26,54.45,92.29,54.28,92.3,54.06Zm10.22,16.67v7.62c0,.4,0,.71.56.71,1.48,0,3,0,4.45-.07a6.28,6.28,0,0,0,5.69-3.82,11.38,11.38,0,0,0,.83-5.59,7.06,7.06,0,0,0-6.31-6.87c-1.46-.2-3-.12-4.44-.21-.62,0-.8.18-.79.79C102.54,65.77,102.52,68.25,102.52,70.73Z"/><path class="cls-1" d="M62.24,70.75c0-5.32,0-10.63,0-16,0-.59.17-.76.75-.76q13.35,0,26.69,0c.6,0,.8.16.79.78q0,3.43,0,6.87c0,.63-.17.83-.81.83-5.43,0-10.85,0-16.27,0-.91,0-.91,0-.91.91s0,1.82,0,2.73c0,.52.19.71.71.7,2,0,3.9,0,5.84,0,3.56,0,7.12,0,10.68,0,.62,0,.78.18.77.79,0,2.09,0,4.19,0,6.29,0,.85,0,.85-.83.85H73.48c-1,0-1,0-1,1,0,.85,0,1.7,0,2.54,0,.61.22.76.78.75,3.34,0,6.69,0,10,0h6.29c.89,0,.89,0,.89.91,0,2.25,0,4.49,0,6.74,0,.64-.16.82-.81.82q-10.45,0-20.9,0h-5.6c-.91,0-.91,0-.91-.89Z"/><path class="cls-1" d="M31.48,54.06h28c1,0,1,0,1,1,0,2.23,0,4.45,0,6.67,0,.6-.16.81-.78.8-2.54,0-5.08,0-7.62,0-1,0-1,0-1,1V86.55c0,1,0,1-1,1H41.86c-1,0-1,0-1-1V63.7c0-1.19,0-1.19-1.22-1.19-2.5,0-5,0-7.5,0-.55,0-.73-.16-.72-.72,0-2.35,0-4.7,0-7C31.45,54.54,31.47,54.33,31.48,54.06Z"/><path class="cls-1" d="M68.16,107.09c1.79-2.47,3.93-4.08,6.91-4.19s5.37.94,6.83,3.74c.51-.55.94-1.06,1.42-1.52a8.48,8.48,0,0,1,10.8-.61,7,7,0,0,1,2.54,5.79c0,5.57,0,11.14,0,16.71,0,.55-.21.68-.71.66-.89,0-1.78,0-2.67,0-.53,0-.69-.16-.69-.68q0-7.05,0-14.11a17.49,17.49,0,0,0-.16-2.4,4.38,4.38,0,0,0-6.89-3.2,6.25,6.25,0,0,0-2.85,4.53,16.43,16.43,0,0,0-.23,2.71q0,6.23,0,12.45c0,.53-.13.72-.67.69-.91,0-1.83,0-2.73,0-.54,0-.69-.15-.69-.68q0-8,0-15.94a4.62,4.62,0,0,0-1-3.26,4.37,4.37,0,0,0-5-.8,6.45,6.45,0,0,0-3.69,4.64,14.37,14.37,0,0,0-.42,3.39c0,3.94,0,7.88,0,11.82,0,.82,0,.82-.85.82s-1.65,0-2.48,0c-.57,0-.76-.14-.76-.75,0-7.13,0-14.27,0-21.4,0-.45,0-.9,0-1.34s.17-.59.6-.58q1.36,0,2.73,0c.42,0,.56.17.55.56,0,.77,0,1.53,0,2.29C68.11,106.6,68.13,106.73,68.16,107.09Z"/><path class="cls-1" d="M110.92,128.44a42.82,42.82,0,0,1-4.49-.8c-3.08-.88-4.69-3.1-5.19-6.19C101,120,101,120,102.5,120c.68,0,1.36,0,2,0,.17,0,.45.2.47.34.47,3.17,2.5,4.31,5.41,4.47a9.3,9.3,0,0,0,4.31-.54,3.55,3.55,0,0,0,2.17-3.91,2.18,2.18,0,0,0-1.61-1.8c-1.69-.53-3.41-1-5.13-1.44-1.42-.39-2.88-.7-4.27-1.2-3-1.08-4.26-3.09-4-6.33a6.71,6.71,0,0,1,5.16-6.13,12.46,12.46,0,0,1,8.47.34,7.16,7.16,0,0,1,4.61,6.25c0,.42-.06.59-.49.59-.94,0-1.87,0-2.8,0a.72.72,0,0,1-.55-.43,4.39,4.39,0,0,0-3.87-3.6,8.6,8.6,0,0,0-4.63.33,3,3,0,0,0-2,2.06,2.39,2.39,0,0,0,1.5,3.15c1.64.57,3.33,1,5,1.43s3.21.8,4.75,1.37c3.14,1.18,4.37,3.43,3.77,7.13-.49,3.11-2.87,5.32-6.22,6C113.48,128.2,112.33,128.27,110.92,128.44Z"/></g><path class="cls-1" d="M132.59,74.32h-6.74l6.46-10.61-6.48-9.81H133l3.18,5.21,3.35-5.21h7l-6.85,9.81L146,74.32h-6.85l-3.26-5.73Z"/></svg>