<svg id="Layer_1" data-name="Layer 1" xmlns="http://www.w3.org/2000/svg" viewBox="0 0 178.5 174"><defs><style>.cls-1{fill:#010101;}</style></defs><path class="cls-1" d="M82.3,101.29a8.26,8.26,0,0,0-1.3-.24,9.79,9.79,0,0,1-8.07-8.24,10.87,10.87,0,0,1,1.42-7.72,9.74,9.74,0,0,1,7.28-4.65A9.63,9.63,0,0,1,92.75,88.1a17,17,0,0,1,.35,4.21c0,.26-.15.22-.3.22H78.7c-.46,0-.46,0-.35.43a5,5,0,0,0,4.17,3.87,8,8,0,0,0,6.62-1.65c.15-.12.2-.08.29,0,.7,1,1.4,2.08,2.11,3.11.14.19,0,.26-.09.35a10.62,10.62,0,0,1-4.07,2.07,14.54,14.54,0,0,1-2.62.47c-.07,0-.14,0-.17.06Zm.84-12.41h4.63c.15,0,.31.05.27-.22a4.44,4.44,0,0,0-2.6-3.58,5.86,5.86,0,0,0-2.68-.45,4.58,4.58,0,0,0-4.5,3.92c0,.23,0,.34.28.34C80.07,88.87,81.6,88.88,83.14,88.88Z"/><path class="cls-1" d="M126,83.34a9.22,9.22,0,0,1,4.48-2.73,7.34,7.34,0,0,1,4.74.21,4.72,4.72,0,0,1,2.75,2.8c0,.08,0,.16.1.29a7.49,7.49,0,0,1,1.39-1.52,8.39,8.39,0,0,1,7.19-1.89,4.8,4.8,0,0,1,4,4.18,10.24,10.24,0,0,1,.14,1.75v14c0,.27,0,.35-.33.35-1.54,0-3.09,0-4.64,0-.28,0-.33-.09-.33-.35q0-6,0-12a5,5,0,0,0-.13-1.33A2.47,2.47,0,0,0,143,85a5,5,0,0,0-4.53,2.17.6.6,0,0,0-.09.43v12.74c0,.48.05.41-.42.41h-4.51c-.31,0-.37-.09-.37-.38q0-6,0-12a6.91,6.91,0,0,0-.07-1.2A2.52,2.52,0,0,0,130.61,85a5.14,5.14,0,0,0-4.54,2.18c-.11.13-.07.29-.07.43q0,6.38,0,12.74c0,.34-.08.42-.41.41-1.51,0-3,0-4.54,0-.26,0-.32-.07-.32-.33V81.16c0-.24,0-.34.31-.34,1.55,0,3.09,0,4.64,0,.26,0,.33.08.32.33C126,81.86,126,82.57,126,83.34Z"/><path class="cls-1" d="M28.1,100.78H23.46a.38.38,0,0,1-.43-.28Q16.52,84.21,10,67.9c-.15-.37-.15-.37.24-.37h9.28a.41.41,0,0,1,.45.31Q26.49,84.15,33,100.47c.1.26.07.32-.22.32Z"/><path class="cls-1" d="M50.94,80.83h.67c1.53,0,3.07,0,4.6,0a.42.42,0,0,1,.47.32q2.45,6.57,4.91,13.13l.17.43,1.07-2.81q2-5.4,4.07-10.79c.06-.16.11-.28.33-.28,1.74,0,3.49,0,5.23,0l.15,0L72.16,82q-3.72,9.24-7.42,18.47a.41.41,0,0,1-.45.31c-1.68,0-3.37,0-5.06,0a.36.36,0,0,1-.4-.27Q54.95,90.8,51,81.1A2.64,2.64,0,0,1,50.94,80.83Z"/><path class="cls-1" d="M38.13,88.3,29.84,67.59c.08-.1.18-.06.26-.06h16c.27,0,.3,0,.2.3L38.26,88C38.23,88.07,38.19,88.15,38.13,88.3Z"/><path class="cls-1" d="M101,83.5a9.67,9.67,0,0,1,1.87-1.67,8.51,8.51,0,0,1,4.09-1.5c.29,0,.41,0,.41.36,0,1.45,0,2.9,0,4.35,0,.41,0,.4-.4.35a7,7,0,0,0-5.24,1.45l-.1.08a1.59,1.59,0,0,0-.64,1.36c0,4,0,8.11,0,12.16,0,.29-.08.35-.36.35-1.53,0-3,0-4.58,0-.24,0-.33-.05-.33-.32q0-9.66,0-19.34c0-.24.06-.31.3-.31,1.56,0,3.12,0,4.68,0,.22,0,.29.06.29.29C101,81.88,101,82.65,101,83.5Z"/><path class="cls-1" d="M110.87,90.8c0-3.21,0-6.42,0-9.64,0-.27.06-.34.34-.34,1.54,0,3.09,0,4.63,0,.22,0,.3.05.3.29q0,9.69,0,19.4c0,.24-.09.28-.3.28-1.54,0-3.07,0-4.61,0-.28,0-.37-.06-.36-.35C110.88,97.22,110.87,94,110.87,90.8Z"/><path class="cls-1" d="M155.49,90.83q0-4.81,0-9.63c0-.28,0-.39.36-.38,1.54,0,3.07,0,4.61,0,.22,0,.29.06.29.29q0,9.69,0,19.4c0,.23-.08.28-.3.28-1.55,0-3.09,0-4.64,0-.26,0-.32-.07-.32-.32C155.49,97.26,155.49,94,155.49,90.83Z"/><path class="cls-1" d="M116.62,75.53a3.12,3.12,0,1,1-6.23,0,3.12,3.12,0,0,1,6.23,0Z"/><path class="cls-1" d="M161.23,75.54a3.12,3.12,0,1,1-6.24,0,3.12,3.12,0,0,1,6.24,0Z"/></svg>